<ttFont>
    <TTGlyph name=".notdef" xMin="4" yMin="0" xMax="514" yMax="701">
      <contour>
        <pt x="259" y="302" on="1"/>
        <pt x="255" y="302" on="1"/>
        <pt x="155" y="93" on="1"/>
        <pt x="95" y="93" on="1"/>
        <pt x="229" y="353" on="1"/>
        <pt x="95" y="608" on="1"/>
        <pt x="155" y="608" on="1"/>
        <pt x="260" y="402" on="1"/>
        <pt x="264" y="402" on="1"/>
        <pt x="364" y="608" on="1"/>
        <pt x="424" y="608" on="1"/>
        <pt x="289" y="347" on="1"/>
        <pt x="424" y="93" on="1"/>
        <pt x="364" y="93" on="1"/>
      </contour>
      <contour>
        <pt x="59" y="649" on="1"/>
        <pt x="59" y="52" on="1"/>
        <pt x="459" y="52" on="1"/>
        <pt x="459" y="649" on="1"/>
      </contour>
      <contour>
        <pt x="4" y="0" on="1"/>
        <pt x="4" y="701" on="1"/>
        <pt x="514" y="701" on="1"/>
        <pt x="514" y="0" on="1"/>
      </contour>
    </TTGlyph>
    <TTGlyph name="A" xMin="12" yMin="0" xMax="627" yMax="682">
      <contour>
        <pt x="589" y="0" on="1"/>
        <pt x="371" y="0" on="1"/>
        <pt x="371" y="8" on="1"/>
        <pt x="371" y="55" on="0"/>
        <pt x="410" y="59" on="1"/>
        <pt x="445" y="61" on="1"/>
        <pt x="401" y="221" on="1"/>
        <pt x="209" y="221" on="1"/>
        <pt x="163" y="63" on="1"/>
        <pt x="242" y="57" on="1"/>
        <pt x="248" y="0" on="0"/>
        <pt x="203" y="0" on="1"/>
        <pt x="12" y="0" on="1"/>
        <pt x="12" y="8" on="1"/>
        <pt x="12" y="55" on="0"/>
        <pt x="51" y="59" on="1"/>
        <pt x="90" y="61" on="1"/>
        <pt x="282" y="682" on="1"/>
        <pt x="320" y="686" on="0"/>
        <pt x="369" y="682" on="1"/>
        <pt x="559" y="63" on="1"/>
        <pt x="627" y="57" on="1"/>
        <pt x="633" y="0" on="0"/>
      </contour>
      <contour>
        <pt x="226" y="281" on="1"/>
        <pt x="384" y="281" on="1"/>
        <pt x="307" y="557" on="1"/>
      </contour>
    </TTGlyph>
    <TTGlyph name="AE" xMin="12" yMin="0" xMax="854" yMax="683">
      <contour>
        <pt x="361" y="0" on="1"/>
        <pt x="361" y="12" on="1"/>
        <pt x="361" y="34" on="0"/>
        <pt x="373" y="48" on="0"/>
        <pt x="377" y="52" on="1"/>
        <pt x="386" y="59" on="0"/>
        <pt x="400" y="59" on="1"/>
        <pt x="435" y="61" on="1"/>
        <pt x="435" y="299" on="1"/>
        <pt x="276" y="299" on="1"/>
        <pt x="164" y="63" on="1"/>
        <pt x="242" y="57" on="1"/>
        <pt x="248" y="0" on="0"/>
        <pt x="203" y="0" on="1"/>
        <pt x="12" y="0" on="1"/>
        <pt x="12" y="8" on="1"/>
        <pt x="12" y="55" on="0"/>
        <pt x="51" y="59" on="1"/>
        <pt x="90" y="61" on="1"/>
        <pt x="393" y="682" on="1"/>
        <pt x="834" y="683" on="1"/>
        <pt x="834" y="535" on="1"/>
        <pt x="834" y="495" on="0"/>
        <pt x="777" y="501" on="1"/>
        <pt x="768" y="617" on="1"/>
        <pt x="540" y="621" on="1"/>
        <pt x="540" y="366" on="1"/>
        <pt x="724" y="384" on="1"/>
        <pt x="734" y="344" on="0"/>
        <pt x="725" y="295" on="1"/>
        <pt x="540" y="305" on="1"/>
        <pt x="540" y="63" on="1"/>
        <pt x="788" y="71" on="1"/>
        <pt x="797" y="187" on="1"/>
        <pt x="854" y="193" on="0"/>
        <pt x="854" y="153" on="1"/>
        <pt x="854" y="0" on="1"/>
      </contour>
      <contour>
        <pt x="435" y="359" on="1"/>
        <pt x="435" y="619" on="1"/>
        <pt x="429" y="620" on="1"/>
        <pt x="305" y="359" on="1"/>
      </contour>
    </TTGlyph>
    <TTGlyph name="Aacute" xMin="12" yMin="0" xMax="627" yMax="901">
      <contour>
        <pt x="589" y="0" on="1"/>
        <pt x="371" y="0" on="1"/>
        <pt x="371" y="8" on="1"/>
        <pt x="371" y="55" on="0"/>
        <pt x="410" y="59" on="1"/>
        <pt x="445" y="61" on="1"/>
        <pt x="401" y="221" on="1"/>
        <pt x="209" y="221" on="1"/>
        <pt x="163" y="63" on="1"/>
        <pt x="242" y="57" on="1"/>
        <pt x="248" y="0" on="0"/>
        <pt x="203" y="0" on="1"/>
        <pt x="12" y="0" on="1"/>
        <pt x="12" y="8" on="1"/>
        <pt x="12" y="55" on="0"/>
        <pt x="51" y="59" on="1"/>
        <pt x="90" y="61" on="1"/>
        <pt x="282" y="682" on="1"/>
        <pt x="320" y="686" on="0"/>
        <pt x="369" y="682" on="1"/>
        <pt x="559" y="63" on="1"/>
        <pt x="627" y="57" on="1"/>
        <pt x="633" y="0" on="0"/>
      </contour>
      <contour>
        <pt x="226" y="281" on="1"/>
        <pt x="384" y="281" on="1"/>
        <pt x="307" y="557" on="1"/>
      </contour>
      <contour>
        <pt x="485" y="840" on="1"/>
        <pt x="281" y="731" on="1"/>
        <pt x="255" y="744" on="0"/>
        <pt x="244" y="768" on="1"/>
        <pt x="410" y="901" on="1"/>
        <pt x="431" y="898" on="0"/>
        <pt x="475" y="858" on="0"/>
      </contour>
    </TTGlyph>
    <TTGlyph name="Abreve" xMin="12" yMin="0" xMax="627" yMax="896">
      <contour>
        <pt x="589" y="0" on="1"/>
        <pt x="371" y="0" on="1"/>
        <pt x="371" y="8" on="1"/>
        <pt x="371" y="55" on="0"/>
        <pt x="410" y="59" on="1"/>
        <pt x="445" y="61" on="1"/>
        <pt x="401" y="221" on="1"/>
        <pt x="209" y="221" on="1"/>
        <pt x="163" y="63" on="1"/>
        <pt x="242" y="57" on="1"/>
        <pt x="248" y="0" on="0"/>
        <pt x="203" y="0" on="1"/>
        <pt x="12" y="0" on="1"/>
        <pt x="12" y="8" on="1"/>
        <pt x="12" y="55" on="0"/>
        <pt x="51" y="59" on="1"/>
        <pt x="90" y="61" on="1"/>
        <pt x="282" y="682" on="1"/>
        <pt x="320" y="686" on="0"/>
        <pt x="369" y="682" on="1"/>
        <pt x="559" y="63" on="1"/>
        <pt x="627" y="57" on="1"/>
        <pt x="633" y="0" on="0"/>
      </contour>
      <contour>
        <pt x="226" y="281" on="1"/>
        <pt x="384" y="281" on="1"/>
        <pt x="307" y="557" on="1"/>
      </contour>
      <contour>
        <pt x="479" y="821" on="0"/>
        <pt x="396" y="738" on="0"/>
        <pt x="254" y="738" on="0"/>
        <pt x="172" y="821" on="0"/>
        <pt x="165" y="877" on="1"/>
        <pt x="200" y="896" on="1"/>
        <pt x="212" y="867" on="0"/>
        <pt x="275" y="815" on="0"/>
        <pt x="327" y="815" on="1"/>
        <pt x="418" y="815" on="0"/>
        <pt x="452" y="895" on="1"/>
        <pt x="487" y="877" on="1"/>
      </contour>
    </TTGlyph>
    <TTGlyph name="Acircumflex" xMin="12" yMin="0" xMax="627" yMax="880">
      <contour>
        <pt x="589" y="0" on="1"/>
        <pt x="371" y="0" on="1"/>
        <pt x="371" y="8" on="1"/>
        <pt x="371" y="55" on="0"/>
        <pt x="410" y="59" on="1"/>
        <pt x="445" y="61" on="1"/>
        <pt x="401" y="221" on="1"/>
        <pt x="209" y="221" on="1"/>
        <pt x="163" y="63" on="1"/>
        <pt x="242" y="57" on="1"/>
        <pt x="248" y="0" on="0"/>
        <pt x="203" y="0" on="1"/>
        <pt x="12" y="0" on="1"/>
        <pt x="12" y="8" on="1"/>
        <pt x="12" y="55" on="0"/>
        <pt x="51" y="59" on="1"/>
        <pt x="90" y="61" on="1"/>
        <pt x="282" y="682" on="1"/>
        <pt x="320" y="686" on="0"/>
        <pt x="369" y="682" on="1"/>
        <pt x="559" y="63" on="1"/>
        <pt x="627" y="57" on="1"/>
        <pt x="633" y="0" on="0"/>
      </contour>
      <contour>
        <pt x="226" y="281" on="1"/>
        <pt x="384" y="281" on="1"/>
        <pt x="307" y="557" on="1"/>
      </contour>
      <contour>
        <pt x="324" y="808" on="1"/>
        <pt x="187" y="722" on="1"/>
        <pt x="168" y="734" on="0"/>
        <pt x="155" y="756" on="1"/>
        <pt x="291" y="880" on="1"/>
        <pt x="327" y="889" on="0"/>
        <pt x="362" y="880" on="1"/>
        <pt x="495" y="756" on="1"/>
        <pt x="480" y="732" on="0"/>
        <pt x="461" y="722" on="1"/>
      </contour>
    </TTGlyph>
    <TTGlyph name="Adieresis" xMin="12" yMin="0" xMax="627" yMax="879">
      <contour>
        <pt x="589" y="0" on="1"/>
        <pt x="371" y="0" on="1"/>
        <pt x="371" y="8" on="1"/>
        <pt x="371" y="55" on="0"/>
        <pt x="410" y="59" on="1"/>
        <pt x="445" y="61" on="1"/>
        <pt x="401" y="221" on="1"/>
        <pt x="209" y="221" on="1"/>
        <pt x="163" y="63" on="1"/>
        <pt x="242" y="57" on="1"/>
        <pt x="248" y="0" on="0"/>
        <pt x="203" y="0" on="1"/>
        <pt x="12" y="0" on="1"/>
        <pt x="12" y="8" on="1"/>
        <pt x="12" y="55" on="0"/>
        <pt x="51" y="59" on="1"/>
        <pt x="90" y="61" on="1"/>
        <pt x="282" y="682" on="1"/>
        <pt x="320" y="686" on="0"/>
        <pt x="369" y="682" on="1"/>
        <pt x="559" y="63" on="1"/>
        <pt x="627" y="57" on="1"/>
        <pt x="633" y="0" on="0"/>
      </contour>
      <contour>
        <pt x="226" y="281" on="1"/>
        <pt x="384" y="281" on="1"/>
        <pt x="307" y="557" on="1"/>
      </contour>
      <contour>
        <pt x="294" y="790" on="0"/>
        <pt x="258" y="753" on="0"/>
        <pt x="205" y="753" on="0"/>
        <pt x="167" y="790" on="0"/>
        <pt x="167" y="842" on="0"/>
        <pt x="205" y="879" on="0"/>
        <pt x="258" y="879" on="0"/>
        <pt x="294" y="842" on="0"/>
      </contour>
      <contour>
        <pt x="475" y="790" on="0"/>
        <pt x="438" y="753" on="0"/>
        <pt x="385" y="753" on="0"/>
        <pt x="349" y="790" on="0"/>
        <pt x="349" y="842" on="0"/>
        <pt x="386" y="879" on="0"/>
        <pt x="438" y="879" on="0"/>
        <pt x="475" y="842" on="0"/>
      </contour>
    </TTGlyph>
    <TTGlyph name="Agrave" xMin="12" yMin="0" xMax="627" yMax="898">
      <contour>
        <pt x="589" y="0" on="1"/>
        <pt x="371" y="0" on="1"/>
        <pt x="371" y="8" on="1"/>
        <pt x="371" y="55" on="0"/>
        <pt x="410" y="59" on="1"/>
        <pt x="445" y="61" on="1"/>
        <pt x="401" y="221" on="1"/>
        <pt x="209" y="221" on="1"/>
        <pt x="163" y="63" on="1"/>
        <pt x="242" y="57" on="1"/>
        <pt x="248" y="0" on="0"/>
        <pt x="203" y="0" on="1"/>
        <pt x="12" y="0" on="1"/>
        <pt x="12" y="8" on="1"/>
        <pt x="12" y="55" on="0"/>
        <pt x="51" y="59" on="1"/>
        <pt x="90" y="61" on="1"/>
        <pt x="282" y="682" on="1"/>
        <pt x="320" y="686" on="0"/>
        <pt x="369" y="682" on="1"/>
        <pt x="559" y="63" on="1"/>
        <pt x="627" y="57" on="1"/>
        <pt x="633" y="0" on="0"/>
      </contour>
      <contour>
        <pt x="226" y="281" on="1"/>
        <pt x="384" y="281" on="1"/>
        <pt x="307" y="557" on="1"/>
      </contour>
      <contour>
        <pt x="255" y="898" on="1"/>
        <pt x="422" y="765" on="1"/>
        <pt x="411" y="741" on="0"/>
        <pt x="384" y="728" on="1"/>
        <pt x="181" y="837" on="1"/>
        <pt x="189" y="855" on="0"/>
        <pt x="234" y="895" on="0"/>
      </contour>
    </TTGlyph>
    <TTGlyph name="Amacron" xMin="12" yMin="0" xMax="627" yMax="826">
      <contour>
        <pt x="589" y="0" on="1"/>
        <pt x="371" y="0" on="1"/>
        <pt x="371" y="8" on="1"/>
        <pt x="371" y="55" on="0"/>
        <pt x="410" y="59" on="1"/>
        <pt x="445" y="61" on="1"/>
        <pt x="401" y="221" on="1"/>
        <pt x="209" y="221" on="1"/>
        <pt x="163" y="63" on="1"/>
        <pt x="242" y="57" on="1"/>
        <pt x="248" y="0" on="0"/>
        <pt x="203" y="0" on="1"/>
        <pt x="12" y="0" on="1"/>
        <pt x="12" y="8" on="1"/>
        <pt x="12" y="55" on="0"/>
        <pt x="51" y="59" on="1"/>
        <pt x="90" y="61" on="1"/>
        <pt x="282" y="682" on="1"/>
        <pt x="320" y="686" on="0"/>
        <pt x="369" y="682" on="1"/>
        <pt x="559" y="63" on="1"/>
        <pt x="627" y="57" on="1"/>
        <pt x="633" y="0" on="0"/>
      </contour>
      <contour>
        <pt x="226" y="281" on="1"/>
        <pt x="384" y="281" on="1"/>
        <pt x="307" y="557" on="1"/>
      </contour>
      <contour>
        <pt x="466" y="826" on="1"/>
        <pt x="466" y="761" on="1"/>
        <pt x="183" y="761" on="1"/>
        <pt x="183" y="826" on="1"/>
      </contour>
    </TTGlyph>
    <TTGlyph name="Aogonek" xMin="12" yMin="-178" xMax="643" yMax="682">
      <contour>
        <pt x="538" y="-80" on="1"/>
        <pt x="538" y="-104" on="0"/>
        <pt x="562" y="-129" on="0"/>
        <pt x="609" y="-129" on="0"/>
        <pt x="636" y="-107" on="1"/>
        <pt x="640" y="-110" on="0"/>
        <pt x="645" y="-136" on="0"/>
        <pt x="643" y="-144" on="1"/>
        <pt x="619" y="-178" on="0"/>
        <pt x="518" y="-178" on="0"/>
        <pt x="468" y="-134" on="0"/>
        <pt x="468" y="-100" on="1"/>
        <pt x="468" y="-40" on="0"/>
        <pt x="525" y="0" on="1"/>
        <pt x="371" y="0" on="1"/>
        <pt x="371" y="8" on="1"/>
        <pt x="371" y="55" on="0"/>
        <pt x="410" y="59" on="1"/>
        <pt x="445" y="61" on="1"/>
        <pt x="401" y="221" on="1"/>
        <pt x="209" y="221" on="1"/>
        <pt x="163" y="63" on="1"/>
        <pt x="242" y="57" on="1"/>
        <pt x="248" y="0" on="0"/>
        <pt x="203" y="0" on="1"/>
        <pt x="12" y="0" on="1"/>
        <pt x="12" y="8" on="1"/>
        <pt x="12" y="55" on="0"/>
        <pt x="51" y="59" on="1"/>
        <pt x="90" y="61" on="1"/>
        <pt x="282" y="682" on="1"/>
        <pt x="320" y="686" on="0"/>
        <pt x="369" y="682" on="1"/>
        <pt x="559" y="63" on="1"/>
        <pt x="627" y="57" on="1"/>
        <pt x="633" y="1" on="0"/>
        <pt x="590" y="0" on="1"/>
        <pt x="538" y="-28" on="0"/>
      </contour>
      <contour>
        <pt x="226" y="281" on="1"/>
        <pt x="384" y="281" on="1"/>
        <pt x="307" y="557" on="1"/>
      </contour>
    </TTGlyph>
    <TTGlyph name="Aring" xMin="12" yMin="0" xMax="627" yMax="908">
      <contour>
        <pt x="589" y="0" on="1"/>
        <pt x="371" y="0" on="1"/>
        <pt x="371" y="8" on="1"/>
        <pt x="371" y="55" on="0"/>
        <pt x="410" y="59" on="1"/>
        <pt x="445" y="61" on="1"/>
        <pt x="401" y="221" on="1"/>
        <pt x="209" y="221" on="1"/>
        <pt x="163" y="63" on="1"/>
        <pt x="242" y="57" on="1"/>
        <pt x="248" y="0" on="0"/>
        <pt x="203" y="0" on="1"/>
        <pt x="12" y="0" on="1"/>
        <pt x="12" y="8" on="1"/>
        <pt x="12" y="55" on="0"/>
        <pt x="51" y="59" on="1"/>
        <pt x="90" y="61" on="1"/>
        <pt x="282" y="682" on="1"/>
        <pt x="320" y="686" on="0"/>
        <pt x="369" y="682" on="1"/>
        <pt x="559" y="63" on="1"/>
        <pt x="627" y="57" on="1"/>
        <pt x="633" y="0" on="0"/>
      </contour>
      <contour>
        <pt x="226" y="281" on="1"/>
        <pt x="384" y="281" on="1"/>
        <pt x="307" y="557" on="1"/>
      </contour>
      <contour>
        <pt x="420" y="779" on="0"/>
        <pt x="368" y="729" on="0"/>
        <pt x="285" y="729" on="0"/>
        <pt x="234" y="777" on="0"/>
        <pt x="234" y="857" on="0"/>
        <pt x="287" y="908" on="0"/>
        <pt x="372" y="908" on="0"/>
        <pt x="422" y="859" on="0"/>
      </contour>
      <contour>
        <pt x="348" y="861" on="0"/>
        <pt x="308" y="861" on="0"/>
        <pt x="284" y="838" on="0"/>
        <pt x="284" y="798" on="0"/>
        <pt x="308" y="774" on="0"/>
        <pt x="348" y="774" on="0"/>
        <pt x="372" y="798" on="0"/>
        <pt x="372" y="838" on="0"/>
      </contour>
    </TTGlyph>
    <TTGlyph name="Atilde" xMin="12" yMin="0" xMax="627" yMax="881">
      <contour>
        <pt x="589" y="0" on="1"/>
        <pt x="371" y="0" on="1"/>
        <pt x="371" y="8" on="1"/>
        <pt x="371" y="55" on="0"/>
        <pt x="410" y="59" on="1"/>
        <pt x="445" y="61" on="1"/>
        <pt x="401" y="221" on="1"/>
        <pt x="209" y="221" on="1"/>
        <pt x="163" y="63" on="1"/>
        <pt x="242" y="57" on="1"/>
        <pt x="248" y="0" on="0"/>
        <pt x="203" y="0" on="1"/>
        <pt x="12" y="0" on="1"/>
        <pt x="12" y="8" on="1"/>
        <pt x="12" y="55" on="0"/>
        <pt x="51" y="59" on="1"/>
        <pt x="90" y="61" on="1"/>
        <pt x="282" y="682" on="1"/>
        <pt x="320" y="686" on="0"/>
        <pt x="369" y="682" on="1"/>
        <pt x="559" y="63" on="1"/>
        <pt x="627" y="57" on="1"/>
        <pt x="633" y="0" on="0"/>
      </contour>
      <contour>
        <pt x="226" y="281" on="1"/>
        <pt x="384" y="281" on="1"/>
        <pt x="307" y="557" on="1"/>
      </contour>
      <contour>
        <pt x="387" y="746" on="1"/>
        <pt x="350" y="746" on="0"/>
        <pt x="264" y="798" on="0"/>
        <pt x="225" y="798" on="0"/>
        <pt x="195" y="772" on="0"/>
        <pt x="189" y="752" on="1"/>
        <pt x="156" y="764" on="1"/>
        <pt x="165" y="818" on="0"/>
        <pt x="221" y="881" on="0"/>
        <pt x="292" y="881" on="0"/>
        <pt x="375" y="824" on="0"/>
        <pt x="426" y="824" on="0"/>
        <pt x="459" y="852" on="0"/>
        <pt x="465" y="875" on="1"/>
        <pt x="497" y="866" on="1"/>
        <pt x="479" y="746" on="0"/>
      </contour>
    </TTGlyph>
    <TTGlyph name="B" xMin="42" yMin="0" xMax="549" yMax="683">
      <contour>
        <pt x="77" y="683" on="1"/>
        <pt x="297" y="683" on="1"/>
        <pt x="410" y="683" on="0"/>
        <pt x="518" y="589" on="0"/>
        <pt x="518" y="521" on="1"/>
        <pt x="518" y="404" on="0"/>
        <pt x="399" y="360" on="1"/>
        <pt x="465" y="350" on="0"/>
        <pt x="549" y="271" on="0"/>
        <pt x="549" y="205" on="1"/>
        <pt x="550" y="109" on="0"/>
        <pt x="420" y="0" on="0"/>
        <pt x="302" y="0" on="1"/>
        <pt x="42" y="0" on="1"/>
        <pt x="43" y="28" on="0"/>
        <pt x="58" y="57" on="0"/>
        <pt x="78" y="58" on="1"/>
        <pt x="116" y="62" on="1"/>
        <pt x="116" y="620" on="1"/>
        <pt x="43" y="626" on="1"/>
        <pt x="40" y="649" on="0"/>
        <pt x="62" y="683" on="0"/>
      </contour>
      <contour>
        <pt x="221" y="379" on="1"/>
        <pt x="250" y="379" on="1"/>
        <pt x="334" y="379" on="0"/>
        <pt x="409" y="445" on="0"/>
        <pt x="409" y="574" on="0"/>
        <pt x="331" y="632" on="0"/>
        <pt x="265" y="627" on="1"/>
        <pt x="221" y="625" on="1"/>
      </contour>
      <contour>
        <pt x="441" y="193" on="1"/>
        <pt x="441" y="264" on="0"/>
        <pt x="353" y="326" on="0"/>
        <pt x="262" y="325" on="1"/>
        <pt x="221" y="324" on="1"/>
        <pt x="221" y="63" on="1"/>
        <pt x="277" y="62" on="1"/>
        <pt x="441" y="61" on="0"/>
      </contour>
    </TTGlyph>
    <TTGlyph name="C" xMin="36" yMin="-15" xMax="557" yMax="697">
      <contour>
        <pt x="357" y="697" on="1"/>
        <pt x="442" y="697" on="0"/>
        <pt x="550" y="621" on="0"/>
        <pt x="550" y="567" on="1"/>
        <pt x="550" y="531" on="0"/>
        <pt x="505" y="493" on="0"/>
        <pt x="465" y="493" on="1"/>
        <pt x="465" y="556" on="0"/>
        <pt x="404" y="623" on="0"/>
        <pt x="346" y="623" on="1"/>
        <pt x="250" y="623" on="0"/>
        <pt x="146" y="468" on="0"/>
        <pt x="146" y="207" on="0"/>
        <pt x="247" y="64" on="0"/>
        <pt x="466" y="64" on="0"/>
        <pt x="542" y="125" on="1"/>
        <pt x="557" y="115" on="0"/>
        <pt x="557" y="96" on="1"/>
        <pt x="557" y="59" on="0"/>
        <pt x="422" y="-15" on="0"/>
        <pt x="330" y="-15" on="1"/>
        <pt x="187" y="-15" on="0"/>
        <pt x="38" y="166" on="0"/>
        <pt x="35" y="493" on="0"/>
        <pt x="202" y="697" on="0"/>
      </contour>
    </TTGlyph>
    <TTGlyph name="Cacute" xMin="36" yMin="-15" xMax="557" yMax="901">
      <contour>
        <pt x="500" y="840" on="1"/>
        <pt x="296" y="731" on="1"/>
        <pt x="270" y="744" on="0"/>
        <pt x="259" y="768" on="1"/>
        <pt x="425" y="901" on="1"/>
        <pt x="446" y="898" on="0"/>
        <pt x="491" y="858" on="0"/>
      </contour>
      <contour>
        <pt x="357" y="697" on="1"/>
        <pt x="442" y="697" on="0"/>
        <pt x="550" y="621" on="0"/>
        <pt x="550" y="567" on="1"/>
        <pt x="550" y="531" on="0"/>
        <pt x="505" y="493" on="0"/>
        <pt x="465" y="493" on="1"/>
        <pt x="465" y="556" on="0"/>
        <pt x="404" y="623" on="0"/>
        <pt x="346" y="623" on="1"/>
        <pt x="250" y="623" on="0"/>
        <pt x="146" y="468" on="0"/>
        <pt x="146" y="207" on="0"/>
        <pt x="247" y="64" on="0"/>
        <pt x="466" y="64" on="0"/>
        <pt x="542" y="125" on="1"/>
        <pt x="557" y="115" on="0"/>
        <pt x="557" y="96" on="1"/>
        <pt x="557" y="59" on="0"/>
        <pt x="422" y="-15" on="0"/>
        <pt x="330" y="-15" on="1"/>
        <pt x="187" y="-15" on="0"/>
        <pt x="38" y="166" on="0"/>
        <pt x="35" y="493" on="0"/>
        <pt x="202" y="697" on="0"/>
      </contour>
    </TTGlyph>
    <TTGlyph name="Ccaron" xMin="36" yMin="-15" xMax="557" yMax="897">
      <contour>
        <pt x="557" y="96" on="1"/>
        <pt x="557" y="59" on="0"/>
        <pt x="422" y="-15" on="0"/>
        <pt x="330" y="-15" on="1"/>
        <pt x="187" y="-15" on="0"/>
        <pt x="38" y="166" on="0"/>
        <pt x="35" y="493" on="0"/>
        <pt x="202" y="697" on="0"/>
        <pt x="357" y="697" on="1"/>
        <pt x="442" y="697" on="0"/>
        <pt x="550" y="621" on="0"/>
        <pt x="550" y="567" on="1"/>
        <pt x="550" y="531" on="0"/>
        <pt x="505" y="493" on="0"/>
        <pt x="465" y="493" on="1"/>
        <pt x="465" y="556" on="0"/>
        <pt x="404" y="623" on="0"/>
        <pt x="346" y="623" on="1"/>
        <pt x="250" y="623" on="0"/>
        <pt x="146" y="468" on="0"/>
        <pt x="146" y="207" on="0"/>
        <pt x="247" y="64" on="0"/>
        <pt x="466" y="64" on="0"/>
        <pt x="542" y="125" on="1"/>
        <pt x="557" y="115" on="0"/>
      </contour>
      <contour>
        <pt x="509" y="863" on="1"/>
        <pt x="375" y="739" on="1"/>
        <pt x="344" y="731" on="0"/>
        <pt x="305" y="739" on="1"/>
        <pt x="169" y="863" on="1"/>
        <pt x="180" y="885" on="0"/>
        <pt x="201" y="897" on="1"/>
        <pt x="338" y="811" on="1"/>
        <pt x="475" y="897" on="1"/>
        <pt x="494" y="887" on="0"/>
      </contour>
    </TTGlyph>
    <TTGlyph name="Ccedilla" xMin="36" yMin="-200" xMax="557" yMax="697">
      <contour>
        <pt x="357" y="697" on="1"/>
        <pt x="442" y="697" on="0"/>
        <pt x="550" y="621" on="0"/>
        <pt x="550" y="567" on="1"/>
        <pt x="550" y="531" on="0"/>
        <pt x="505" y="493" on="0"/>
        <pt x="465" y="493" on="1"/>
        <pt x="465" y="556" on="0"/>
        <pt x="404" y="623" on="0"/>
        <pt x="346" y="623" on="1"/>
        <pt x="250" y="623" on="0"/>
        <pt x="146" y="468" on="0"/>
        <pt x="146" y="207" on="0"/>
        <pt x="247" y="64" on="0"/>
        <pt x="466" y="64" on="0"/>
        <pt x="542" y="125" on="1"/>
        <pt x="557" y="115" on="0"/>
        <pt x="557" y="96" on="1"/>
        <pt x="557" y="62" on="0"/>
        <pt x="439" y="-8" on="0"/>
        <pt x="355" y="-14" on="1"/>
        <pt x="348" y="-45" on="1"/>
        <pt x="390" y="-45" on="0"/>
        <pt x="431" y="-86" on="0"/>
        <pt x="431" y="-153" on="0"/>
        <pt x="377" y="-200" on="0"/>
        <pt x="285" y="-200" on="0"/>
        <pt x="259" y="-172" on="1"/>
        <pt x="258" y="-161" on="0"/>
        <pt x="266" y="-137" on="0"/>
        <pt x="271" y="-134" on="1"/>
        <pt x="290" y="-150" on="0"/>
        <pt x="359" y="-150" on="0"/>
        <pt x="359" y="-118" on="1"/>
        <pt x="359" y="-101" on="0"/>
        <pt x="330" y="-83" on="0"/>
        <pt x="288" y="-83" on="1"/>
        <pt x="306" y="-14" on="1"/>
        <pt x="175" y="-7" on="0"/>
        <pt x="38" y="174" on="0"/>
        <pt x="35" y="493" on="0"/>
        <pt x="202" y="697" on="0"/>
      </contour>
    </TTGlyph>
    <TTGlyph name="Ccircumflex" xMin="36" yMin="-15" xMax="557" yMax="880">
      <contour>
        <pt x="557" y="96" on="1"/>
        <pt x="557" y="59" on="0"/>
        <pt x="422" y="-15" on="0"/>
        <pt x="330" y="-15" on="1"/>
        <pt x="187" y="-15" on="0"/>
        <pt x="38" y="166" on="0"/>
        <pt x="35" y="493" on="0"/>
        <pt x="202" y="697" on="0"/>
        <pt x="357" y="697" on="1"/>
        <pt x="442" y="697" on="0"/>
        <pt x="550" y="621" on="0"/>
        <pt x="550" y="567" on="1"/>
        <pt x="550" y="531" on="0"/>
        <pt x="505" y="493" on="0"/>
        <pt x="465" y="493" on="1"/>
        <pt x="465" y="556" on="0"/>
        <pt x="404" y="623" on="0"/>
        <pt x="346" y="623" on="1"/>
        <pt x="250" y="623" on="0"/>
        <pt x="146" y="468" on="0"/>
        <pt x="146" y="207" on="0"/>
        <pt x="247" y="64" on="0"/>
        <pt x="466" y="64" on="0"/>
        <pt x="542" y="125" on="1"/>
        <pt x="557" y="115" on="0"/>
      </contour>
      <contour>
        <pt x="340" y="809" on="1"/>
        <pt x="202" y="722" on="1"/>
        <pt x="183" y="734" on="0"/>
        <pt x="170" y="756" on="1"/>
        <pt x="306" y="880" on="1"/>
        <pt x="342" y="889" on="0"/>
        <pt x="377" y="880" on="1"/>
        <pt x="510" y="756" on="1"/>
        <pt x="496" y="733" on="0"/>
        <pt x="477" y="722" on="1"/>
      </contour>
    </TTGlyph>
    <TTGlyph name="Cdotaccent" xMin="36" yMin="-15" xMax="557" yMax="891">
      <contour>
        <pt x="357" y="697" on="1"/>
        <pt x="442" y="697" on="0"/>
        <pt x="550" y="621" on="0"/>
        <pt x="550" y="567" on="1"/>
        <pt x="550" y="531" on="0"/>
        <pt x="505" y="493" on="0"/>
        <pt x="465" y="493" on="1"/>
        <pt x="465" y="556" on="0"/>
        <pt x="404" y="623" on="0"/>
        <pt x="346" y="623" on="1"/>
        <pt x="250" y="623" on="0"/>
        <pt x="146" y="468" on="0"/>
        <pt x="146" y="207" on="0"/>
        <pt x="247" y="64" on="0"/>
        <pt x="466" y="64" on="0"/>
        <pt x="542" y="125" on="1"/>
        <pt x="557" y="115" on="0"/>
        <pt x="557" y="96" on="1"/>
        <pt x="557" y="59" on="0"/>
        <pt x="422" y="-15" on="0"/>
        <pt x="330" y="-15" on="1"/>
        <pt x="187" y="-15" on="0"/>
        <pt x="38" y="166" on="0"/>
        <pt x="35" y="493" on="0"/>
        <pt x="202" y="697" on="0"/>
      </contour>
      <contour>
        <pt x="408" y="798" on="0"/>
        <pt x="371" y="761" on="0"/>
        <pt x="316" y="761" on="0"/>
        <pt x="279" y="798" on="0"/>
        <pt x="279" y="854" on="0"/>
        <pt x="316" y="891" on="0"/>
        <pt x="371" y="891" on="0"/>
        <pt x="408" y="854" on="0"/>
      </contour>
    </TTGlyph>
    <TTGlyph name="D" xMin="41" yMin="0" xMax="658" yMax="683">
      <contour>
        <pt x="86" y="683" on="1"/>
        <pt x="311" y="683" on="1"/>
        <pt x="487" y="683" on="0"/>
        <pt x="658" y="517" on="0"/>
        <pt x="658" y="177" on="0"/>
        <pt x="479" y="0" on="0"/>
        <pt x="314" y="0" on="1"/>
        <pt x="41" y="0" on="1"/>
        <pt x="39" y="56" on="0"/>
        <pt x="74" y="58" on="1"/>
        <pt x="114" y="62" on="1"/>
        <pt x="114" y="619" on="1"/>
        <pt x="43" y="625" on="1"/>
        <pt x="42" y="654" on="0"/>
        <pt x="60" y="683" on="0"/>
      </contour>
      <contour>
        <pt x="421" y="55" on="0"/>
        <pt x="548" y="190" on="0"/>
        <pt x="548" y="495" on="0"/>
        <pt x="417" y="627" on="0"/>
        <pt x="274" y="622" on="1"/>
        <pt x="220" y="620" on="1"/>
        <pt x="219" y="620" on="1"/>
        <pt x="219" y="64" on="1"/>
        <pt x="287" y="61" on="1"/>
      </contour>
    </TTGlyph>
    <TTGlyph name="Dcaron" xMin="41" yMin="0" xMax="658" yMax="898">
      <contour>
        <pt x="86" y="683" on="1"/>
        <pt x="311" y="683" on="1"/>
        <pt x="487" y="683" on="0"/>
        <pt x="658" y="517" on="0"/>
        <pt x="658" y="177" on="0"/>
        <pt x="479" y="0" on="0"/>
        <pt x="314" y="0" on="1"/>
        <pt x="41" y="0" on="1"/>
        <pt x="39" y="56" on="0"/>
        <pt x="74" y="58" on="1"/>
        <pt x="114" y="62" on="1"/>
        <pt x="114" y="619" on="1"/>
        <pt x="43" y="625" on="1"/>
        <pt x="42" y="654" on="0"/>
        <pt x="60" y="683" on="0"/>
      </contour>
      <contour>
        <pt x="421" y="55" on="0"/>
        <pt x="548" y="190" on="0"/>
        <pt x="548" y="495" on="0"/>
        <pt x="417" y="627" on="0"/>
        <pt x="274" y="622" on="1"/>
        <pt x="220" y="620" on="1"/>
        <pt x="219" y="620" on="1"/>
        <pt x="219" y="64" on="1"/>
        <pt x="287" y="61" on="1"/>
      </contour>
      <contour>
        <pt x="478" y="863" on="1"/>
        <pt x="344" y="740" on="1"/>
        <pt x="310" y="731" on="0"/>
        <pt x="273" y="740" on="1"/>
        <pt x="137" y="863" on="1"/>
        <pt x="149" y="886" on="0"/>
        <pt x="169" y="898" on="1"/>
        <pt x="307" y="811" on="1"/>
        <pt x="444" y="898" on="1"/>
        <pt x="459" y="890" on="0"/>
      </contour>
    </TTGlyph>
    <TTGlyph name="Dcroat" xMin="41" yMin="0" xMax="658" yMax="683">
      <contour>
        <pt x="86" y="683" on="1"/>
        <pt x="311" y="683" on="1"/>
        <pt x="487" y="683" on="0"/>
        <pt x="658" y="517" on="0"/>
        <pt x="658" y="177" on="0"/>
        <pt x="479" y="0" on="0"/>
        <pt x="314" y="0" on="1"/>
        <pt x="41" y="0" on="1"/>
        <pt x="39" y="56" on="0"/>
        <pt x="74" y="58" on="1"/>
        <pt x="114" y="62" on="1"/>
        <pt x="114" y="306" on="1"/>
        <pt x="59" y="306" on="1"/>
        <pt x="59" y="368" on="1"/>
        <pt x="114" y="368" on="1"/>
        <pt x="114" y="619" on="1"/>
        <pt x="43" y="625" on="1"/>
        <pt x="42" y="654" on="0"/>
        <pt x="60" y="683" on="0"/>
      </contour>
      <contour>
        <pt x="421" y="55" on="0"/>
        <pt x="548" y="190" on="0"/>
        <pt x="548" y="495" on="0"/>
        <pt x="417" y="627" on="0"/>
        <pt x="274" y="622" on="1"/>
        <pt x="220" y="620" on="1"/>
        <pt x="219" y="620" on="1"/>
        <pt x="219" y="368" on="1"/>
        <pt x="375" y="368" on="1"/>
        <pt x="375" y="306" on="1"/>
        <pt x="219" y="306" on="1"/>
        <pt x="219" y="64" on="1"/>
        <pt x="287" y="61" on="1"/>
      </contour>
    </TTGlyph>
    <TTGlyph name="E" xMin="41" yMin="0" xMax="530" yMax="682">
      <contour>
        <pt x="41" y="0" on="1"/>
        <pt x="41" y="12" on="1"/>
        <pt x="41" y="34" on="0"/>
        <pt x="53" y="48" on="0"/>
        <pt x="57" y="52" on="1"/>
        <pt x="66" y="59" on="0"/>
        <pt x="80" y="59" on="1"/>
        <pt x="115" y="61" on="1"/>
        <pt x="115" y="619" on="1"/>
        <pt x="43" y="625" on="1"/>
        <pt x="37" y="682" on="0"/>
        <pt x="82" y="682" on="1"/>
        <pt x="514" y="682" on="1"/>
        <pt x="514" y="535" on="1"/>
        <pt x="514" y="494" on="0"/>
        <pt x="457" y="500" on="1"/>
        <pt x="448" y="617" on="1"/>
        <pt x="220" y="620" on="1"/>
        <pt x="220" y="365" on="1"/>
        <pt x="404" y="383" on="1"/>
        <pt x="414" y="343" on="0"/>
        <pt x="405" y="294" on="1"/>
        <pt x="220" y="305" on="1"/>
        <pt x="220" y="63" on="1"/>
        <pt x="465" y="71" on="1"/>
        <pt x="474" y="187" on="1"/>
        <pt x="530" y="193" on="0"/>
        <pt x="530" y="153" on="1"/>
        <pt x="530" y="0" on="1"/>
      </contour>
    </TTGlyph>
    <TTGlyph name="Eacute" xMin="41" yMin="0" xMax="530" yMax="901">
      <contour>
        <pt x="475" y="840" on="1"/>
        <pt x="271" y="731" on="1"/>
        <pt x="245" y="744" on="0"/>
        <pt x="234" y="768" on="1"/>
        <pt x="400" y="901" on="1"/>
        <pt x="421" y="898" on="0"/>
        <pt x="466" y="858" on="0"/>
      </contour>
      <contour>
        <pt x="41" y="0" on="1"/>
        <pt x="41" y="12" on="1"/>
        <pt x="41" y="34" on="0"/>
        <pt x="53" y="48" on="0"/>
        <pt x="57" y="52" on="1"/>
        <pt x="66" y="59" on="0"/>
        <pt x="80" y="59" on="1"/>
        <pt x="115" y="61" on="1"/>
        <pt x="115" y="619" on="1"/>
        <pt x="43" y="625" on="1"/>
        <pt x="37" y="682" on="0"/>
        <pt x="82" y="682" on="1"/>
        <pt x="514" y="682" on="1"/>
        <pt x="514" y="535" on="1"/>
        <pt x="514" y="494" on="0"/>
        <pt x="457" y="500" on="1"/>
        <pt x="448" y="617" on="1"/>
        <pt x="220" y="620" on="1"/>
        <pt x="220" y="365" on="1"/>
        <pt x="404" y="383" on="1"/>
        <pt x="414" y="343" on="0"/>
        <pt x="405" y="294" on="1"/>
        <pt x="220" y="305" on="1"/>
        <pt x="220" y="63" on="1"/>
        <pt x="465" y="71" on="1"/>
        <pt x="474" y="187" on="1"/>
        <pt x="530" y="193" on="0"/>
        <pt x="530" y="153" on="1"/>
        <pt x="530" y="0" on="1"/>
      </contour>
    </TTGlyph>
    <TTGlyph name="Ebreve" xMin="41" yMin="0" xMax="530" yMax="896">
      <contour>
        <pt x="41" y="0" on="1"/>
        <pt x="41" y="12" on="1"/>
        <pt x="41" y="34" on="0"/>
        <pt x="53" y="48" on="0"/>
        <pt x="57" y="52" on="1"/>
        <pt x="66" y="59" on="0"/>
        <pt x="80" y="59" on="1"/>
        <pt x="115" y="61" on="1"/>
        <pt x="115" y="619" on="1"/>
        <pt x="43" y="625" on="1"/>
        <pt x="37" y="682" on="0"/>
        <pt x="82" y="682" on="1"/>
        <pt x="514" y="682" on="1"/>
        <pt x="514" y="535" on="1"/>
        <pt x="514" y="494" on="0"/>
        <pt x="457" y="500" on="1"/>
        <pt x="448" y="617" on="1"/>
        <pt x="220" y="620" on="1"/>
        <pt x="220" y="365" on="1"/>
        <pt x="404" y="383" on="1"/>
        <pt x="414" y="343" on="0"/>
        <pt x="405" y="294" on="1"/>
        <pt x="220" y="305" on="1"/>
        <pt x="220" y="63" on="1"/>
        <pt x="465" y="71" on="1"/>
        <pt x="474" y="187" on="1"/>
        <pt x="530" y="193" on="0"/>
        <pt x="530" y="153" on="1"/>
        <pt x="530" y="0" on="1"/>
      </contour>
      <contour>
        <pt x="317" y="815" on="1"/>
        <pt x="408" y="815" on="0"/>
        <pt x="442" y="895" on="1"/>
        <pt x="477" y="877" on="1"/>
        <pt x="469" y="821" on="0"/>
        <pt x="387" y="738" on="0"/>
        <pt x="245" y="738" on="0"/>
        <pt x="163" y="821" on="0"/>
        <pt x="155" y="877" on="1"/>
        <pt x="190" y="896" on="1"/>
        <pt x="203" y="866" on="0"/>
        <pt x="265" y="815" on="0"/>
      </contour>
    </TTGlyph>
    <TTGlyph name="Ecaron" xMin="41" yMin="0" xMax="530" yMax="897">
      <contour>
        <pt x="41" y="0" on="1"/>
        <pt x="41" y="12" on="1"/>
        <pt x="41" y="34" on="0"/>
        <pt x="53" y="48" on="0"/>
        <pt x="57" y="52" on="1"/>
        <pt x="66" y="59" on="0"/>
        <pt x="80" y="59" on="1"/>
        <pt x="115" y="61" on="1"/>
        <pt x="115" y="619" on="1"/>
        <pt x="43" y="625" on="1"/>
        <pt x="37" y="682" on="0"/>
        <pt x="82" y="682" on="1"/>
        <pt x="514" y="682" on="1"/>
        <pt x="514" y="535" on="1"/>
        <pt x="514" y="494" on="0"/>
        <pt x="457" y="500" on="1"/>
        <pt x="448" y="617" on="1"/>
        <pt x="220" y="620" on="1"/>
        <pt x="220" y="365" on="1"/>
        <pt x="404" y="383" on="1"/>
        <pt x="414" y="343" on="0"/>
        <pt x="405" y="294" on="1"/>
        <pt x="220" y="305" on="1"/>
        <pt x="220" y="63" on="1"/>
        <pt x="465" y="71" on="1"/>
        <pt x="474" y="187" on="1"/>
        <pt x="530" y="193" on="0"/>
        <pt x="530" y="153" on="1"/>
        <pt x="530" y="0" on="1"/>
      </contour>
      <contour>
        <pt x="484" y="863" on="1"/>
        <pt x="350" y="739" on="1"/>
        <pt x="318" y="731" on="0"/>
        <pt x="280" y="739" on="1"/>
        <pt x="143" y="863" on="1"/>
        <pt x="156" y="886" on="0"/>
        <pt x="176" y="897" on="1"/>
        <pt x="313" y="811" on="1"/>
        <pt x="450" y="897" on="1"/>
        <pt x="469" y="887" on="0"/>
      </contour>
    </TTGlyph>
    <TTGlyph name="Ecircumflex" xMin="41" yMin="0" xMax="530" yMax="880">
      <contour>
        <pt x="41" y="0" on="1"/>
        <pt x="41" y="12" on="1"/>
        <pt x="41" y="34" on="0"/>
        <pt x="53" y="48" on="0"/>
        <pt x="57" y="52" on="1"/>
        <pt x="66" y="59" on="0"/>
        <pt x="80" y="59" on="1"/>
        <pt x="115" y="61" on="1"/>
        <pt x="115" y="619" on="1"/>
        <pt x="43" y="625" on="1"/>
        <pt x="37" y="682" on="0"/>
        <pt x="82" y="682" on="1"/>
        <pt x="514" y="682" on="1"/>
        <pt x="514" y="535" on="1"/>
        <pt x="514" y="494" on="0"/>
        <pt x="457" y="500" on="1"/>
        <pt x="448" y="617" on="1"/>
        <pt x="220" y="620" on="1"/>
        <pt x="220" y="365" on="1"/>
        <pt x="404" y="383" on="1"/>
        <pt x="414" y="343" on="0"/>
        <pt x="405" y="294" on="1"/>
        <pt x="220" y="305" on="1"/>
        <pt x="220" y="63" on="1"/>
        <pt x="465" y="71" on="1"/>
        <pt x="474" y="187" on="1"/>
        <pt x="530" y="193" on="0"/>
        <pt x="530" y="153" on="1"/>
        <pt x="530" y="0" on="1"/>
      </contour>
      <contour>
        <pt x="315" y="809" on="1"/>
        <pt x="177" y="722" on="1"/>
        <pt x="158" y="734" on="0"/>
        <pt x="145" y="756" on="1"/>
        <pt x="281" y="880" on="1"/>
        <pt x="317" y="889" on="0"/>
        <pt x="352" y="880" on="1"/>
        <pt x="485" y="756" on="1"/>
        <pt x="471" y="733" on="0"/>
        <pt x="452" y="722" on="1"/>
      </contour>
    </TTGlyph>
    <TTGlyph name="Edieresis" xMin="41" yMin="0" xMax="530" yMax="879">
      <contour>
        <pt x="466" y="790" on="0"/>
        <pt x="429" y="753" on="0"/>
        <pt x="375" y="753" on="0"/>
        <pt x="339" y="790" on="0"/>
        <pt x="339" y="842" on="0"/>
        <pt x="376" y="879" on="0"/>
        <pt x="428" y="879" on="0"/>
        <pt x="466" y="842" on="0"/>
      </contour>
      <contour>
        <pt x="284" y="790" on="0"/>
        <pt x="248" y="753" on="0"/>
        <pt x="195" y="753" on="0"/>
        <pt x="158" y="790" on="0"/>
        <pt x="158" y="842" on="0"/>
        <pt x="195" y="879" on="0"/>
        <pt x="248" y="879" on="0"/>
        <pt x="284" y="842" on="0"/>
      </contour>
      <contour>
        <pt x="41" y="0" on="1"/>
        <pt x="41" y="12" on="1"/>
        <pt x="41" y="34" on="0"/>
        <pt x="53" y="48" on="0"/>
        <pt x="57" y="52" on="1"/>
        <pt x="66" y="59" on="0"/>
        <pt x="80" y="59" on="1"/>
        <pt x="115" y="61" on="1"/>
        <pt x="115" y="619" on="1"/>
        <pt x="43" y="625" on="1"/>
        <pt x="37" y="682" on="0"/>
        <pt x="82" y="682" on="1"/>
        <pt x="514" y="682" on="1"/>
        <pt x="514" y="535" on="1"/>
        <pt x="514" y="494" on="0"/>
        <pt x="457" y="500" on="1"/>
        <pt x="448" y="617" on="1"/>
        <pt x="220" y="620" on="1"/>
        <pt x="220" y="365" on="1"/>
        <pt x="404" y="383" on="1"/>
        <pt x="414" y="343" on="0"/>
        <pt x="405" y="294" on="1"/>
        <pt x="220" y="305" on="1"/>
        <pt x="220" y="63" on="1"/>
        <pt x="465" y="71" on="1"/>
        <pt x="474" y="187" on="1"/>
        <pt x="530" y="193" on="0"/>
        <pt x="530" y="153" on="1"/>
        <pt x="530" y="0" on="1"/>
      </contour>
    </TTGlyph>
    <TTGlyph name="Edotaccent" xMin="41" yMin="0" xMax="530" yMax="891">
      <contour>
        <pt x="347" y="761" on="0"/>
        <pt x="291" y="761" on="0"/>
        <pt x="254" y="798" on="0"/>
        <pt x="254" y="854" on="0"/>
        <pt x="291" y="891" on="0"/>
        <pt x="347" y="891" on="0"/>
        <pt x="383" y="854" on="0"/>
        <pt x="383" y="798" on="0"/>
      </contour>
      <contour>
        <pt x="41" y="0" on="1"/>
        <pt x="41" y="12" on="1"/>
        <pt x="41" y="34" on="0"/>
        <pt x="53" y="48" on="0"/>
        <pt x="57" y="52" on="1"/>
        <pt x="66" y="59" on="0"/>
        <pt x="80" y="59" on="1"/>
        <pt x="115" y="61" on="1"/>
        <pt x="115" y="619" on="1"/>
        <pt x="43" y="625" on="1"/>
        <pt x="37" y="682" on="0"/>
        <pt x="82" y="682" on="1"/>
        <pt x="514" y="682" on="1"/>
        <pt x="514" y="535" on="1"/>
        <pt x="514" y="494" on="0"/>
        <pt x="457" y="500" on="1"/>
        <pt x="448" y="617" on="1"/>
        <pt x="220" y="620" on="1"/>
        <pt x="220" y="365" on="1"/>
        <pt x="404" y="383" on="1"/>
        <pt x="414" y="343" on="0"/>
        <pt x="405" y="294" on="1"/>
        <pt x="220" y="305" on="1"/>
        <pt x="220" y="63" on="1"/>
        <pt x="465" y="71" on="1"/>
        <pt x="474" y="187" on="1"/>
        <pt x="530" y="193" on="0"/>
        <pt x="530" y="153" on="1"/>
        <pt x="530" y="0" on="1"/>
      </contour>
    </TTGlyph>
    <TTGlyph name="Egrave" xMin="41" yMin="0" xMax="530" yMax="898">
      <contour>
        <pt x="374" y="728" on="1"/>
        <pt x="171" y="837" on="1"/>
        <pt x="179" y="855" on="0"/>
        <pt x="224" y="895" on="0"/>
        <pt x="245" y="898" on="1"/>
        <pt x="412" y="765" on="1"/>
        <pt x="401" y="741" on="0"/>
      </contour>
      <contour>
        <pt x="41" y="0" on="1"/>
        <pt x="41" y="12" on="1"/>
        <pt x="41" y="34" on="0"/>
        <pt x="53" y="48" on="0"/>
        <pt x="57" y="52" on="1"/>
        <pt x="66" y="59" on="0"/>
        <pt x="80" y="59" on="1"/>
        <pt x="115" y="61" on="1"/>
        <pt x="115" y="619" on="1"/>
        <pt x="43" y="625" on="1"/>
        <pt x="37" y="682" on="0"/>
        <pt x="82" y="682" on="1"/>
        <pt x="514" y="682" on="1"/>
        <pt x="514" y="535" on="1"/>
        <pt x="514" y="494" on="0"/>
        <pt x="457" y="500" on="1"/>
        <pt x="448" y="617" on="1"/>
        <pt x="220" y="620" on="1"/>
        <pt x="220" y="365" on="1"/>
        <pt x="404" y="383" on="1"/>
        <pt x="414" y="343" on="0"/>
        <pt x="405" y="294" on="1"/>
        <pt x="220" y="305" on="1"/>
        <pt x="220" y="63" on="1"/>
        <pt x="465" y="71" on="1"/>
        <pt x="474" y="187" on="1"/>
        <pt x="530" y="193" on="0"/>
        <pt x="530" y="153" on="1"/>
        <pt x="530" y="0" on="1"/>
      </contour>
    </TTGlyph>
    <TTGlyph name="Emacron" xMin="41" yMin="0" xMax="530" yMax="826">
      <contour>
        <pt x="173" y="826" on="1"/>
        <pt x="456" y="826" on="1"/>
        <pt x="456" y="761" on="1"/>
        <pt x="173" y="761" on="1"/>
      </contour>
      <contour>
        <pt x="41" y="0" on="1"/>
        <pt x="41" y="12" on="1"/>
        <pt x="41" y="34" on="0"/>
        <pt x="53" y="48" on="0"/>
        <pt x="57" y="52" on="1"/>
        <pt x="66" y="59" on="0"/>
        <pt x="80" y="59" on="1"/>
        <pt x="115" y="61" on="1"/>
        <pt x="115" y="619" on="1"/>
        <pt x="43" y="625" on="1"/>
        <pt x="37" y="682" on="0"/>
        <pt x="82" y="682" on="1"/>
        <pt x="514" y="682" on="1"/>
        <pt x="514" y="535" on="1"/>
        <pt x="514" y="494" on="0"/>
        <pt x="457" y="500" on="1"/>
        <pt x="448" y="617" on="1"/>
        <pt x="220" y="620" on="1"/>
        <pt x="220" y="365" on="1"/>
        <pt x="404" y="383" on="1"/>
        <pt x="414" y="343" on="0"/>
        <pt x="405" y="294" on="1"/>
        <pt x="220" y="305" on="1"/>
        <pt x="220" y="63" on="1"/>
        <pt x="465" y="71" on="1"/>
        <pt x="474" y="187" on="1"/>
        <pt x="530" y="193" on="0"/>
        <pt x="530" y="153" on="1"/>
        <pt x="530" y="0" on="1"/>
      </contour>
    </TTGlyph>
    <TTGlyph name="Eng" xMin="41" yMin="-184" xMax="673" yMax="682">
      <contour>
        <pt x="496" y="682" on="1"/>
        <pt x="673" y="682" on="1"/>
        <pt x="673" y="682" on="0"/>
        <pt x="673" y="674" on="1"/>
        <pt x="673" y="627" on="0"/>
        <pt x="634" y="623" on="1"/>
        <pt x="598" y="621" on="1"/>
        <pt x="598" y="31" on="1"/>
        <pt x="598" y="-61" on="0"/>
        <pt x="505" y="-184" on="0"/>
        <pt x="425" y="-184" on="1"/>
        <pt x="383" y="-184" on="0"/>
        <pt x="328" y="-140" on="0"/>
        <pt x="328" y="-109" on="1"/>
        <pt x="328" y="-43" on="0"/>
        <pt x="400" y="-43" on="1"/>
        <pt x="400" y="-111" on="0"/>
        <pt x="449" y="-111" on="1"/>
        <pt x="487" y="-111" on="0"/>
        <pt x="524" y="-44" on="0"/>
        <pt x="524" y="8" on="1"/>
        <pt x="184" y="522" on="1"/>
        <pt x="184" y="63" on="1"/>
        <pt x="257" y="57" on="1"/>
        <pt x="263" y="0" on="0"/>
        <pt x="218" y="0" on="1"/>
        <pt x="41" y="0" on="1"/>
        <pt x="41" y="8" on="1"/>
        <pt x="41" y="55" on="0"/>
        <pt x="80" y="59" on="1"/>
        <pt x="115" y="61" on="1"/>
        <pt x="115" y="619" on="1"/>
        <pt x="43" y="625" on="1"/>
        <pt x="37" y="682" on="0"/>
        <pt x="81" y="682" on="1"/>
        <pt x="202" y="682" on="1"/>
        <pt x="529" y="187" on="1"/>
        <pt x="529" y="619" on="1"/>
        <pt x="457" y="625" on="1"/>
        <pt x="451" y="682" on="0"/>
      </contour>
    </TTGlyph>
    <TTGlyph name="Eogonek" xMin="41" yMin="-177" xMax="566" yMax="682">
      <contour>
        <pt x="41" y="0" on="1"/>
        <pt x="41" y="12" on="1"/>
        <pt x="41" y="34" on="0"/>
        <pt x="53" y="48" on="0"/>
        <pt x="57" y="52" on="1"/>
        <pt x="66" y="59" on="0"/>
        <pt x="80" y="59" on="1"/>
        <pt x="115" y="61" on="1"/>
        <pt x="115" y="619" on="1"/>
        <pt x="43" y="625" on="1"/>
        <pt x="37" y="682" on="0"/>
        <pt x="82" y="682" on="1"/>
        <pt x="514" y="682" on="1"/>
        <pt x="514" y="535" on="1"/>
        <pt x="514" y="494" on="0"/>
        <pt x="457" y="500" on="1"/>
        <pt x="448" y="617" on="1"/>
        <pt x="220" y="620" on="1"/>
        <pt x="220" y="365" on="1"/>
        <pt x="404" y="383" on="1"/>
        <pt x="414" y="343" on="0"/>
        <pt x="405" y="294" on="1"/>
        <pt x="220" y="305" on="1"/>
        <pt x="220" y="63" on="1"/>
        <pt x="465" y="71" on="1"/>
        <pt x="474" y="187" on="1"/>
        <pt x="530" y="193" on="0"/>
        <pt x="530" y="153" on="1"/>
        <pt x="530" y="0" on="1"/>
        <pt x="512" y="0" on="1"/>
        <pt x="461" y="-27" on="0"/>
        <pt x="461" y="-79" on="1"/>
        <pt x="461" y="-103" on="0"/>
        <pt x="485" y="-128" on="0"/>
        <pt x="532" y="-128" on="0"/>
        <pt x="559" y="-106" on="1"/>
        <pt x="563" y="-109" on="0"/>
        <pt x="568" y="-135" on="0"/>
        <pt x="566" y="-144" on="1"/>
        <pt x="543" y="-177" on="0"/>
        <pt x="441" y="-177" on="0"/>
        <pt x="391" y="-133" on="0"/>
        <pt x="391" y="-99" on="1"/>
        <pt x="391" y="-40" on="0"/>
        <pt x="447" y="0" on="1"/>
      </contour>
    </TTGlyph>
    <TTGlyph name="Eth" xMin="41" yMin="0" xMax="658" yMax="683">
      <contour>
        <pt x="86" y="683" on="1"/>
        <pt x="311" y="683" on="1"/>
        <pt x="487" y="683" on="0"/>
        <pt x="658" y="517" on="0"/>
        <pt x="658" y="177" on="0"/>
        <pt x="479" y="0" on="0"/>
        <pt x="314" y="0" on="1"/>
        <pt x="41" y="0" on="1"/>
        <pt x="39" y="56" on="0"/>
        <pt x="74" y="58" on="1"/>
        <pt x="114" y="62" on="1"/>
        <pt x="114" y="306" on="1"/>
        <pt x="59" y="306" on="1"/>
        <pt x="59" y="368" on="1"/>
        <pt x="114" y="368" on="1"/>
        <pt x="114" y="619" on="1"/>
        <pt x="43" y="625" on="1"/>
        <pt x="42" y="654" on="0"/>
        <pt x="60" y="683" on="0"/>
      </contour>
      <contour>
        <pt x="421" y="55" on="0"/>
        <pt x="548" y="190" on="0"/>
        <pt x="548" y="495" on="0"/>
        <pt x="417" y="627" on="0"/>
        <pt x="274" y="622" on="1"/>
        <pt x="220" y="620" on="1"/>
        <pt x="219" y="620" on="1"/>
        <pt x="219" y="368" on="1"/>
        <pt x="375" y="368" on="1"/>
        <pt x="375" y="306" on="1"/>
        <pt x="219" y="306" on="1"/>
        <pt x="219" y="64" on="1"/>
        <pt x="287" y="61" on="1"/>
      </contour>
    </TTGlyph>
    <TTGlyph name="Euro" xMin="34" yMin="-16" xMax="509" yMax="627">
      <contour>
        <pt x="373" y="212" on="1"/>
        <pt x="196" y="212" on="1"/>
        <pt x="211" y="136" on="0"/>
        <pt x="291" y="53" on="0"/>
        <pt x="422" y="53" on="0"/>
        <pt x="493" y="109" on="1"/>
        <pt x="506" y="101" on="0"/>
        <pt x="506" y="82" on="1"/>
        <pt x="506" y="43" on="0"/>
        <pt x="399" y="-16" on="0"/>
        <pt x="329" y="-16" on="1"/>
        <pt x="233" y="-16" on="0"/>
        <pt x="113" y="106" on="0"/>
        <pt x="95" y="212" on="1"/>
        <pt x="34" y="212" on="1"/>
        <pt x="34" y="272" on="1"/>
        <pt x="89" y="272" on="1"/>
        <pt x="89" y="296" on="1"/>
        <pt x="89" y="314" on="0"/>
        <pt x="90" y="323" on="1"/>
        <pt x="34" y="323" on="1"/>
        <pt x="34" y="384" on="1"/>
        <pt x="96" y="384" on="1"/>
        <pt x="115" y="497" on="0"/>
        <pt x="247" y="627" on="0"/>
        <pt x="349" y="627" on="1"/>
        <pt x="421" y="627" on="0"/>
        <pt x="509" y="563" on="0"/>
        <pt x="509" y="514" on="1"/>
        <pt x="509" y="481" on="0"/>
        <pt x="467" y="445" on="0"/>
        <pt x="432" y="445" on="1"/>
        <pt x="432" y="497" on="0"/>
        <pt x="380" y="561" on="0"/>
        <pt x="281" y="561" on="0"/>
        <pt x="206" y="466" on="0"/>
        <pt x="194" y="384" on="1"/>
        <pt x="373" y="384" on="1"/>
        <pt x="373" y="323" on="1"/>
        <pt x="188" y="323" on="1"/>
        <pt x="188" y="306" on="1"/>
        <pt x="188" y="283" on="0"/>
        <pt x="189" y="272" on="1"/>
        <pt x="373" y="272" on="1"/>
      </contour>
    </TTGlyph>
    <TTGlyph name="F" xMin="41" yMin="0" xMax="507" yMax="682">
      <contour>
        <pt x="507" y="682" on="1"/>
        <pt x="507" y="538" on="1"/>
        <pt x="507" y="497" on="0"/>
        <pt x="450" y="503" on="1"/>
        <pt x="441" y="615" on="1"/>
        <pt x="221" y="620" on="1"/>
        <pt x="221" y="373" on="1"/>
        <pt x="404" y="391" on="1"/>
        <pt x="415" y="347" on="0"/>
        <pt x="405" y="302" on="1"/>
        <pt x="221" y="312" on="1"/>
        <pt x="221" y="63" on="1"/>
        <pt x="311" y="57" on="1"/>
        <pt x="317" y="0" on="0"/>
        <pt x="272" y="0" on="1"/>
        <pt x="41" y="0" on="1"/>
        <pt x="41" y="0" on="0"/>
        <pt x="41" y="8" on="1"/>
        <pt x="41" y="55" on="0"/>
        <pt x="80" y="59" on="1"/>
        <pt x="115" y="61" on="1"/>
        <pt x="115" y="619" on="1"/>
        <pt x="43" y="625" on="1"/>
        <pt x="37" y="682" on="0"/>
        <pt x="82" y="682" on="1"/>
      </contour>
    </TTGlyph>
    <TTGlyph name="G" xMin="36" yMin="-15" xMax="646" yMax="698">
      <contour>
        <pt x="397" y="312" on="1"/>
        <pt x="646" y="312" on="1"/>
        <pt x="646" y="312" on="0"/>
        <pt x="646" y="304" on="1"/>
        <pt x="646" y="257" on="0"/>
        <pt x="607" y="253" on="1"/>
        <pt x="580" y="251" on="1"/>
        <pt x="576" y="251" on="1"/>
        <pt x="576" y="84" on="1"/>
        <pt x="547" y="40" on="0"/>
        <pt x="409" y="-15" on="0"/>
        <pt x="327" y="-15" on="1"/>
        <pt x="187" y="-15" on="0"/>
        <pt x="38" y="165" on="0"/>
        <pt x="35" y="494" on="0"/>
        <pt x="203" y="698" on="0"/>
        <pt x="361" y="698" on="1"/>
        <pt x="471" y="698" on="0"/>
        <pt x="585" y="623" on="0"/>
        <pt x="585" y="568" on="1"/>
        <pt x="585" y="534" on="0"/>
        <pt x="540" y="493" on="0"/>
        <pt x="499" y="493" on="1"/>
        <pt x="499" y="566" on="0"/>
        <pt x="428" y="633" on="0"/>
        <pt x="349" y="633" on="1"/>
        <pt x="245" y="633" on="0"/>
        <pt x="146" y="478" on="0"/>
        <pt x="146" y="342" on="1"/>
        <pt x="146" y="61" on="0"/>
        <pt x="357" y="61" on="1"/>
        <pt x="445" y="61" on="0"/>
        <pt x="490" y="103" on="1"/>
        <pt x="490" y="249" on="1"/>
        <pt x="359" y="255" on="1"/>
        <pt x="353" y="312" on="0"/>
      </contour>
    </TTGlyph>
    <TTGlyph name="Gbreve" xMin="36" yMin="-15" xMax="646" yMax="896">
      <contour>
        <pt x="397" y="312" on="1"/>
        <pt x="646" y="312" on="1"/>
        <pt x="646" y="312" on="0"/>
        <pt x="646" y="304" on="1"/>
        <pt x="646" y="257" on="0"/>
        <pt x="607" y="253" on="1"/>
        <pt x="580" y="251" on="1"/>
        <pt x="576" y="251" on="1"/>
        <pt x="576" y="84" on="1"/>
        <pt x="547" y="40" on="0"/>
        <pt x="409" y="-15" on="0"/>
        <pt x="327" y="-15" on="1"/>
        <pt x="187" y="-15" on="0"/>
        <pt x="38" y="165" on="0"/>
        <pt x="35" y="494" on="0"/>
        <pt x="203" y="698" on="0"/>
        <pt x="361" y="698" on="1"/>
        <pt x="471" y="698" on="0"/>
        <pt x="585" y="623" on="0"/>
        <pt x="585" y="568" on="1"/>
        <pt x="585" y="534" on="0"/>
        <pt x="540" y="493" on="0"/>
        <pt x="499" y="493" on="1"/>
        <pt x="499" y="566" on="0"/>
        <pt x="428" y="633" on="0"/>
        <pt x="349" y="633" on="1"/>
        <pt x="245" y="633" on="0"/>
        <pt x="146" y="478" on="0"/>
        <pt x="146" y="342" on="1"/>
        <pt x="146" y="61" on="0"/>
        <pt x="357" y="61" on="1"/>
        <pt x="445" y="61" on="0"/>
        <pt x="490" y="103" on="1"/>
        <pt x="490" y="249" on="1"/>
        <pt x="359" y="255" on="1"/>
        <pt x="353" y="312" on="0"/>
      </contour>
      <contour>
        <pt x="419" y="738" on="0"/>
        <pt x="277" y="738" on="0"/>
        <pt x="195" y="821" on="0"/>
        <pt x="187" y="877" on="1"/>
        <pt x="222" y="896" on="1"/>
        <pt x="235" y="866" on="0"/>
        <pt x="297" y="815" on="0"/>
        <pt x="349" y="815" on="1"/>
        <pt x="440" y="815" on="0"/>
        <pt x="474" y="895" on="1"/>
        <pt x="509" y="877" on="1"/>
        <pt x="501" y="821" on="0"/>
      </contour>
    </TTGlyph>
    <TTGlyph name="Gcircumflex" xMin="36" yMin="-15" xMax="646" yMax="880">
      <contour>
        <pt x="397" y="312" on="1"/>
        <pt x="646" y="312" on="1"/>
        <pt x="646" y="312" on="0"/>
        <pt x="646" y="304" on="1"/>
        <pt x="646" y="257" on="0"/>
        <pt x="607" y="253" on="1"/>
        <pt x="580" y="251" on="1"/>
        <pt x="576" y="251" on="1"/>
        <pt x="576" y="84" on="1"/>
        <pt x="547" y="40" on="0"/>
        <pt x="409" y="-15" on="0"/>
        <pt x="327" y="-15" on="1"/>
        <pt x="187" y="-15" on="0"/>
        <pt x="38" y="165" on="0"/>
        <pt x="35" y="494" on="0"/>
        <pt x="203" y="698" on="0"/>
        <pt x="361" y="698" on="1"/>
        <pt x="471" y="698" on="0"/>
        <pt x="585" y="623" on="0"/>
        <pt x="585" y="568" on="1"/>
        <pt x="585" y="534" on="0"/>
        <pt x="540" y="493" on="0"/>
        <pt x="499" y="493" on="1"/>
        <pt x="499" y="566" on="0"/>
        <pt x="428" y="633" on="0"/>
        <pt x="349" y="633" on="1"/>
        <pt x="245" y="633" on="0"/>
        <pt x="146" y="478" on="0"/>
        <pt x="146" y="342" on="1"/>
        <pt x="146" y="61" on="0"/>
        <pt x="357" y="61" on="1"/>
        <pt x="445" y="61" on="0"/>
        <pt x="490" y="103" on="1"/>
        <pt x="490" y="249" on="1"/>
        <pt x="359" y="255" on="1"/>
        <pt x="353" y="312" on="0"/>
      </contour>
      <contour>
        <pt x="347" y="809" on="1"/>
        <pt x="209" y="722" on="1"/>
        <pt x="190" y="734" on="0"/>
        <pt x="177" y="756" on="1"/>
        <pt x="313" y="880" on="1"/>
        <pt x="349" y="889" on="0"/>
        <pt x="384" y="880" on="1"/>
        <pt x="517" y="756" on="1"/>
        <pt x="503" y="733" on="0"/>
        <pt x="484" y="722" on="1"/>
      </contour>
    </TTGlyph>
    <TTGlyph name="Gdotaccent" xMin="36" yMin="-15" xMax="646" yMax="891">
      <contour>
        <pt x="397" y="312" on="1"/>
        <pt x="646" y="312" on="1"/>
        <pt x="646" y="312" on="0"/>
        <pt x="646" y="304" on="1"/>
        <pt x="646" y="257" on="0"/>
        <pt x="607" y="253" on="1"/>
        <pt x="580" y="251" on="1"/>
        <pt x="576" y="251" on="1"/>
        <pt x="576" y="84" on="1"/>
        <pt x="547" y="40" on="0"/>
        <pt x="409" y="-15" on="0"/>
        <pt x="327" y="-15" on="1"/>
        <pt x="187" y="-15" on="0"/>
        <pt x="38" y="165" on="0"/>
        <pt x="35" y="494" on="0"/>
        <pt x="203" y="698" on="0"/>
        <pt x="361" y="698" on="1"/>
        <pt x="471" y="698" on="0"/>
        <pt x="585" y="623" on="0"/>
        <pt x="585" y="568" on="1"/>
        <pt x="585" y="534" on="0"/>
        <pt x="540" y="493" on="0"/>
        <pt x="499" y="493" on="1"/>
        <pt x="499" y="566" on="0"/>
        <pt x="428" y="633" on="0"/>
        <pt x="349" y="633" on="1"/>
        <pt x="245" y="633" on="0"/>
        <pt x="146" y="478" on="0"/>
        <pt x="146" y="342" on="1"/>
        <pt x="146" y="61" on="0"/>
        <pt x="357" y="61" on="1"/>
        <pt x="445" y="61" on="0"/>
        <pt x="490" y="103" on="1"/>
        <pt x="490" y="249" on="1"/>
        <pt x="359" y="255" on="1"/>
        <pt x="353" y="312" on="0"/>
      </contour>
      <contour>
        <pt x="415" y="798" on="0"/>
        <pt x="378" y="761" on="0"/>
        <pt x="323" y="761" on="0"/>
        <pt x="286" y="798" on="0"/>
        <pt x="286" y="854" on="0"/>
        <pt x="323" y="891" on="0"/>
        <pt x="378" y="891" on="0"/>
        <pt x="415" y="854" on="0"/>
      </contour>
    </TTGlyph>
    <TTGlyph name="H" xMin="41" yMin="0" xMax="705" yMax="682">
      <contour>
        <pt x="665" y="0" on="1"/>
        <pt x="451" y="0" on="1"/>
        <pt x="451" y="8" on="1"/>
        <pt x="451" y="32" on="0"/>
        <pt x="458" y="41" on="1"/>
        <pt x="471" y="57" on="0"/>
        <pt x="491" y="59" on="1"/>
        <pt x="526" y="61" on="1"/>
        <pt x="526" y="308" on="1"/>
        <pt x="220" y="308" on="1"/>
        <pt x="220" y="63" on="1"/>
        <pt x="293" y="57" on="1"/>
        <pt x="299" y="0" on="0"/>
        <pt x="254" y="0" on="1"/>
        <pt x="41" y="0" on="1"/>
        <pt x="41" y="8" on="1"/>
        <pt x="41" y="55" on="0"/>
        <pt x="80" y="59" on="1"/>
        <pt x="115" y="61" on="1"/>
        <pt x="115" y="619" on="1"/>
        <pt x="43" y="625" on="1"/>
        <pt x="37" y="682" on="0"/>
        <pt x="81" y="682" on="1"/>
        <pt x="295" y="682" on="1"/>
        <pt x="295" y="674" on="1"/>
        <pt x="295" y="627" on="0"/>
        <pt x="256" y="623" on="1"/>
        <pt x="220" y="621" on="1"/>
        <pt x="220" y="369" on="1"/>
        <pt x="526" y="369" on="1"/>
        <pt x="526" y="619" on="1"/>
        <pt x="454" y="625" on="1"/>
        <pt x="448" y="682" on="0"/>
        <pt x="492" y="682" on="1"/>
        <pt x="705" y="682" on="1"/>
        <pt x="705" y="674" on="1"/>
        <pt x="705" y="627" on="0"/>
        <pt x="666" y="623" on="1"/>
        <pt x="631" y="621" on="1"/>
        <pt x="631" y="63" on="1"/>
        <pt x="703" y="57" on="1"/>
        <pt x="709" y="0" on="0"/>
      </contour>
    </TTGlyph>
    <TTGlyph name="Hbar" xMin="41" yMin="0" xMax="705" yMax="682">
      <contour>
        <pt x="665" y="0" on="1"/>
        <pt x="451" y="0" on="1"/>
        <pt x="451" y="8" on="1"/>
        <pt x="451" y="32" on="0"/>
        <pt x="458" y="41" on="1"/>
        <pt x="471" y="57" on="0"/>
        <pt x="491" y="59" on="1"/>
        <pt x="526" y="61" on="1"/>
        <pt x="526" y="308" on="1"/>
        <pt x="220" y="308" on="1"/>
        <pt x="220" y="63" on="1"/>
        <pt x="293" y="57" on="1"/>
        <pt x="299" y="0" on="0"/>
        <pt x="254" y="0" on="1"/>
        <pt x="41" y="0" on="1"/>
        <pt x="41" y="8" on="1"/>
        <pt x="41" y="55" on="0"/>
        <pt x="80" y="59" on="1"/>
        <pt x="115" y="61" on="1"/>
        <pt x="115" y="455" on="1"/>
        <pt x="50" y="455" on="1"/>
        <pt x="50" y="517" on="1"/>
        <pt x="115" y="517" on="1"/>
        <pt x="115" y="619" on="1"/>
        <pt x="43" y="625" on="1"/>
        <pt x="37" y="682" on="0"/>
        <pt x="81" y="682" on="1"/>
        <pt x="295" y="682" on="1"/>
        <pt x="295" y="674" on="1"/>
        <pt x="295" y="627" on="0"/>
        <pt x="256" y="623" on="1"/>
        <pt x="220" y="621" on="1"/>
        <pt x="220" y="517" on="1"/>
        <pt x="526" y="517" on="1"/>
        <pt x="526" y="619" on="1"/>
        <pt x="454" y="625" on="1"/>
        <pt x="448" y="682" on="0"/>
        <pt x="492" y="682" on="1"/>
        <pt x="705" y="682" on="1"/>
        <pt x="705" y="674" on="1"/>
        <pt x="705" y="627" on="0"/>
        <pt x="666" y="623" on="1"/>
        <pt x="631" y="621" on="1"/>
        <pt x="631" y="517" on="1"/>
        <pt x="697" y="517" on="1"/>
        <pt x="697" y="455" on="1"/>
        <pt x="631" y="455" on="1"/>
        <pt x="631" y="63" on="1"/>
        <pt x="703" y="57" on="1"/>
        <pt x="709" y="0" on="0"/>
      </contour>
      <contour>
        <pt x="220" y="369" on="1"/>
        <pt x="526" y="369" on="1"/>
        <pt x="526" y="455" on="1"/>
        <pt x="220" y="455" on="1"/>
      </contour>
    </TTGlyph>
    <TTGlyph name="Hcircumflex" xMin="41" yMin="0" xMax="705" yMax="880">
      <contour>
        <pt x="665" y="0" on="1"/>
        <pt x="451" y="0" on="1"/>
        <pt x="451" y="8" on="1"/>
        <pt x="451" y="32" on="0"/>
        <pt x="458" y="41" on="1"/>
        <pt x="471" y="57" on="0"/>
        <pt x="491" y="59" on="1"/>
        <pt x="526" y="61" on="1"/>
        <pt x="526" y="308" on="1"/>
        <pt x="220" y="308" on="1"/>
        <pt x="220" y="63" on="1"/>
        <pt x="293" y="57" on="1"/>
        <pt x="299" y="0" on="0"/>
        <pt x="254" y="0" on="1"/>
        <pt x="41" y="0" on="1"/>
        <pt x="41" y="8" on="1"/>
        <pt x="41" y="55" on="0"/>
        <pt x="80" y="59" on="1"/>
        <pt x="115" y="61" on="1"/>
        <pt x="115" y="619" on="1"/>
        <pt x="43" y="625" on="1"/>
        <pt x="37" y="682" on="0"/>
        <pt x="81" y="682" on="1"/>
        <pt x="295" y="682" on="1"/>
        <pt x="295" y="674" on="1"/>
        <pt x="295" y="627" on="0"/>
        <pt x="256" y="623" on="1"/>
        <pt x="220" y="621" on="1"/>
        <pt x="220" y="369" on="1"/>
        <pt x="526" y="369" on="1"/>
        <pt x="526" y="619" on="1"/>
        <pt x="454" y="625" on="1"/>
        <pt x="448" y="682" on="0"/>
        <pt x="492" y="682" on="1"/>
        <pt x="705" y="682" on="1"/>
        <pt x="705" y="674" on="1"/>
        <pt x="705" y="627" on="0"/>
        <pt x="666" y="623" on="1"/>
        <pt x="631" y="621" on="1"/>
        <pt x="631" y="63" on="1"/>
        <pt x="703" y="57" on="1"/>
        <pt x="709" y="0" on="0"/>
      </contour>
      <contour>
        <pt x="374" y="809" on="1"/>
        <pt x="236" y="722" on="1"/>
        <pt x="217" y="734" on="0"/>
        <pt x="204" y="756" on="1"/>
        <pt x="340" y="880" on="1"/>
        <pt x="376" y="889" on="0"/>
        <pt x="411" y="880" on="1"/>
        <pt x="544" y="756" on="1"/>
        <pt x="530" y="733" on="0"/>
        <pt x="511" y="722" on="1"/>
      </contour>
    </TTGlyph>
    <TTGlyph name="I" xMin="41" yMin="0" xMax="295" yMax="682">
      <contour>
        <pt x="254" y="0" on="1"/>
        <pt x="41" y="0" on="1"/>
        <pt x="41" y="8" on="1"/>
        <pt x="41" y="55" on="0"/>
        <pt x="80" y="59" on="1"/>
        <pt x="115" y="61" on="1"/>
        <pt x="115" y="619" on="1"/>
        <pt x="43" y="625" on="1"/>
        <pt x="37" y="682" on="0"/>
        <pt x="81" y="682" on="1"/>
        <pt x="295" y="682" on="1"/>
        <pt x="295" y="674" on="1"/>
        <pt x="295" y="627" on="0"/>
        <pt x="256" y="623" on="1"/>
        <pt x="220" y="621" on="1"/>
        <pt x="220" y="63" on="1"/>
        <pt x="221" y="63" on="1"/>
        <pt x="293" y="57" on="1"/>
        <pt x="299" y="0" on="0"/>
      </contour>
    </TTGlyph>
    <TTGlyph name="IJ" xMin="41" yMin="-139" xMax="607" yMax="683">
      <contour>
        <pt x="389" y="683" on="1"/>
        <pt x="607" y="683" on="1"/>
        <pt x="607" y="683" on="0"/>
        <pt x="607" y="676" on="1"/>
        <pt x="607" y="650" on="0"/>
        <pt x="600" y="642" on="1"/>
        <pt x="586" y="624" on="0"/>
        <pt x="567" y="624" on="1"/>
        <pt x="534" y="621" on="1"/>
        <pt x="533" y="621" on="1"/>
        <pt x="533" y="84" on="1"/>
        <pt x="533" y="-6" on="0"/>
        <pt x="439" y="-139" on="0"/>
        <pt x="358" y="-139" on="1"/>
        <pt x="316" y="-139" on="0"/>
        <pt x="261" y="-95" on="0"/>
        <pt x="261" y="-34" on="0"/>
        <pt x="296" y="3" on="0"/>
        <pt x="333" y="2" on="1"/>
        <pt x="333" y="-66" on="0"/>
        <pt x="382" y="-66" on="1"/>
        <pt x="405" y="-66" on="0"/>
        <pt x="427" y="-15" on="0"/>
        <pt x="427" y="52" on="1"/>
        <pt x="427" y="619" on="1"/>
        <pt x="351" y="625" on="1"/>
        <pt x="345" y="683" on="0"/>
      </contour>
      <contour>
        <pt x="254" y="0" on="1"/>
        <pt x="41" y="0" on="1"/>
        <pt x="41" y="8" on="1"/>
        <pt x="41" y="55" on="0"/>
        <pt x="80" y="59" on="1"/>
        <pt x="115" y="61" on="1"/>
        <pt x="115" y="619" on="1"/>
        <pt x="43" y="625" on="1"/>
        <pt x="37" y="682" on="0"/>
        <pt x="81" y="682" on="1"/>
        <pt x="295" y="682" on="1"/>
        <pt x="295" y="674" on="1"/>
        <pt x="295" y="627" on="0"/>
        <pt x="256" y="623" on="1"/>
        <pt x="220" y="621" on="1"/>
        <pt x="220" y="63" on="1"/>
        <pt x="221" y="63" on="1"/>
        <pt x="293" y="57" on="1"/>
        <pt x="299" y="0" on="0"/>
      </contour>
    </TTGlyph>
    <TTGlyph name="Iacute" xMin="41" yMin="0" xMax="329" yMax="901">
      <contour>
        <pt x="220" y="63" on="1"/>
        <pt x="221" y="63" on="1"/>
        <pt x="293" y="57" on="1"/>
        <pt x="299" y="0" on="0"/>
        <pt x="254" y="0" on="1"/>
        <pt x="41" y="0" on="1"/>
        <pt x="41" y="8" on="1"/>
        <pt x="41" y="55" on="0"/>
        <pt x="80" y="59" on="1"/>
        <pt x="115" y="61" on="1"/>
        <pt x="115" y="619" on="1"/>
        <pt x="43" y="625" on="1"/>
        <pt x="37" y="682" on="0"/>
        <pt x="81" y="682" on="1"/>
        <pt x="295" y="682" on="1"/>
        <pt x="295" y="674" on="1"/>
        <pt x="295" y="627" on="0"/>
        <pt x="256" y="623" on="1"/>
        <pt x="220" y="621" on="1"/>
      </contour>
      <contour>
        <pt x="329" y="840" on="1"/>
        <pt x="125" y="731" on="1"/>
        <pt x="99" y="743" on="0"/>
        <pt x="88" y="768" on="1"/>
        <pt x="254" y="901" on="1"/>
        <pt x="275" y="898" on="0"/>
        <pt x="320" y="858" on="0"/>
      </contour>
    </TTGlyph>
    <TTGlyph name="Ibreve" xMin="8" yMin="0" xMax="330" yMax="896">
      <contour>
        <pt x="220" y="63" on="1"/>
        <pt x="221" y="63" on="1"/>
        <pt x="293" y="57" on="1"/>
        <pt x="299" y="0" on="0"/>
        <pt x="254" y="0" on="1"/>
        <pt x="41" y="0" on="1"/>
        <pt x="41" y="8" on="1"/>
        <pt x="41" y="55" on="0"/>
        <pt x="80" y="59" on="1"/>
        <pt x="115" y="61" on="1"/>
        <pt x="115" y="619" on="1"/>
        <pt x="43" y="625" on="1"/>
        <pt x="37" y="682" on="0"/>
        <pt x="81" y="682" on="1"/>
        <pt x="295" y="682" on="1"/>
        <pt x="295" y="674" on="1"/>
        <pt x="295" y="627" on="0"/>
        <pt x="256" y="623" on="1"/>
        <pt x="220" y="621" on="1"/>
      </contour>
      <contour>
        <pt x="240" y="738" on="0"/>
        <pt x="98" y="738" on="0"/>
        <pt x="16" y="821" on="0"/>
        <pt x="8" y="877" on="1"/>
        <pt x="43" y="896" on="1"/>
        <pt x="56" y="866" on="0"/>
        <pt x="118" y="815" on="0"/>
        <pt x="170" y="815" on="1"/>
        <pt x="261" y="815" on="0"/>
        <pt x="295" y="895" on="1"/>
        <pt x="330" y="877" on="1"/>
        <pt x="322" y="821" on="0"/>
      </contour>
    </TTGlyph>
    <TTGlyph name="Icircumflex" xMin="-2" yMin="0" xMax="339" yMax="880">
      <contour>
        <pt x="205" y="880" on="1"/>
        <pt x="339" y="756" on="1"/>
        <pt x="324" y="732" on="0"/>
        <pt x="305" y="722" on="1"/>
        <pt x="168" y="808" on="1"/>
        <pt x="31" y="722" on="1"/>
        <pt x="11" y="733" on="0"/>
        <pt x="-2" y="756" on="1"/>
        <pt x="135" y="880" on="1"/>
        <pt x="171" y="889" on="0"/>
      </contour>
      <contour>
        <pt x="220" y="63" on="1"/>
        <pt x="221" y="63" on="1"/>
        <pt x="293" y="57" on="1"/>
        <pt x="299" y="0" on="0"/>
        <pt x="254" y="0" on="1"/>
        <pt x="41" y="0" on="1"/>
        <pt x="41" y="8" on="1"/>
        <pt x="41" y="55" on="0"/>
        <pt x="80" y="59" on="1"/>
        <pt x="115" y="61" on="1"/>
        <pt x="115" y="619" on="1"/>
        <pt x="43" y="625" on="1"/>
        <pt x="37" y="682" on="0"/>
        <pt x="81" y="682" on="1"/>
        <pt x="295" y="682" on="1"/>
        <pt x="295" y="674" on="1"/>
        <pt x="295" y="627" on="0"/>
        <pt x="256" y="623" on="1"/>
        <pt x="220" y="621" on="1"/>
      </contour>
    </TTGlyph>
    <TTGlyph name="Idieresis" xMin="11" yMin="0" xMax="319" yMax="879">
      <contour>
        <pt x="192" y="842" on="0"/>
        <pt x="230" y="879" on="0"/>
        <pt x="282" y="879" on="0"/>
        <pt x="319" y="842" on="0"/>
        <pt x="319" y="790" on="0"/>
        <pt x="282" y="753" on="0"/>
        <pt x="229" y="753" on="0"/>
        <pt x="192" y="790" on="0"/>
      </contour>
      <contour>
        <pt x="220" y="63" on="1"/>
        <pt x="221" y="63" on="1"/>
        <pt x="293" y="57" on="1"/>
        <pt x="299" y="0" on="0"/>
        <pt x="254" y="0" on="1"/>
        <pt x="41" y="0" on="1"/>
        <pt x="41" y="8" on="1"/>
        <pt x="41" y="55" on="0"/>
        <pt x="80" y="59" on="1"/>
        <pt x="115" y="61" on="1"/>
        <pt x="115" y="619" on="1"/>
        <pt x="43" y="625" on="1"/>
        <pt x="37" y="682" on="0"/>
        <pt x="81" y="682" on="1"/>
        <pt x="295" y="682" on="1"/>
        <pt x="295" y="674" on="1"/>
        <pt x="295" y="627" on="0"/>
        <pt x="256" y="623" on="1"/>
        <pt x="220" y="621" on="1"/>
      </contour>
      <contour>
        <pt x="138" y="842" on="0"/>
        <pt x="138" y="790" on="0"/>
        <pt x="101" y="753" on="0"/>
        <pt x="49" y="753" on="0"/>
        <pt x="11" y="790" on="0"/>
        <pt x="11" y="842" on="0"/>
        <pt x="49" y="879" on="0"/>
        <pt x="101" y="879" on="0"/>
      </contour>
    </TTGlyph>
    <TTGlyph name="Idotaccent" xMin="41" yMin="0" xMax="295" yMax="891">
      <contour>
        <pt x="254" y="0" on="1"/>
        <pt x="41" y="0" on="1"/>
        <pt x="41" y="8" on="1"/>
        <pt x="41" y="55" on="0"/>
        <pt x="80" y="59" on="1"/>
        <pt x="115" y="61" on="1"/>
        <pt x="115" y="619" on="1"/>
        <pt x="43" y="625" on="1"/>
        <pt x="37" y="682" on="0"/>
        <pt x="81" y="682" on="1"/>
        <pt x="295" y="682" on="1"/>
        <pt x="295" y="674" on="1"/>
        <pt x="295" y="627" on="0"/>
        <pt x="256" y="623" on="1"/>
        <pt x="220" y="621" on="1"/>
        <pt x="220" y="63" on="1"/>
        <pt x="221" y="63" on="1"/>
        <pt x="293" y="57" on="1"/>
        <pt x="299" y="0" on="0"/>
      </contour>
      <contour>
        <pt x="237" y="798" on="0"/>
        <pt x="200" y="761" on="0"/>
        <pt x="145" y="761" on="0"/>
        <pt x="108" y="798" on="0"/>
        <pt x="108" y="854" on="0"/>
        <pt x="145" y="891" on="0"/>
        <pt x="200" y="891" on="0"/>
        <pt x="237" y="854" on="0"/>
      </contour>
    </TTGlyph>
    <TTGlyph name="Igrave" xMin="25" yMin="0" xMax="295" yMax="898">
      <contour>
        <pt x="254" y="0" on="1"/>
        <pt x="41" y="0" on="1"/>
        <pt x="41" y="8" on="1"/>
        <pt x="41" y="55" on="0"/>
        <pt x="80" y="59" on="1"/>
        <pt x="115" y="61" on="1"/>
        <pt x="115" y="619" on="1"/>
        <pt x="43" y="625" on="1"/>
        <pt x="37" y="682" on="0"/>
        <pt x="81" y="682" on="1"/>
        <pt x="295" y="682" on="1"/>
        <pt x="295" y="674" on="1"/>
        <pt x="295" y="627" on="0"/>
        <pt x="256" y="623" on="1"/>
        <pt x="220" y="621" on="1"/>
        <pt x="220" y="63" on="1"/>
        <pt x="221" y="63" on="1"/>
        <pt x="293" y="57" on="1"/>
        <pt x="299" y="0" on="0"/>
      </contour>
      <contour>
        <pt x="99" y="898" on="1"/>
        <pt x="266" y="765" on="1"/>
        <pt x="255" y="741" on="0"/>
        <pt x="228" y="728" on="1"/>
        <pt x="25" y="837" on="1"/>
        <pt x="33" y="855" on="0"/>
        <pt x="78" y="895" on="0"/>
      </contour>
    </TTGlyph>
    <TTGlyph name="Imacron" xMin="27" yMin="0" xMax="310" yMax="826">
      <contour>
        <pt x="27" y="826" on="1"/>
        <pt x="310" y="826" on="1"/>
        <pt x="310" y="761" on="1"/>
        <pt x="27" y="761" on="1"/>
      </contour>
      <contour>
        <pt x="220" y="63" on="1"/>
        <pt x="221" y="63" on="1"/>
        <pt x="293" y="57" on="1"/>
        <pt x="299" y="0" on="0"/>
        <pt x="254" y="0" on="1"/>
        <pt x="41" y="0" on="1"/>
        <pt x="41" y="8" on="1"/>
        <pt x="41" y="55" on="0"/>
        <pt x="80" y="59" on="1"/>
        <pt x="115" y="61" on="1"/>
        <pt x="115" y="619" on="1"/>
        <pt x="43" y="625" on="1"/>
        <pt x="37" y="682" on="0"/>
        <pt x="81" y="682" on="1"/>
        <pt x="295" y="682" on="1"/>
        <pt x="295" y="674" on="1"/>
        <pt x="295" y="627" on="0"/>
        <pt x="256" y="623" on="1"/>
        <pt x="220" y="621" on="1"/>
      </contour>
    </TTGlyph>
    <TTGlyph name="Iogonek" xMin="41" yMin="-174" xMax="330" yMax="682">
      <contour>
        <pt x="292" y="12" on="1"/>
        <pt x="224" y="-19" on="0"/>
        <pt x="224" y="-124" on="0"/>
        <pt x="269" y="-124" on="1"/>
        <pt x="297" y="-124" on="0"/>
        <pt x="323" y="-103" on="1"/>
        <pt x="327" y="-106" on="0"/>
        <pt x="332" y="-132" on="0"/>
        <pt x="330" y="-140" on="1"/>
        <pt x="306" y="-174" on="0"/>
        <pt x="205" y="-174" on="0"/>
        <pt x="154" y="-129" on="0"/>
        <pt x="154" y="-95" on="1"/>
        <pt x="154" y="-40" on="0"/>
        <pt x="205" y="0" on="1"/>
        <pt x="41" y="0" on="1"/>
        <pt x="41" y="8" on="1"/>
        <pt x="41" y="55" on="0"/>
        <pt x="80" y="59" on="1"/>
        <pt x="115" y="61" on="1"/>
        <pt x="115" y="619" on="1"/>
        <pt x="43" y="625" on="1"/>
        <pt x="37" y="682" on="0"/>
        <pt x="81" y="682" on="1"/>
        <pt x="295" y="682" on="1"/>
        <pt x="295" y="674" on="1"/>
        <pt x="295" y="627" on="0"/>
        <pt x="256" y="623" on="1"/>
        <pt x="220" y="621" on="1"/>
        <pt x="220" y="63" on="1"/>
        <pt x="221" y="63" on="1"/>
        <pt x="293" y="57" on="1"/>
        <pt x="296" y="36" on="0"/>
        <pt x="288" y="18" on="1"/>
      </contour>
    </TTGlyph>
    <TTGlyph name="Itilde" xMin="0" yMin="0" xMax="340" yMax="881">
      <contour>
        <pt x="231" y="746" on="1"/>
        <pt x="193" y="746" on="0"/>
        <pt x="107" y="798" on="0"/>
        <pt x="69" y="798" on="0"/>
        <pt x="39" y="772" on="0"/>
        <pt x="33" y="752" on="1"/>
        <pt x="0" y="764" on="1"/>
        <pt x="9" y="818" on="0"/>
        <pt x="65" y="881" on="0"/>
        <pt x="136" y="881" on="0"/>
        <pt x="218" y="824" on="0"/>
        <pt x="270" y="824" on="0"/>
        <pt x="304" y="852" on="0"/>
        <pt x="309" y="875" on="1"/>
        <pt x="340" y="866" on="1"/>
        <pt x="324" y="746" on="0"/>
      </contour>
      <contour>
        <pt x="220" y="63" on="1"/>
        <pt x="221" y="63" on="1"/>
        <pt x="293" y="57" on="1"/>
        <pt x="299" y="0" on="0"/>
        <pt x="254" y="0" on="1"/>
        <pt x="41" y="0" on="1"/>
        <pt x="41" y="8" on="1"/>
        <pt x="41" y="55" on="0"/>
        <pt x="80" y="59" on="1"/>
        <pt x="115" y="61" on="1"/>
        <pt x="115" y="619" on="1"/>
        <pt x="43" y="625" on="1"/>
        <pt x="37" y="682" on="0"/>
        <pt x="81" y="682" on="1"/>
        <pt x="295" y="682" on="1"/>
        <pt x="295" y="674" on="1"/>
        <pt x="295" y="627" on="0"/>
        <pt x="256" y="623" on="1"/>
        <pt x="220" y="621" on="1"/>
      </contour>
    </TTGlyph>
    <TTGlyph name="J" xMin="10" yMin="-63" xMax="354" yMax="682">
      <contour>
        <pt x="137" y="682" on="1"/>
        <pt x="354" y="682" on="1"/>
        <pt x="354" y="682" on="0"/>
        <pt x="354" y="674" on="1"/>
        <pt x="354" y="650" on="0"/>
        <pt x="347" y="641" on="1"/>
        <pt x="334" y="625" on="0"/>
        <pt x="314" y="623" on="1"/>
        <pt x="281" y="621" on="1"/>
        <pt x="281" y="136" on="1"/>
        <pt x="281" y="49" on="0"/>
        <pt x="187" y="-63" on="0"/>
        <pt x="107" y="-63" on="1"/>
        <pt x="65" y="-63" on="0"/>
        <pt x="10" y="-19" on="0"/>
        <pt x="10" y="42" on="0"/>
        <pt x="44" y="79" on="0"/>
        <pt x="81" y="78" on="1"/>
        <pt x="83" y="10" on="0"/>
        <pt x="131" y="10" on="1"/>
        <pt x="154" y="10" on="0"/>
        <pt x="176" y="61" on="0"/>
        <pt x="176" y="128" on="1"/>
        <pt x="176" y="619" on="1"/>
        <pt x="175" y="619" on="1"/>
        <pt x="99" y="625" on="1"/>
        <pt x="93" y="682" on="0"/>
      </contour>
    </TTGlyph>
    <TTGlyph name="Jcircumflex" xMin="10" yMin="-63" xMax="397" yMax="880">
      <contour>
        <pt x="264" y="880" on="1"/>
        <pt x="397" y="756" on="1"/>
        <pt x="383" y="733" on="0"/>
        <pt x="364" y="722" on="1"/>
        <pt x="227" y="809" on="1"/>
        <pt x="89" y="722" on="1"/>
        <pt x="70" y="734" on="0"/>
        <pt x="57" y="756" on="1"/>
        <pt x="193" y="880" on="1"/>
        <pt x="229" y="889" on="0"/>
      </contour>
      <contour>
        <pt x="137" y="682" on="1"/>
        <pt x="354" y="682" on="1"/>
        <pt x="354" y="674" on="1"/>
        <pt x="354" y="650" on="0"/>
        <pt x="347" y="641" on="1"/>
        <pt x="334" y="625" on="0"/>
        <pt x="314" y="623" on="1"/>
        <pt x="281" y="621" on="1"/>
        <pt x="281" y="136" on="1"/>
        <pt x="281" y="49" on="0"/>
        <pt x="187" y="-63" on="0"/>
        <pt x="107" y="-63" on="1"/>
        <pt x="65" y="-63" on="0"/>
        <pt x="10" y="-19" on="0"/>
        <pt x="10" y="42" on="0"/>
        <pt x="44" y="79" on="0"/>
        <pt x="81" y="78" on="1"/>
        <pt x="83" y="10" on="0"/>
        <pt x="131" y="10" on="1"/>
        <pt x="154" y="10" on="0"/>
        <pt x="176" y="61" on="0"/>
        <pt x="176" y="128" on="1"/>
        <pt x="176" y="619" on="1"/>
        <pt x="175" y="619" on="1"/>
        <pt x="99" y="625" on="1"/>
        <pt x="93" y="682" on="0"/>
      </contour>
    </TTGlyph>
    <TTGlyph name="K" xMin="41" yMin="0" xMax="608" yMax="682">
      <contour>
        <pt x="415" y="682" on="1"/>
        <pt x="602" y="682" on="1"/>
        <pt x="602" y="652" on="0"/>
        <pt x="595" y="642" on="1"/>
        <pt x="582" y="623" on="0"/>
        <pt x="563" y="623" on="1"/>
        <pt x="523" y="621" on="1"/>
        <pt x="325" y="375" on="1"/>
        <pt x="545" y="62" on="1"/>
        <pt x="608" y="56" on="1"/>
        <pt x="614" y="44" on="0"/>
        <pt x="594" y="0" on="0"/>
        <pt x="569" y="0" on="1"/>
        <pt x="460" y="0" on="1"/>
        <pt x="257" y="290" on="1"/>
        <pt x="220" y="245" on="1"/>
        <pt x="220" y="63" on="1"/>
        <pt x="300" y="57" on="1"/>
        <pt x="306" y="0" on="0"/>
        <pt x="261" y="0" on="1"/>
        <pt x="41" y="0" on="1"/>
        <pt x="41" y="8" on="1"/>
        <pt x="41" y="55" on="0"/>
        <pt x="80" y="59" on="1"/>
        <pt x="115" y="61" on="1"/>
        <pt x="115" y="619" on="1"/>
        <pt x="43" y="625" on="1"/>
        <pt x="37" y="682" on="0"/>
        <pt x="81" y="682" on="1"/>
        <pt x="295" y="682" on="1"/>
        <pt x="295" y="674" on="1"/>
        <pt x="295" y="627" on="0"/>
        <pt x="256" y="623" on="1"/>
        <pt x="220" y="621" on="1"/>
        <pt x="220" y="339" on="1"/>
        <pt x="441" y="620" on="1"/>
        <pt x="376" y="625" on="1"/>
        <pt x="370" y="682" on="0"/>
      </contour>
    </TTGlyph>
    <TTGlyph name="L" xMin="41" yMin="0" xMax="524" yMax="683">
      <contour>
        <pt x="524" y="163" on="1"/>
        <pt x="524" y="0" on="1"/>
        <pt x="41" y="0" on="1"/>
        <pt x="41" y="8" on="1"/>
        <pt x="41" y="55" on="0"/>
        <pt x="80" y="59" on="1"/>
        <pt x="115" y="61" on="1"/>
        <pt x="115" y="619" on="1"/>
        <pt x="44" y="625" on="1"/>
        <pt x="38" y="683" on="0"/>
        <pt x="82" y="683" on="1"/>
        <pt x="310" y="683" on="1"/>
        <pt x="310" y="676" on="1"/>
        <pt x="310" y="640" on="0"/>
        <pt x="289" y="628" on="1"/>
        <pt x="281" y="624" on="0"/>
        <pt x="271" y="624" on="1"/>
        <pt x="221" y="621" on="1"/>
        <pt x="220" y="621" on="1"/>
        <pt x="220" y="63" on="1"/>
        <pt x="453" y="69" on="1"/>
        <pt x="467" y="197" on="1"/>
        <pt x="524" y="203" on="0"/>
      </contour>
    </TTGlyph>
    <TTGlyph name="Lacute" xMin="41" yMin="0" xMax="524" yMax="901">
      <contour>
        <pt x="524" y="163" on="1"/>
        <pt x="524" y="0" on="1"/>
        <pt x="41" y="0" on="1"/>
        <pt x="41" y="8" on="1"/>
        <pt x="41" y="55" on="0"/>
        <pt x="80" y="59" on="1"/>
        <pt x="115" y="61" on="1"/>
        <pt x="115" y="619" on="1"/>
        <pt x="44" y="625" on="1"/>
        <pt x="38" y="683" on="0"/>
        <pt x="82" y="683" on="1"/>
        <pt x="310" y="683" on="1"/>
        <pt x="310" y="676" on="1"/>
        <pt x="310" y="640" on="0"/>
        <pt x="289" y="628" on="1"/>
        <pt x="281" y="624" on="0"/>
        <pt x="271" y="624" on="1"/>
        <pt x="221" y="621" on="1"/>
        <pt x="220" y="621" on="1"/>
        <pt x="220" y="63" on="1"/>
        <pt x="453" y="69" on="1"/>
        <pt x="467" y="197" on="1"/>
        <pt x="524" y="203" on="0"/>
      </contour>
      <contour>
        <pt x="377" y="840" on="1"/>
        <pt x="173" y="731" on="1"/>
        <pt x="147" y="744" on="0"/>
        <pt x="136" y="768" on="1"/>
        <pt x="302" y="901" on="1"/>
        <pt x="323" y="898" on="0"/>
        <pt x="368" y="858" on="0"/>
      </contour>
    </TTGlyph>
    <TTGlyph name="Lcaron" xMin="41" yMin="0" xMax="524" yMax="766">
      <contour>
        <pt x="524" y="163" on="1"/>
        <pt x="524" y="0" on="1"/>
        <pt x="41" y="0" on="1"/>
        <pt x="41" y="8" on="1"/>
        <pt x="41" y="55" on="0"/>
        <pt x="80" y="59" on="1"/>
        <pt x="115" y="61" on="1"/>
        <pt x="115" y="619" on="1"/>
        <pt x="44" y="625" on="1"/>
        <pt x="38" y="683" on="0"/>
        <pt x="82" y="683" on="1"/>
        <pt x="310" y="683" on="1"/>
        <pt x="310" y="676" on="1"/>
        <pt x="310" y="640" on="0"/>
        <pt x="289" y="628" on="1"/>
        <pt x="281" y="624" on="0"/>
        <pt x="271" y="624" on="1"/>
        <pt x="221" y="621" on="1"/>
        <pt x="220" y="621" on="1"/>
        <pt x="220" y="63" on="1"/>
        <pt x="453" y="69" on="1"/>
        <pt x="467" y="197" on="1"/>
        <pt x="524" y="203" on="0"/>
      </contour>
      <contour>
        <pt x="377" y="595" on="0"/>
        <pt x="377" y="723" on="0"/>
        <pt x="366" y="755" on="1"/>
        <pt x="379" y="771" on="0"/>
        <pt x="472" y="760" on="0"/>
        <pt x="480" y="739" on="1"/>
        <pt x="482" y="681" on="0"/>
        <pt x="444" y="571" on="0"/>
        <pt x="408" y="535" on="1"/>
        <pt x="403" y="532" on="0"/>
        <pt x="362" y="553" on="0"/>
        <pt x="362" y="558" on="1"/>
      </contour>
    </TTGlyph>
    <TTGlyph name="Ldot" xMin="41" yMin="0" xMax="524" yMax="683">
      <contour>
        <pt x="524" y="163" on="1"/>
        <pt x="524" y="0" on="1"/>
        <pt x="41" y="0" on="1"/>
        <pt x="41" y="8" on="1"/>
        <pt x="41" y="55" on="0"/>
        <pt x="80" y="59" on="1"/>
        <pt x="115" y="61" on="1"/>
        <pt x="115" y="619" on="1"/>
        <pt x="44" y="625" on="1"/>
        <pt x="38" y="683" on="0"/>
        <pt x="82" y="683" on="1"/>
        <pt x="310" y="683" on="1"/>
        <pt x="310" y="676" on="1"/>
        <pt x="310" y="640" on="0"/>
        <pt x="289" y="628" on="1"/>
        <pt x="281" y="624" on="0"/>
        <pt x="271" y="624" on="1"/>
        <pt x="221" y="621" on="1"/>
        <pt x="220" y="621" on="1"/>
        <pt x="220" y="63" on="1"/>
        <pt x="453" y="69" on="1"/>
        <pt x="467" y="197" on="1"/>
        <pt x="524" y="203" on="0"/>
      </contour>
      <contour>
        <pt x="506" y="319" on="0"/>
        <pt x="465" y="278" on="0"/>
        <pt x="404" y="278" on="0"/>
        <pt x="362" y="319" on="0"/>
        <pt x="362" y="380" on="0"/>
        <pt x="404" y="422" on="0"/>
        <pt x="465" y="422" on="0"/>
        <pt x="506" y="380" on="0"/>
      </contour>
    </TTGlyph>
    <TTGlyph name="Lslash" xMin="20" yMin="0" xMax="527" yMax="683">
      <contour>
        <pt x="527" y="163" on="1"/>
        <pt x="527" y="0" on="1"/>
        <pt x="44" y="0" on="1"/>
        <pt x="44" y="8" on="1"/>
        <pt x="44" y="55" on="0"/>
        <pt x="83" y="59" on="1"/>
        <pt x="118" y="61" on="1"/>
        <pt x="118" y="224" on="1"/>
        <pt x="60" y="178" on="1"/>
        <pt x="20" y="227" on="1"/>
        <pt x="118" y="304" on="1"/>
        <pt x="118" y="619" on="1"/>
        <pt x="47" y="625" on="1"/>
        <pt x="41" y="683" on="0"/>
        <pt x="85" y="683" on="1"/>
        <pt x="313" y="683" on="1"/>
        <pt x="313" y="676" on="1"/>
        <pt x="313" y="640" on="0"/>
        <pt x="292" y="628" on="1"/>
        <pt x="284" y="624" on="0"/>
        <pt x="274" y="624" on="1"/>
        <pt x="224" y="621" on="1"/>
        <pt x="223" y="621" on="1"/>
        <pt x="223" y="387" on="1"/>
        <pt x="329" y="470" on="1"/>
        <pt x="369" y="421" on="1"/>
        <pt x="223" y="306" on="1"/>
        <pt x="223" y="63" on="1"/>
        <pt x="456" y="69" on="1"/>
        <pt x="470" y="197" on="1"/>
        <pt x="527" y="203" on="0"/>
      </contour>
    </TTGlyph>
    <TTGlyph name="M" xMin="12" yMin="0" xMax="846" yMax="683">
      <contour>
        <pt x="808" y="0" on="1"/>
        <pt x="597" y="0" on="1"/>
        <pt x="597" y="8" on="1"/>
        <pt x="597" y="55" on="0"/>
        <pt x="636" y="59" on="1"/>
        <pt x="669" y="61" on="1"/>
        <pt x="633" y="561" on="1"/>
        <pt x="450" y="114" on="1"/>
        <pt x="418" y="104" on="0"/>
        <pt x="394" y="110" on="1"/>
        <pt x="200" y="542" on="1"/>
        <pt x="167" y="63" on="1"/>
        <pt x="245" y="57" on="1"/>
        <pt x="251" y="0" on="0"/>
        <pt x="207" y="0" on="1"/>
        <pt x="12" y="0" on="1"/>
        <pt x="12" y="8" on="1"/>
        <pt x="12" y="55" on="0"/>
        <pt x="51" y="59" on="1"/>
        <pt x="93" y="61" on="1"/>
        <pt x="132" y="619" on="1"/>
        <pt x="63" y="625" on="1"/>
        <pt x="57" y="683" on="0"/>
        <pt x="101" y="683" on="1"/>
        <pt x="252" y="683" on="1"/>
        <pt x="439" y="263" on="1"/>
        <pt x="604" y="683" on="1"/>
        <pt x="765" y="683" on="1"/>
        <pt x="810" y="683" on="0"/>
        <pt x="804" y="625" on="1"/>
        <pt x="734" y="619" on="1"/>
        <pt x="776" y="64" on="1"/>
        <pt x="846" y="57" on="1"/>
        <pt x="852" y="0" on="0"/>
      </contour>
    </TTGlyph>
    <TTGlyph name="N" xMin="41" yMin="-1" xMax="671" yMax="682">
      <contour>
        <pt x="496" y="682" on="1"/>
        <pt x="671" y="682" on="1"/>
        <pt x="671" y="682" on="0"/>
        <pt x="671" y="674" on="1"/>
        <pt x="671" y="627" on="0"/>
        <pt x="632" y="623" on="1"/>
        <pt x="596" y="621" on="1"/>
        <pt x="596" y="12" on="1"/>
        <pt x="567" y="-1" on="0"/>
        <pt x="529" y="-1" on="1"/>
        <pt x="183" y="522" on="1"/>
        <pt x="183" y="63" on="1"/>
        <pt x="255" y="57" on="1"/>
        <pt x="261" y="0" on="0"/>
        <pt x="217" y="0" on="1"/>
        <pt x="41" y="0" on="1"/>
        <pt x="41" y="8" on="1"/>
        <pt x="41" y="55" on="0"/>
        <pt x="80" y="59" on="1"/>
        <pt x="115" y="61" on="1"/>
        <pt x="115" y="619" on="1"/>
        <pt x="43" y="625" on="1"/>
        <pt x="37" y="682" on="0"/>
        <pt x="81" y="682" on="1"/>
        <pt x="203" y="682" on="1"/>
        <pt x="529" y="189" on="1"/>
        <pt x="529" y="619" on="1"/>
        <pt x="457" y="625" on="1"/>
        <pt x="451" y="682" on="0"/>
      </contour>
    </TTGlyph>
    <TTGlyph name="Nacute" xMin="41" yMin="-1" xMax="671" yMax="901">
      <contour>
        <pt x="496" y="682" on="1"/>
        <pt x="671" y="682" on="1"/>
        <pt x="671" y="682" on="0"/>
        <pt x="671" y="674" on="1"/>
        <pt x="671" y="627" on="0"/>
        <pt x="632" y="623" on="1"/>
        <pt x="596" y="621" on="1"/>
        <pt x="596" y="12" on="1"/>
        <pt x="567" y="-1" on="0"/>
        <pt x="529" y="-1" on="1"/>
        <pt x="183" y="522" on="1"/>
        <pt x="183" y="63" on="1"/>
        <pt x="255" y="57" on="1"/>
        <pt x="261" y="0" on="0"/>
        <pt x="217" y="0" on="1"/>
        <pt x="41" y="0" on="1"/>
        <pt x="41" y="8" on="1"/>
        <pt x="41" y="55" on="0"/>
        <pt x="80" y="59" on="1"/>
        <pt x="115" y="61" on="1"/>
        <pt x="115" y="619" on="1"/>
        <pt x="43" y="625" on="1"/>
        <pt x="37" y="682" on="0"/>
        <pt x="81" y="682" on="1"/>
        <pt x="203" y="682" on="1"/>
        <pt x="529" y="189" on="1"/>
        <pt x="529" y="619" on="1"/>
        <pt x="457" y="625" on="1"/>
        <pt x="451" y="682" on="0"/>
      </contour>
      <contour>
        <pt x="508" y="840" on="1"/>
        <pt x="304" y="731" on="1"/>
        <pt x="278" y="744" on="0"/>
        <pt x="267" y="768" on="1"/>
        <pt x="433" y="901" on="1"/>
        <pt x="454" y="898" on="0"/>
        <pt x="498" y="858" on="0"/>
      </contour>
    </TTGlyph>
    <TTGlyph name="Ncaron" xMin="41" yMin="-1" xMax="671" yMax="897">
      <contour>
        <pt x="496" y="682" on="1"/>
        <pt x="671" y="682" on="1"/>
        <pt x="671" y="682" on="0"/>
        <pt x="671" y="674" on="1"/>
        <pt x="671" y="627" on="0"/>
        <pt x="632" y="623" on="1"/>
        <pt x="596" y="621" on="1"/>
        <pt x="596" y="12" on="1"/>
        <pt x="567" y="-1" on="0"/>
        <pt x="529" y="-1" on="1"/>
        <pt x="183" y="522" on="1"/>
        <pt x="183" y="63" on="1"/>
        <pt x="255" y="57" on="1"/>
        <pt x="261" y="0" on="0"/>
        <pt x="217" y="0" on="1"/>
        <pt x="41" y="0" on="1"/>
        <pt x="41" y="8" on="1"/>
        <pt x="41" y="55" on="0"/>
        <pt x="80" y="59" on="1"/>
        <pt x="115" y="61" on="1"/>
        <pt x="115" y="619" on="1"/>
        <pt x="43" y="625" on="1"/>
        <pt x="37" y="682" on="0"/>
        <pt x="81" y="682" on="1"/>
        <pt x="203" y="682" on="1"/>
        <pt x="529" y="189" on="1"/>
        <pt x="529" y="619" on="1"/>
        <pt x="457" y="625" on="1"/>
        <pt x="451" y="682" on="0"/>
      </contour>
      <contour>
        <pt x="517" y="863" on="1"/>
        <pt x="383" y="739" on="1"/>
        <pt x="351" y="731" on="0"/>
        <pt x="313" y="739" on="1"/>
        <pt x="176" y="863" on="1"/>
        <pt x="189" y="886" on="0"/>
        <pt x="209" y="897" on="1"/>
        <pt x="346" y="811" on="1"/>
        <pt x="483" y="897" on="1"/>
        <pt x="502" y="887" on="0"/>
      </contour>
    </TTGlyph>
    <TTGlyph name="Ntilde" xMin="41" yMin="-1" xMax="671" yMax="881">
      <contour>
        <pt x="496" y="682" on="1"/>
        <pt x="671" y="682" on="1"/>
        <pt x="671" y="682" on="0"/>
        <pt x="671" y="674" on="1"/>
        <pt x="671" y="627" on="0"/>
        <pt x="632" y="623" on="1"/>
        <pt x="596" y="621" on="1"/>
        <pt x="596" y="12" on="1"/>
        <pt x="567" y="-1" on="0"/>
        <pt x="529" y="-1" on="1"/>
        <pt x="183" y="522" on="1"/>
        <pt x="183" y="63" on="1"/>
        <pt x="255" y="57" on="1"/>
        <pt x="261" y="0" on="0"/>
        <pt x="217" y="0" on="1"/>
        <pt x="41" y="0" on="1"/>
        <pt x="41" y="8" on="1"/>
        <pt x="41" y="55" on="0"/>
        <pt x="80" y="59" on="1"/>
        <pt x="115" y="61" on="1"/>
        <pt x="115" y="619" on="1"/>
        <pt x="43" y="625" on="1"/>
        <pt x="37" y="682" on="0"/>
        <pt x="81" y="682" on="1"/>
        <pt x="203" y="682" on="1"/>
        <pt x="529" y="189" on="1"/>
        <pt x="529" y="619" on="1"/>
        <pt x="457" y="625" on="1"/>
        <pt x="451" y="682" on="0"/>
      </contour>
      <contour>
        <pt x="410" y="746" on="1"/>
        <pt x="372" y="746" on="0"/>
        <pt x="286" y="798" on="0"/>
        <pt x="248" y="798" on="0"/>
        <pt x="218" y="772" on="0"/>
        <pt x="212" y="752" on="1"/>
        <pt x="179" y="764" on="1"/>
        <pt x="188" y="818" on="0"/>
        <pt x="244" y="881" on="0"/>
        <pt x="315" y="881" on="0"/>
        <pt x="398" y="824" on="0"/>
        <pt x="449" y="824" on="0"/>
        <pt x="482" y="852" on="0"/>
        <pt x="488" y="875" on="1"/>
        <pt x="520" y="866" on="1"/>
        <pt x="502" y="746" on="0"/>
      </contour>
    </TTGlyph>
    <TTGlyph name="O" xMin="36" yMin="-15" xMax="635" yMax="697">
      <contour>
        <pt x="241" y="627" on="0"/>
        <pt x="145" y="479" on="0"/>
        <pt x="145" y="206" on="0"/>
        <pt x="239" y="56" on="0"/>
        <pt x="332" y="55" on="1"/>
        <pt x="428" y="56" on="0"/>
        <pt x="526" y="203" on="0"/>
        <pt x="526" y="476" on="0"/>
        <pt x="430" y="628" on="0"/>
      </contour>
      <contour>
        <pt x="350" y="697" on="1"/>
        <pt x="476" y="697" on="0"/>
        <pt x="634" y="524" on="0"/>
        <pt x="635" y="182" on="0"/>
        <pt x="469" y="-15" on="0"/>
        <pt x="318" y="-15" on="1"/>
        <pt x="186" y="-15" on="0"/>
        <pt x="38" y="167" on="0"/>
        <pt x="35" y="499" on="0"/>
        <pt x="202" y="697" on="0"/>
      </contour>
    </TTGlyph>
    <TTGlyph name="OE" xMin="36" yMin="-15" xMax="874" yMax="698">
      <contour>
        <pt x="146" y="343" on="1"/>
        <pt x="146" y="201" on="0"/>
        <pt x="230" y="55" on="0"/>
        <pt x="337" y="54" on="1"/>
        <pt x="412" y="55" on="0"/>
        <pt x="456" y="96" on="1"/>
        <pt x="456" y="594" on="1"/>
        <pt x="411" y="629" on="0"/>
        <pt x="340" y="629" on="1"/>
        <pt x="146" y="628" on="0"/>
      </contour>
      <contour>
        <pt x="874" y="0" on="1"/>
        <pt x="431" y="0" on="1"/>
        <pt x="382" y="-15" on="0"/>
        <pt x="323" y="-15" on="1"/>
        <pt x="192" y="-15" on="0"/>
        <pt x="38" y="172" on="0"/>
        <pt x="35" y="494" on="0"/>
        <pt x="200" y="698" on="0"/>
        <pt x="355" y="698" on="1"/>
        <pt x="411" y="698" on="0"/>
        <pt x="459" y="683" on="1"/>
        <pt x="854" y="683" on="1"/>
        <pt x="854" y="535" on="1"/>
        <pt x="854" y="495" on="0"/>
        <pt x="798" y="501" on="1"/>
        <pt x="788" y="617" on="1"/>
        <pt x="561" y="621" on="1"/>
        <pt x="561" y="366" on="1"/>
        <pt x="745" y="384" on="1"/>
        <pt x="754" y="339" on="0"/>
        <pt x="746" y="295" on="1"/>
        <pt x="561" y="305" on="1"/>
        <pt x="561" y="63" on="1"/>
        <pt x="809" y="71" on="1"/>
        <pt x="818" y="187" on="1"/>
        <pt x="874" y="193" on="0"/>
        <pt x="874" y="153" on="1"/>
      </contour>
    </TTGlyph>
    <TTGlyph name="Oacute" xMin="36" yMin="-15" xMax="635" yMax="901">
      <contour>
        <pt x="505" y="840" on="1"/>
        <pt x="302" y="731" on="1"/>
        <pt x="275" y="744" on="0"/>
        <pt x="264" y="768" on="1"/>
        <pt x="430" y="901" on="1"/>
        <pt x="451" y="898" on="0"/>
        <pt x="496" y="858" on="0"/>
      </contour>
      <contour>
        <pt x="241" y="627" on="0"/>
        <pt x="145" y="479" on="0"/>
        <pt x="145" y="206" on="0"/>
        <pt x="239" y="56" on="0"/>
        <pt x="332" y="55" on="1"/>
        <pt x="428" y="56" on="0"/>
        <pt x="526" y="203" on="0"/>
        <pt x="526" y="476" on="0"/>
        <pt x="430" y="628" on="0"/>
      </contour>
      <contour>
        <pt x="350" y="697" on="1"/>
        <pt x="476" y="697" on="0"/>
        <pt x="634" y="524" on="0"/>
        <pt x="635" y="182" on="0"/>
        <pt x="469" y="-15" on="0"/>
        <pt x="318" y="-15" on="1"/>
        <pt x="186" y="-15" on="0"/>
        <pt x="38" y="167" on="0"/>
        <pt x="35" y="499" on="0"/>
        <pt x="202" y="697" on="0"/>
      </contour>
    </TTGlyph>
    <TTGlyph name="Obreve" xMin="36" yMin="-15" xMax="635" yMax="896">
      <contour>
        <pt x="241" y="627" on="0"/>
        <pt x="145" y="479" on="0"/>
        <pt x="145" y="206" on="0"/>
        <pt x="239" y="56" on="0"/>
        <pt x="332" y="55" on="1"/>
        <pt x="428" y="56" on="0"/>
        <pt x="526" y="203" on="0"/>
        <pt x="526" y="476" on="0"/>
        <pt x="430" y="628" on="0"/>
      </contour>
      <contour>
        <pt x="350" y="697" on="1"/>
        <pt x="476" y="697" on="0"/>
        <pt x="634" y="524" on="0"/>
        <pt x="635" y="182" on="0"/>
        <pt x="469" y="-15" on="0"/>
        <pt x="318" y="-15" on="1"/>
        <pt x="186" y="-15" on="0"/>
        <pt x="38" y="167" on="0"/>
        <pt x="35" y="499" on="0"/>
        <pt x="202" y="697" on="0"/>
      </contour>
      <contour>
        <pt x="347" y="815" on="1"/>
        <pt x="438" y="815" on="0"/>
        <pt x="472" y="895" on="1"/>
        <pt x="507" y="877" on="1"/>
        <pt x="499" y="821" on="0"/>
        <pt x="417" y="738" on="0"/>
        <pt x="275" y="738" on="0"/>
        <pt x="193" y="821" on="0"/>
        <pt x="185" y="877" on="1"/>
        <pt x="220" y="896" on="1"/>
        <pt x="233" y="866" on="0"/>
        <pt x="295" y="815" on="0"/>
      </contour>
    </TTGlyph>
    <TTGlyph name="Ocircumflex" xMin="36" yMin="-15" xMax="635" yMax="880">
      <contour>
        <pt x="350" y="697" on="1"/>
        <pt x="476" y="697" on="0"/>
        <pt x="634" y="524" on="0"/>
        <pt x="635" y="182" on="0"/>
        <pt x="469" y="-15" on="0"/>
        <pt x="318" y="-15" on="1"/>
        <pt x="186" y="-15" on="0"/>
        <pt x="38" y="167" on="0"/>
        <pt x="35" y="499" on="0"/>
        <pt x="202" y="697" on="0"/>
      </contour>
      <contour>
        <pt x="428" y="56" on="0"/>
        <pt x="526" y="203" on="0"/>
        <pt x="526" y="476" on="0"/>
        <pt x="430" y="628" on="0"/>
        <pt x="241" y="627" on="0"/>
        <pt x="145" y="479" on="0"/>
        <pt x="145" y="206" on="0"/>
        <pt x="239" y="56" on="0"/>
        <pt x="332" y="55" on="1"/>
      </contour>
      <contour>
        <pt x="345" y="808" on="1"/>
        <pt x="208" y="722" on="1"/>
        <pt x="188" y="733" on="0"/>
        <pt x="175" y="756" on="1"/>
        <pt x="312" y="880" on="1"/>
        <pt x="348" y="889" on="0"/>
        <pt x="382" y="880" on="1"/>
        <pt x="516" y="756" on="1"/>
        <pt x="501" y="732" on="0"/>
        <pt x="482" y="722" on="1"/>
      </contour>
    </TTGlyph>
    <TTGlyph name="Odieresis" xMin="36" yMin="-15" xMax="635" yMax="879">
      <contour>
        <pt x="496" y="790" on="0"/>
        <pt x="459" y="753" on="0"/>
        <pt x="406" y="753" on="0"/>
        <pt x="369" y="790" on="0"/>
        <pt x="369" y="842" on="0"/>
        <pt x="406" y="879" on="0"/>
        <pt x="459" y="879" on="0"/>
        <pt x="496" y="842" on="0"/>
      </contour>
      <contour>
        <pt x="278" y="753" on="0"/>
        <pt x="226" y="753" on="0"/>
        <pt x="188" y="790" on="0"/>
        <pt x="188" y="842" on="0"/>
        <pt x="226" y="879" on="0"/>
        <pt x="278" y="879" on="0"/>
        <pt x="315" y="842" on="0"/>
        <pt x="315" y="790" on="0"/>
      </contour>
      <contour>
        <pt x="241" y="627" on="0"/>
        <pt x="145" y="479" on="0"/>
        <pt x="145" y="206" on="0"/>
        <pt x="239" y="56" on="0"/>
        <pt x="332" y="55" on="1"/>
        <pt x="428" y="56" on="0"/>
        <pt x="526" y="203" on="0"/>
        <pt x="526" y="476" on="0"/>
        <pt x="430" y="628" on="0"/>
      </contour>
      <contour>
        <pt x="350" y="697" on="1"/>
        <pt x="476" y="697" on="0"/>
        <pt x="634" y="524" on="0"/>
        <pt x="635" y="182" on="0"/>
        <pt x="469" y="-15" on="0"/>
        <pt x="318" y="-15" on="1"/>
        <pt x="186" y="-15" on="0"/>
        <pt x="38" y="167" on="0"/>
        <pt x="35" y="499" on="0"/>
        <pt x="202" y="697" on="0"/>
      </contour>
    </TTGlyph>
    <TTGlyph name="Ograve" xMin="36" yMin="-15" xMax="635" yMax="898">
      <contour>
        <pt x="405" y="728" on="1"/>
        <pt x="202" y="837" on="1"/>
        <pt x="210" y="855" on="0"/>
        <pt x="255" y="895" on="0"/>
        <pt x="276" y="898" on="1"/>
        <pt x="443" y="765" on="1"/>
        <pt x="432" y="741" on="0"/>
      </contour>
      <contour>
        <pt x="350" y="697" on="1"/>
        <pt x="476" y="697" on="0"/>
        <pt x="634" y="524" on="0"/>
        <pt x="635" y="182" on="0"/>
        <pt x="469" y="-15" on="0"/>
        <pt x="318" y="-15" on="1"/>
        <pt x="186" y="-15" on="0"/>
        <pt x="38" y="167" on="0"/>
        <pt x="35" y="499" on="0"/>
        <pt x="202" y="697" on="0"/>
      </contour>
      <contour>
        <pt x="241" y="627" on="0"/>
        <pt x="145" y="479" on="0"/>
        <pt x="145" y="206" on="0"/>
        <pt x="239" y="56" on="0"/>
        <pt x="332" y="55" on="1"/>
        <pt x="428" y="56" on="0"/>
        <pt x="526" y="203" on="0"/>
        <pt x="526" y="476" on="0"/>
        <pt x="430" y="628" on="0"/>
      </contour>
    </TTGlyph>
    <TTGlyph name="Ohungarumlaut" xMin="36" yMin="-15" xMax="635" yMax="867">
      <contour>
        <pt x="241" y="627" on="0"/>
        <pt x="145" y="479" on="0"/>
        <pt x="145" y="206" on="0"/>
        <pt x="239" y="56" on="0"/>
        <pt x="332" y="55" on="1"/>
        <pt x="428" y="56" on="0"/>
        <pt x="526" y="203" on="0"/>
        <pt x="526" y="476" on="0"/>
        <pt x="430" y="628" on="0"/>
      </contour>
      <contour>
        <pt x="350" y="697" on="1"/>
        <pt x="476" y="697" on="0"/>
        <pt x="634" y="524" on="0"/>
        <pt x="635" y="182" on="0"/>
        <pt x="469" y="-15" on="0"/>
        <pt x="318" y="-15" on="1"/>
        <pt x="186" y="-15" on="0"/>
        <pt x="38" y="167" on="0"/>
        <pt x="35" y="499" on="0"/>
        <pt x="202" y="697" on="0"/>
      </contour>
      <contour>
        <pt x="455" y="806" on="1"/>
        <pt x="252" y="697" on="1"/>
        <pt x="225" y="710" on="0"/>
        <pt x="214" y="734" on="1"/>
        <pt x="381" y="867" on="1"/>
        <pt x="402" y="864" on="0"/>
        <pt x="447" y="824" on="0"/>
      </contour>
      <contour>
        <pt x="634" y="806" on="1"/>
        <pt x="431" y="697" on="1"/>
        <pt x="404" y="710" on="0"/>
        <pt x="393" y="734" on="1"/>
        <pt x="560" y="867" on="1"/>
        <pt x="581" y="864" on="0"/>
        <pt x="626" y="824" on="0"/>
      </contour>
    </TTGlyph>
    <TTGlyph name="Omacron" xMin="36" yMin="-15" xMax="635" yMax="826">
      <contour>
        <pt x="203" y="826" on="1"/>
        <pt x="486" y="826" on="1"/>
        <pt x="486" y="761" on="1"/>
        <pt x="203" y="761" on="1"/>
      </contour>
      <contour>
        <pt x="241" y="627" on="0"/>
        <pt x="145" y="479" on="0"/>
        <pt x="145" y="206" on="0"/>
        <pt x="239" y="56" on="0"/>
        <pt x="332" y="55" on="1"/>
        <pt x="428" y="56" on="0"/>
        <pt x="526" y="203" on="0"/>
        <pt x="526" y="476" on="0"/>
        <pt x="430" y="628" on="0"/>
      </contour>
      <contour>
        <pt x="350" y="697" on="1"/>
        <pt x="476" y="697" on="0"/>
        <pt x="634" y="524" on="0"/>
        <pt x="635" y="182" on="0"/>
        <pt x="469" y="-15" on="0"/>
        <pt x="318" y="-15" on="1"/>
        <pt x="186" y="-15" on="0"/>
        <pt x="38" y="167" on="0"/>
        <pt x="35" y="499" on="0"/>
        <pt x="202" y="697" on="0"/>
      </contour>
    </TTGlyph>
    <TTGlyph name="Oslash" xMin="37" yMin="-18" xMax="635" yMax="703">
      <contour>
        <pt x="318" y="-15" on="1"/>
        <pt x="249" y="-15" on="0"/>
        <pt x="194" y="11" on="1"/>
        <pt x="177" y="-18" on="1"/>
        <pt x="113" y="17" on="1"/>
        <pt x="134" y="53" on="1"/>
        <pt x="39" y="142" on="0"/>
        <pt x="35" y="499" on="0"/>
        <pt x="202" y="697" on="0"/>
        <pt x="350" y="697" on="1"/>
        <pt x="428" y="697" on="0"/>
        <pt x="489" y="664" on="1"/>
        <pt x="512" y="703" on="1"/>
        <pt x="576" y="671" on="1"/>
        <pt x="546" y="620" on="1"/>
        <pt x="634" y="529" on="0"/>
        <pt x="635" y="182" on="0"/>
        <pt x="469" y="-15" on="0"/>
      </contour>
      <contour>
        <pt x="335" y="627" on="1"/>
        <pt x="241" y="627" on="0"/>
        <pt x="145" y="479" on="0"/>
        <pt x="145" y="214" on="0"/>
        <pt x="186" y="142" on="1"/>
        <pt x="446" y="589" on="1"/>
        <pt x="402" y="627" on="0"/>
      </contour>
      <contour>
        <pt x="428" y="56" on="0"/>
        <pt x="526" y="203" on="0"/>
        <pt x="526" y="455" on="0"/>
        <pt x="492" y="526" on="1"/>
        <pt x="236" y="84" on="1"/>
        <pt x="276" y="55" on="0"/>
        <pt x="332" y="55" on="1"/>
      </contour>
    </TTGlyph>
    <TTGlyph name="Otilde" xMin="36" yMin="-15" xMax="635" yMax="881">
      <contour>
        <pt x="185" y="817" on="0"/>
        <pt x="242" y="881" on="0"/>
        <pt x="313" y="881" on="0"/>
        <pt x="395" y="824" on="0"/>
        <pt x="447" y="824" on="0"/>
        <pt x="481" y="852" on="0"/>
        <pt x="486" y="875" on="1"/>
        <pt x="517" y="866" on="1"/>
        <pt x="499" y="746" on="0"/>
        <pt x="408" y="746" on="1"/>
        <pt x="370" y="746" on="0"/>
        <pt x="284" y="798" on="0"/>
        <pt x="246" y="798" on="0"/>
        <pt x="216" y="772" on="0"/>
        <pt x="210" y="752" on="1"/>
        <pt x="177" y="764" on="1"/>
      </contour>
      <contour>
        <pt x="241" y="627" on="0"/>
        <pt x="145" y="479" on="0"/>
        <pt x="145" y="206" on="0"/>
        <pt x="239" y="56" on="0"/>
        <pt x="332" y="55" on="1"/>
        <pt x="428" y="56" on="0"/>
        <pt x="526" y="203" on="0"/>
        <pt x="526" y="476" on="0"/>
        <pt x="430" y="628" on="0"/>
      </contour>
      <contour>
        <pt x="350" y="697" on="1"/>
        <pt x="476" y="697" on="0"/>
        <pt x="634" y="524" on="0"/>
        <pt x="635" y="182" on="0"/>
        <pt x="469" y="-15" on="0"/>
        <pt x="318" y="-15" on="1"/>
        <pt x="186" y="-15" on="0"/>
        <pt x="38" y="167" on="0"/>
        <pt x="35" y="499" on="0"/>
        <pt x="202" y="697" on="0"/>
      </contour>
    </TTGlyph>
    <TTGlyph name="P" xMin="41" yMin="0" xMax="556" yMax="683">
      <contour>
        <pt x="76" y="683" on="1"/>
        <pt x="301" y="683" on="1"/>
        <pt x="424" y="683" on="0"/>
        <pt x="556" y="579" on="0"/>
        <pt x="556" y="490" on="1"/>
        <pt x="556" y="378" on="0"/>
        <pt x="405" y="262" on="0"/>
        <pt x="273" y="262" on="1"/>
        <pt x="220" y="262" on="1"/>
        <pt x="220" y="63" on="1"/>
        <pt x="302" y="57" on="1"/>
        <pt x="308" y="0" on="0"/>
        <pt x="263" y="0" on="1"/>
        <pt x="41" y="0" on="1"/>
        <pt x="41" y="0" on="0"/>
        <pt x="41" y="8" on="1"/>
        <pt x="41" y="55" on="0"/>
        <pt x="80" y="59" on="1"/>
        <pt x="115" y="61" on="1"/>
        <pt x="115" y="621" on="1"/>
        <pt x="42" y="627" on="1"/>
        <pt x="40" y="683" on="0"/>
      </contour>
      <contour>
        <pt x="220" y="318" on="1"/>
        <pt x="262" y="318" on="1"/>
        <pt x="351" y="318" on="0"/>
        <pt x="446" y="402" on="0"/>
        <pt x="446" y="556" on="0"/>
        <pt x="362" y="632" on="0"/>
        <pt x="282" y="628" on="1"/>
        <pt x="220" y="626" on="1"/>
      </contour>
    </TTGlyph>
    <TTGlyph name="Q" xMin="37" yMin="-141" xMax="638" yMax="697">
      <contour>
        <pt x="630" y="-46" on="1"/>
        <pt x="638" y="-56" on="0"/>
        <pt x="638" y="-105" on="0"/>
        <pt x="592" y="-141" on="0"/>
        <pt x="519" y="-141" on="0"/>
        <pt x="393" y="-88" on="0"/>
        <pt x="328" y="-50" on="0"/>
        <pt x="261" y="-10" on="1"/>
        <pt x="155" y="10" on="0"/>
        <pt x="38" y="186" on="0"/>
        <pt x="37" y="328" on="1"/>
        <pt x="35" y="499" on="0"/>
        <pt x="202" y="697" on="0"/>
        <pt x="350" y="697" on="1"/>
        <pt x="476" y="697" on="0"/>
        <pt x="634" y="524" on="0"/>
        <pt x="635" y="201" on="0"/>
        <pt x="504" y="11" on="0"/>
        <pt x="383" y="-10" on="1"/>
        <pt x="512" y="-62" on="0"/>
        <pt x="579" y="-62" on="1"/>
        <pt x="605" y="-62" on="0"/>
      </contour>
      <contour>
        <pt x="241" y="627" on="0"/>
        <pt x="145" y="479" on="0"/>
        <pt x="145" y="206" on="0"/>
        <pt x="239" y="56" on="0"/>
        <pt x="332" y="55" on="1"/>
        <pt x="428" y="56" on="0"/>
        <pt x="526" y="203" on="0"/>
        <pt x="526" y="476" on="0"/>
        <pt x="430" y="628" on="0"/>
      </contour>
    </TTGlyph>
    <TTGlyph name="R" xMin="41" yMin="-15" xMax="606" yMax="683">
      <contour>
        <pt x="41" y="0" on="1"/>
        <pt x="41" y="12" on="1"/>
        <pt x="41" y="34" on="0"/>
        <pt x="53" y="48" on="0"/>
        <pt x="57" y="52" on="1"/>
        <pt x="66" y="59" on="0"/>
        <pt x="80" y="59" on="1"/>
        <pt x="115" y="61" on="1"/>
        <pt x="115" y="621" on="1"/>
        <pt x="42" y="627" on="1"/>
        <pt x="40" y="683" on="0"/>
        <pt x="76" y="683" on="1"/>
        <pt x="302" y="683" on="1"/>
        <pt x="539" y="683" on="0"/>
        <pt x="539" y="509" on="1"/>
        <pt x="539" y="432" on="0"/>
        <pt x="445" y="330" on="0"/>
        <pt x="359" y="313" on="1"/>
        <pt x="419" y="194" on="0"/>
        <pt x="549" y="62" on="0"/>
        <pt x="606" y="62" on="1"/>
        <pt x="603" y="28" on="0"/>
        <pt x="558" y="-15" on="0"/>
        <pt x="481" y="-15" on="0"/>
        <pt x="429" y="38" on="1"/>
        <pt x="332" y="138" on="0"/>
        <pt x="272" y="305" on="1"/>
        <pt x="238" y="305" on="0"/>
        <pt x="220" y="306" on="1"/>
        <pt x="220" y="63" on="1"/>
        <pt x="301" y="57" on="1"/>
        <pt x="306" y="0" on="0"/>
        <pt x="263" y="0" on="1"/>
      </contour>
      <contour>
        <pt x="220" y="626" on="1"/>
        <pt x="220" y="362" on="1"/>
        <pt x="233" y="361" on="0"/>
        <pt x="256" y="361" on="1"/>
        <pt x="430" y="361" on="0"/>
        <pt x="430" y="500" on="1"/>
        <pt x="430" y="635" on="0"/>
        <pt x="282" y="628" on="1"/>
        <pt x="222" y="626" on="1"/>
      </contour>
    </TTGlyph>
    <TTGlyph name="Racute" xMin="41" yMin="-15" xMax="606" yMax="901">
      <contour>
        <pt x="41" y="0" on="1"/>
        <pt x="41" y="12" on="1"/>
        <pt x="41" y="34" on="0"/>
        <pt x="53" y="48" on="0"/>
        <pt x="57" y="52" on="1"/>
        <pt x="66" y="59" on="0"/>
        <pt x="80" y="59" on="1"/>
        <pt x="115" y="61" on="1"/>
        <pt x="115" y="621" on="1"/>
        <pt x="42" y="627" on="1"/>
        <pt x="40" y="683" on="0"/>
        <pt x="76" y="683" on="1"/>
        <pt x="302" y="683" on="1"/>
        <pt x="539" y="683" on="0"/>
        <pt x="539" y="509" on="1"/>
        <pt x="539" y="432" on="0"/>
        <pt x="445" y="330" on="0"/>
        <pt x="359" y="313" on="1"/>
        <pt x="419" y="194" on="0"/>
        <pt x="549" y="62" on="0"/>
        <pt x="606" y="62" on="1"/>
        <pt x="603" y="28" on="0"/>
        <pt x="558" y="-15" on="0"/>
        <pt x="481" y="-15" on="0"/>
        <pt x="429" y="38" on="1"/>
        <pt x="332" y="138" on="0"/>
        <pt x="272" y="305" on="1"/>
        <pt x="238" y="305" on="0"/>
        <pt x="220" y="306" on="1"/>
        <pt x="220" y="63" on="1"/>
        <pt x="301" y="57" on="1"/>
        <pt x="306" y="0" on="0"/>
        <pt x="263" y="0" on="1"/>
      </contour>
      <contour>
        <pt x="220" y="626" on="1"/>
        <pt x="220" y="362" on="1"/>
        <pt x="233" y="361" on="0"/>
        <pt x="256" y="361" on="1"/>
        <pt x="430" y="361" on="0"/>
        <pt x="430" y="500" on="1"/>
        <pt x="430" y="635" on="0"/>
        <pt x="282" y="628" on="1"/>
        <pt x="222" y="626" on="1"/>
      </contour>
      <contour>
        <pt x="449" y="840" on="1"/>
        <pt x="245" y="731" on="1"/>
        <pt x="219" y="744" on="0"/>
        <pt x="208" y="768" on="1"/>
        <pt x="374" y="901" on="1"/>
        <pt x="395" y="898" on="0"/>
        <pt x="440" y="858" on="0"/>
      </contour>
    </TTGlyph>
    <TTGlyph name="Rcaron" xMin="41" yMin="-15" xMax="606" yMax="897">
      <contour>
        <pt x="41" y="0" on="1"/>
        <pt x="41" y="12" on="1"/>
        <pt x="41" y="34" on="0"/>
        <pt x="53" y="48" on="0"/>
        <pt x="57" y="52" on="1"/>
        <pt x="66" y="59" on="0"/>
        <pt x="80" y="59" on="1"/>
        <pt x="115" y="61" on="1"/>
        <pt x="115" y="621" on="1"/>
        <pt x="42" y="627" on="1"/>
        <pt x="40" y="683" on="0"/>
        <pt x="76" y="683" on="1"/>
        <pt x="302" y="683" on="1"/>
        <pt x="539" y="683" on="0"/>
        <pt x="539" y="509" on="1"/>
        <pt x="539" y="432" on="0"/>
        <pt x="445" y="330" on="0"/>
        <pt x="359" y="313" on="1"/>
        <pt x="419" y="194" on="0"/>
        <pt x="549" y="62" on="0"/>
        <pt x="606" y="62" on="1"/>
        <pt x="603" y="28" on="0"/>
        <pt x="558" y="-15" on="0"/>
        <pt x="481" y="-15" on="0"/>
        <pt x="429" y="38" on="1"/>
        <pt x="332" y="138" on="0"/>
        <pt x="272" y="305" on="1"/>
        <pt x="238" y="305" on="0"/>
        <pt x="220" y="306" on="1"/>
        <pt x="220" y="63" on="1"/>
        <pt x="301" y="57" on="1"/>
        <pt x="306" y="0" on="0"/>
        <pt x="263" y="0" on="1"/>
      </contour>
      <contour>
        <pt x="220" y="626" on="1"/>
        <pt x="220" y="362" on="1"/>
        <pt x="233" y="361" on="0"/>
        <pt x="256" y="361" on="1"/>
        <pt x="430" y="361" on="0"/>
        <pt x="430" y="500" on="1"/>
        <pt x="430" y="635" on="0"/>
        <pt x="282" y="628" on="1"/>
        <pt x="222" y="626" on="1"/>
      </contour>
      <contour>
        <pt x="458" y="863" on="1"/>
        <pt x="325" y="739" on="1"/>
        <pt x="293" y="731" on="0"/>
        <pt x="254" y="739" on="1"/>
        <pt x="118" y="863" on="1"/>
        <pt x="131" y="885" on="0"/>
        <pt x="150" y="897" on="1"/>
        <pt x="287" y="811" on="1"/>
        <pt x="424" y="897" on="1"/>
        <pt x="443" y="887" on="0"/>
      </contour>
    </TTGlyph>
    <TTGlyph name="S" xMin="25" yMin="-15" xMax="491" yMax="697">
      <contour>
        <pt x="430" y="650" on="1"/>
        <pt x="460" y="622" on="0"/>
        <pt x="460" y="541" on="0"/>
        <pt x="414" y="502" on="0"/>
        <pt x="378" y="506" on="1"/>
        <pt x="378" y="629" on="0"/>
        <pt x="263" y="629" on="1"/>
        <pt x="211" y="629" on="0"/>
        <pt x="145" y="581" on="0"/>
        <pt x="145" y="538" on="1"/>
        <pt x="145" y="505" on="0"/>
        <pt x="164" y="484" on="1"/>
        <pt x="172" y="476" on="0"/>
        <pt x="182" y="465" on="0"/>
        <pt x="207" y="450" on="0"/>
        <pt x="219" y="442" on="0"/>
        <pt x="250" y="427" on="0"/>
        <pt x="256" y="424" on="1"/>
        <pt x="285" y="414" on="0"/>
        <pt x="306" y="403" on="1"/>
        <pt x="407" y="359" on="0"/>
        <pt x="491" y="281" on="0"/>
        <pt x="491" y="209" on="1"/>
        <pt x="491" y="112" on="0"/>
        <pt x="352" y="-15" on="0"/>
        <pt x="235" y="-15" on="1"/>
        <pt x="152" y="-15" on="0"/>
        <pt x="25" y="50" on="0"/>
        <pt x="25" y="110" on="1"/>
        <pt x="25" y="144" on="0"/>
        <pt x="69" y="187" on="0"/>
        <pt x="113" y="187" on="1"/>
        <pt x="122" y="53" on="0"/>
        <pt x="251" y="53" on="1"/>
        <pt x="320" y="53" on="0"/>
        <pt x="400" y="119" on="0"/>
        <pt x="400" y="172" on="1"/>
        <pt x="400" y="224" on="0"/>
        <pt x="356" y="256" on="1"/>
        <pt x="332" y="273" on="0"/>
        <pt x="292" y="293" on="0"/>
        <pt x="210" y="328" on="0"/>
        <pt x="169" y="348" on="0"/>
        <pt x="107" y="386" on="0"/>
        <pt x="92" y="404" on="1"/>
        <pt x="54" y="450" on="0"/>
        <pt x="54" y="510" on="1"/>
        <pt x="54" y="599" on="0"/>
        <pt x="186" y="696" on="0"/>
        <pt x="279" y="697" on="1"/>
        <pt x="374" y="699" on="0"/>
      </contour>
    </TTGlyph>
    <TTGlyph name="Sacute" xMin="25" yMin="-15" xMax="491" yMax="901">
      <contour>
        <pt x="433" y="840" on="1"/>
        <pt x="229" y="731" on="1"/>
        <pt x="203" y="744" on="0"/>
        <pt x="192" y="768" on="1"/>
        <pt x="358" y="901" on="1"/>
        <pt x="379" y="898" on="0"/>
        <pt x="424" y="858" on="0"/>
      </contour>
      <contour>
        <pt x="430" y="650" on="1"/>
        <pt x="460" y="622" on="0"/>
        <pt x="460" y="541" on="0"/>
        <pt x="414" y="502" on="0"/>
        <pt x="378" y="506" on="1"/>
        <pt x="378" y="629" on="0"/>
        <pt x="263" y="629" on="1"/>
        <pt x="211" y="629" on="0"/>
        <pt x="145" y="581" on="0"/>
        <pt x="145" y="538" on="1"/>
        <pt x="145" y="505" on="0"/>
        <pt x="164" y="484" on="1"/>
        <pt x="172" y="476" on="0"/>
        <pt x="182" y="465" on="0"/>
        <pt x="207" y="450" on="0"/>
        <pt x="219" y="442" on="0"/>
        <pt x="250" y="427" on="0"/>
        <pt x="256" y="424" on="1"/>
        <pt x="285" y="414" on="0"/>
        <pt x="306" y="403" on="1"/>
        <pt x="407" y="359" on="0"/>
        <pt x="491" y="281" on="0"/>
        <pt x="491" y="209" on="1"/>
        <pt x="491" y="112" on="0"/>
        <pt x="352" y="-15" on="0"/>
        <pt x="235" y="-15" on="1"/>
        <pt x="152" y="-15" on="0"/>
        <pt x="25" y="50" on="0"/>
        <pt x="25" y="110" on="1"/>
        <pt x="25" y="144" on="0"/>
        <pt x="69" y="187" on="0"/>
        <pt x="113" y="187" on="1"/>
        <pt x="122" y="53" on="0"/>
        <pt x="251" y="53" on="1"/>
        <pt x="320" y="53" on="0"/>
        <pt x="400" y="119" on="0"/>
        <pt x="400" y="172" on="1"/>
        <pt x="400" y="224" on="0"/>
        <pt x="356" y="256" on="1"/>
        <pt x="332" y="273" on="0"/>
        <pt x="292" y="293" on="0"/>
        <pt x="210" y="328" on="0"/>
        <pt x="169" y="348" on="0"/>
        <pt x="107" y="386" on="0"/>
        <pt x="92" y="404" on="1"/>
        <pt x="54" y="450" on="0"/>
        <pt x="54" y="510" on="1"/>
        <pt x="54" y="599" on="0"/>
        <pt x="186" y="696" on="0"/>
        <pt x="279" y="697" on="1"/>
        <pt x="374" y="699" on="0"/>
      </contour>
    </TTGlyph>
    <TTGlyph name="Scaron" xMin="25" yMin="-15" xMax="491" yMax="897">
      <contour>
        <pt x="491" y="209" on="1"/>
        <pt x="491" y="112" on="0"/>
        <pt x="352" y="-15" on="0"/>
        <pt x="235" y="-15" on="1"/>
        <pt x="152" y="-15" on="0"/>
        <pt x="25" y="50" on="0"/>
        <pt x="25" y="110" on="1"/>
        <pt x="25" y="144" on="0"/>
        <pt x="69" y="187" on="0"/>
        <pt x="113" y="187" on="1"/>
        <pt x="122" y="53" on="0"/>
        <pt x="251" y="53" on="1"/>
        <pt x="320" y="53" on="0"/>
        <pt x="400" y="119" on="0"/>
        <pt x="400" y="172" on="1"/>
        <pt x="400" y="224" on="0"/>
        <pt x="356" y="256" on="1"/>
        <pt x="332" y="273" on="0"/>
        <pt x="292" y="293" on="0"/>
        <pt x="210" y="328" on="0"/>
        <pt x="169" y="348" on="0"/>
        <pt x="107" y="386" on="0"/>
        <pt x="92" y="404" on="1"/>
        <pt x="54" y="450" on="0"/>
        <pt x="54" y="510" on="1"/>
        <pt x="54" y="599" on="0"/>
        <pt x="186" y="696" on="0"/>
        <pt x="279" y="697" on="1"/>
        <pt x="374" y="699" on="0"/>
        <pt x="430" y="650" on="1"/>
        <pt x="460" y="622" on="0"/>
        <pt x="460" y="541" on="0"/>
        <pt x="414" y="502" on="0"/>
        <pt x="378" y="506" on="1"/>
        <pt x="378" y="629" on="0"/>
        <pt x="263" y="629" on="1"/>
        <pt x="211" y="629" on="0"/>
        <pt x="145" y="581" on="0"/>
        <pt x="145" y="538" on="1"/>
        <pt x="145" y="505" on="0"/>
        <pt x="164" y="484" on="1"/>
        <pt x="172" y="476" on="0"/>
        <pt x="182" y="465" on="0"/>
        <pt x="207" y="450" on="0"/>
        <pt x="219" y="442" on="0"/>
        <pt x="250" y="427" on="0"/>
        <pt x="256" y="424" on="1"/>
        <pt x="285" y="414" on="0"/>
        <pt x="306" y="403" on="1"/>
        <pt x="407" y="359" on="0"/>
        <pt x="491" y="281" on="0"/>
      </contour>
      <contour>
        <pt x="442" y="863" on="1"/>
        <pt x="308" y="739" on="1"/>
        <pt x="277" y="731" on="0"/>
        <pt x="238" y="739" on="1"/>
        <pt x="102" y="863" on="1"/>
        <pt x="113" y="885" on="0"/>
        <pt x="134" y="897" on="1"/>
        <pt x="271" y="811" on="1"/>
        <pt x="408" y="897" on="1"/>
        <pt x="427" y="887" on="0"/>
      </contour>
    </TTGlyph>
    <TTGlyph name="Scircumflex" xMin="25" yMin="-15" xMax="491" yMax="880">
      <contour>
        <pt x="491" y="209" on="1"/>
        <pt x="491" y="112" on="0"/>
        <pt x="352" y="-15" on="0"/>
        <pt x="235" y="-15" on="1"/>
        <pt x="152" y="-15" on="0"/>
        <pt x="25" y="50" on="0"/>
        <pt x="25" y="110" on="1"/>
        <pt x="25" y="144" on="0"/>
        <pt x="69" y="187" on="0"/>
        <pt x="113" y="187" on="1"/>
        <pt x="122" y="53" on="0"/>
        <pt x="251" y="53" on="1"/>
        <pt x="320" y="53" on="0"/>
        <pt x="400" y="119" on="0"/>
        <pt x="400" y="172" on="1"/>
        <pt x="400" y="224" on="0"/>
        <pt x="356" y="256" on="1"/>
        <pt x="332" y="273" on="0"/>
        <pt x="292" y="293" on="0"/>
        <pt x="210" y="328" on="0"/>
        <pt x="169" y="348" on="0"/>
        <pt x="107" y="386" on="0"/>
        <pt x="92" y="404" on="1"/>
        <pt x="54" y="450" on="0"/>
        <pt x="54" y="510" on="1"/>
        <pt x="54" y="599" on="0"/>
        <pt x="186" y="696" on="0"/>
        <pt x="279" y="697" on="1"/>
        <pt x="374" y="699" on="0"/>
        <pt x="430" y="650" on="1"/>
        <pt x="460" y="622" on="0"/>
        <pt x="460" y="541" on="0"/>
        <pt x="414" y="502" on="0"/>
        <pt x="378" y="506" on="1"/>
        <pt x="378" y="629" on="0"/>
        <pt x="263" y="629" on="1"/>
        <pt x="211" y="629" on="0"/>
        <pt x="145" y="581" on="0"/>
        <pt x="145" y="538" on="1"/>
        <pt x="145" y="505" on="0"/>
        <pt x="164" y="484" on="1"/>
        <pt x="172" y="476" on="0"/>
        <pt x="182" y="465" on="0"/>
        <pt x="207" y="450" on="0"/>
        <pt x="219" y="442" on="0"/>
        <pt x="250" y="427" on="0"/>
        <pt x="256" y="424" on="1"/>
        <pt x="285" y="414" on="0"/>
        <pt x="306" y="403" on="1"/>
        <pt x="407" y="359" on="0"/>
        <pt x="491" y="281" on="0"/>
      </contour>
      <contour>
        <pt x="273" y="809" on="1"/>
        <pt x="135" y="722" on="1"/>
        <pt x="116" y="734" on="0"/>
        <pt x="103" y="756" on="1"/>
        <pt x="239" y="880" on="1"/>
        <pt x="275" y="889" on="0"/>
        <pt x="310" y="880" on="1"/>
        <pt x="443" y="756" on="1"/>
        <pt x="429" y="733" on="0"/>
        <pt x="410" y="722" on="1"/>
      </contour>
    </TTGlyph>
    <TTGlyph name="T" xMin="20" yMin="0" xMax="603" yMax="682">
      <contour>
        <pt x="20" y="682" on="1"/>
        <pt x="603" y="682" on="1"/>
        <pt x="603" y="549" on="1"/>
        <pt x="603" y="521" on="0"/>
        <pt x="580" y="515" on="1"/>
        <pt x="565" y="511" on="0"/>
        <pt x="547" y="511" on="1"/>
        <pt x="538" y="616" on="1"/>
        <pt x="364" y="616" on="1"/>
        <pt x="364" y="63" on="1"/>
        <pt x="444" y="57" on="1"/>
        <pt x="450" y="0" on="0"/>
        <pt x="406" y="0" on="1"/>
        <pt x="178" y="0" on="1"/>
        <pt x="178" y="8" on="1"/>
        <pt x="178" y="55" on="0"/>
        <pt x="217" y="59" on="1"/>
        <pt x="260" y="61" on="1"/>
        <pt x="260" y="616" on="1"/>
        <pt x="85" y="616" on="1"/>
        <pt x="77" y="511" on="1"/>
        <pt x="36" y="511" on="0"/>
        <pt x="26" y="526" on="1"/>
        <pt x="20" y="535" on="0"/>
        <pt x="20" y="549" on="1"/>
      </contour>
    </TTGlyph>
    <TTGlyph name="Tbar" xMin="20" yMin="0" xMax="603" yMax="826">
      <contour>
        <pt x="20" y="682" on="1"/>
        <pt x="603" y="682" on="1"/>
        <pt x="603" y="549" on="1"/>
        <pt x="603" y="521" on="0"/>
        <pt x="580" y="515" on="1"/>
        <pt x="565" y="511" on="0"/>
        <pt x="547" y="511" on="1"/>
        <pt x="538" y="616" on="1"/>
        <pt x="364" y="616" on="1"/>
        <pt x="364" y="63" on="1"/>
        <pt x="444" y="57" on="1"/>
        <pt x="450" y="0" on="0"/>
        <pt x="406" y="0" on="1"/>
        <pt x="178" y="0" on="1"/>
        <pt x="178" y="8" on="1"/>
        <pt x="178" y="55" on="0"/>
        <pt x="217" y="59" on="1"/>
        <pt x="260" y="61" on="1"/>
        <pt x="260" y="616" on="1"/>
        <pt x="85" y="616" on="1"/>
        <pt x="77" y="511" on="1"/>
        <pt x="36" y="511" on="0"/>
        <pt x="26" y="526" on="1"/>
        <pt x="20" y="535" on="0"/>
        <pt x="20" y="549" on="1"/>
      </contour>
      <contour>
        <pt x="458" y="826" on="1"/>
        <pt x="458" y="761" on="1"/>
        <pt x="175" y="761" on="1"/>
        <pt x="175" y="826" on="1"/>
      </contour>
    </TTGlyph>
    <TTGlyph name="Tcaron" xMin="20" yMin="0" xMax="603" yMax="897">
      <contour>
        <pt x="20" y="682" on="1"/>
        <pt x="603" y="682" on="1"/>
        <pt x="603" y="549" on="1"/>
        <pt x="603" y="521" on="0"/>
        <pt x="580" y="515" on="1"/>
        <pt x="565" y="511" on="0"/>
        <pt x="547" y="511" on="1"/>
        <pt x="538" y="616" on="1"/>
        <pt x="364" y="616" on="1"/>
        <pt x="364" y="63" on="1"/>
        <pt x="444" y="57" on="1"/>
        <pt x="450" y="0" on="0"/>
        <pt x="406" y="0" on="1"/>
        <pt x="178" y="0" on="1"/>
        <pt x="178" y="8" on="1"/>
        <pt x="178" y="55" on="0"/>
        <pt x="217" y="59" on="1"/>
        <pt x="260" y="61" on="1"/>
        <pt x="260" y="616" on="1"/>
        <pt x="85" y="616" on="1"/>
        <pt x="77" y="511" on="1"/>
        <pt x="36" y="511" on="0"/>
        <pt x="26" y="526" on="1"/>
        <pt x="20" y="535" on="0"/>
        <pt x="20" y="549" on="1"/>
      </contour>
      <contour>
        <pt x="486" y="863" on="1"/>
        <pt x="353" y="739" on="1"/>
        <pt x="318" y="730" on="0"/>
        <pt x="282" y="739" on="1"/>
        <pt x="146" y="863" on="1"/>
        <pt x="159" y="885" on="0"/>
        <pt x="178" y="897" on="1"/>
        <pt x="316" y="810" on="1"/>
        <pt x="453" y="897" on="1"/>
        <pt x="472" y="886" on="0"/>
      </contour>
    </TTGlyph>
    <TTGlyph name="Thorn" xMin="41" yMin="0" xMax="549" yMax="683">
      <contour>
        <pt x="220" y="557" on="1"/>
        <pt x="288" y="557" on="1"/>
        <pt x="414" y="557" on="0"/>
        <pt x="549" y="451" on="0"/>
        <pt x="549" y="254" on="0"/>
        <pt x="398" y="145" on="0"/>
        <pt x="266" y="145" on="1"/>
        <pt x="220" y="145" on="1"/>
        <pt x="220" y="63" on="1"/>
        <pt x="221" y="63" on="1"/>
        <pt x="293" y="57" on="1"/>
        <pt x="299" y="0" on="0"/>
        <pt x="254" y="0" on="1"/>
        <pt x="41" y="0" on="1"/>
        <pt x="41" y="8" on="1"/>
        <pt x="41" y="55" on="0"/>
        <pt x="80" y="59" on="1"/>
        <pt x="115" y="61" on="1"/>
        <pt x="115" y="619" on="1"/>
        <pt x="43" y="625" on="1"/>
        <pt x="37" y="683" on="0"/>
        <pt x="81" y="683" on="1"/>
        <pt x="295" y="683" on="1"/>
        <pt x="295" y="676" on="1"/>
        <pt x="295" y="640" on="0"/>
        <pt x="274" y="628" on="1"/>
        <pt x="266" y="624" on="0"/>
        <pt x="256" y="624" on="1"/>
        <pt x="220" y="621" on="1"/>
      </contour>
      <contour>
        <pt x="270" y="501" on="1"/>
        <pt x="220" y="501" on="1"/>
        <pt x="220" y="201" on="1"/>
        <pt x="250" y="201" on="1"/>
        <pt x="342" y="201" on="0"/>
        <pt x="439" y="280" on="0"/>
        <pt x="439" y="354" on="1"/>
        <pt x="439" y="501" on="0"/>
      </contour>
    </TTGlyph>
    <TTGlyph name="U" xMin="16" yMin="-15" xMax="646" yMax="682">
      <contour>
        <pt x="468" y="682" on="1"/>
        <pt x="646" y="682" on="1"/>
        <pt x="646" y="682" on="0"/>
        <pt x="646" y="674" on="1"/>
        <pt x="646" y="627" on="0"/>
        <pt x="607" y="623" on="1"/>
        <pt x="572" y="621" on="1"/>
        <pt x="572" y="276" on="1"/>
        <pt x="572" y="-15" on="0"/>
        <pt x="323" y="-15" on="1"/>
        <pt x="206" y="-15" on="0"/>
        <pt x="88" y="122" on="0"/>
        <pt x="88" y="272" on="1"/>
        <pt x="88" y="619" on="1"/>
        <pt x="16" y="625" on="1"/>
        <pt x="10" y="682" on="0"/>
        <pt x="54" y="682" on="1"/>
        <pt x="267" y="682" on="1"/>
        <pt x="267" y="674" on="1"/>
        <pt x="267" y="627" on="0"/>
        <pt x="228" y="623" on="1"/>
        <pt x="193" y="621" on="1"/>
        <pt x="192" y="264" on="1"/>
        <pt x="192" y="155" on="0"/>
        <pt x="261" y="55" on="0"/>
        <pt x="338" y="55" on="1"/>
        <pt x="502" y="55" on="0"/>
        <pt x="502" y="255" on="1"/>
        <pt x="501" y="619" on="1"/>
        <pt x="430" y="625" on="1"/>
        <pt x="424" y="682" on="0"/>
      </contour>
    </TTGlyph>
    <TTGlyph name="Uacute" xMin="16" yMin="-15" xMax="646" yMax="901">
      <contour>
        <pt x="494" y="840" on="1"/>
        <pt x="291" y="731" on="1"/>
        <pt x="265" y="743" on="0"/>
        <pt x="254" y="768" on="1"/>
        <pt x="420" y="901" on="1"/>
        <pt x="441" y="898" on="0"/>
        <pt x="486" y="858" on="0"/>
      </contour>
      <contour>
        <pt x="468" y="682" on="1"/>
        <pt x="646" y="682" on="1"/>
        <pt x="646" y="682" on="0"/>
        <pt x="646" y="674" on="1"/>
        <pt x="646" y="627" on="0"/>
        <pt x="607" y="623" on="1"/>
        <pt x="572" y="621" on="1"/>
        <pt x="572" y="276" on="1"/>
        <pt x="572" y="-15" on="0"/>
        <pt x="323" y="-15" on="1"/>
        <pt x="206" y="-15" on="0"/>
        <pt x="88" y="122" on="0"/>
        <pt x="88" y="272" on="1"/>
        <pt x="88" y="619" on="1"/>
        <pt x="16" y="625" on="1"/>
        <pt x="10" y="682" on="0"/>
        <pt x="54" y="682" on="1"/>
        <pt x="267" y="682" on="1"/>
        <pt x="267" y="674" on="1"/>
        <pt x="267" y="627" on="0"/>
        <pt x="228" y="623" on="1"/>
        <pt x="193" y="621" on="1"/>
        <pt x="192" y="264" on="1"/>
        <pt x="192" y="155" on="0"/>
        <pt x="261" y="55" on="0"/>
        <pt x="338" y="55" on="1"/>
        <pt x="502" y="55" on="0"/>
        <pt x="502" y="255" on="1"/>
        <pt x="501" y="619" on="1"/>
        <pt x="430" y="625" on="1"/>
        <pt x="424" y="682" on="0"/>
      </contour>
    </TTGlyph>
    <TTGlyph name="Ubreve" xMin="16" yMin="-15" xMax="646" yMax="896">
      <contour>
        <pt x="468" y="682" on="1"/>
        <pt x="646" y="682" on="1"/>
        <pt x="646" y="682" on="0"/>
        <pt x="646" y="674" on="1"/>
        <pt x="646" y="627" on="0"/>
        <pt x="607" y="623" on="1"/>
        <pt x="572" y="621" on="1"/>
        <pt x="572" y="276" on="1"/>
        <pt x="572" y="-15" on="0"/>
        <pt x="323" y="-15" on="1"/>
        <pt x="206" y="-15" on="0"/>
        <pt x="88" y="122" on="0"/>
        <pt x="88" y="272" on="1"/>
        <pt x="88" y="619" on="1"/>
        <pt x="16" y="625" on="1"/>
        <pt x="10" y="682" on="0"/>
        <pt x="54" y="682" on="1"/>
        <pt x="267" y="682" on="1"/>
        <pt x="267" y="674" on="1"/>
        <pt x="267" y="627" on="0"/>
        <pt x="228" y="623" on="1"/>
        <pt x="193" y="621" on="1"/>
        <pt x="192" y="264" on="1"/>
        <pt x="192" y="155" on="0"/>
        <pt x="261" y="55" on="0"/>
        <pt x="338" y="55" on="1"/>
        <pt x="502" y="55" on="0"/>
        <pt x="502" y="255" on="1"/>
        <pt x="501" y="619" on="1"/>
        <pt x="430" y="625" on="1"/>
        <pt x="424" y="682" on="0"/>
      </contour>
      <contour>
        <pt x="336" y="815" on="1"/>
        <pt x="427" y="815" on="0"/>
        <pt x="461" y="895" on="1"/>
        <pt x="496" y="877" on="1"/>
        <pt x="488" y="821" on="0"/>
        <pt x="406" y="738" on="0"/>
        <pt x="264" y="738" on="0"/>
        <pt x="182" y="821" on="0"/>
        <pt x="174" y="877" on="1"/>
        <pt x="209" y="896" on="1"/>
        <pt x="222" y="866" on="0"/>
        <pt x="284" y="815" on="0"/>
      </contour>
    </TTGlyph>
    <TTGlyph name="Ucircumflex" xMin="16" yMin="-15" xMax="646" yMax="880">
      <contour>
        <pt x="468" y="682" on="1"/>
        <pt x="646" y="682" on="1"/>
        <pt x="646" y="682" on="0"/>
        <pt x="646" y="674" on="1"/>
        <pt x="646" y="627" on="0"/>
        <pt x="607" y="623" on="1"/>
        <pt x="572" y="621" on="1"/>
        <pt x="572" y="276" on="1"/>
        <pt x="572" y="-15" on="0"/>
        <pt x="323" y="-15" on="1"/>
        <pt x="206" y="-15" on="0"/>
        <pt x="88" y="122" on="0"/>
        <pt x="88" y="272" on="1"/>
        <pt x="88" y="619" on="1"/>
        <pt x="16" y="625" on="1"/>
        <pt x="10" y="682" on="0"/>
        <pt x="54" y="682" on="1"/>
        <pt x="267" y="682" on="1"/>
        <pt x="267" y="674" on="1"/>
        <pt x="267" y="627" on="0"/>
        <pt x="228" y="623" on="1"/>
        <pt x="193" y="621" on="1"/>
        <pt x="192" y="264" on="1"/>
        <pt x="192" y="155" on="0"/>
        <pt x="261" y="55" on="0"/>
        <pt x="338" y="55" on="1"/>
        <pt x="502" y="55" on="0"/>
        <pt x="502" y="255" on="1"/>
        <pt x="501" y="619" on="1"/>
        <pt x="430" y="625" on="1"/>
        <pt x="424" y="682" on="0"/>
      </contour>
      <contour>
        <pt x="334" y="808" on="1"/>
        <pt x="197" y="722" on="1"/>
        <pt x="177" y="733" on="0"/>
        <pt x="164" y="756" on="1"/>
        <pt x="301" y="880" on="1"/>
        <pt x="337" y="889" on="0"/>
        <pt x="371" y="880" on="1"/>
        <pt x="505" y="756" on="1"/>
        <pt x="490" y="732" on="0"/>
        <pt x="471" y="722" on="1"/>
      </contour>
    </TTGlyph>
    <TTGlyph name="Udieresis" xMin="16" yMin="-15" xMax="646" yMax="879">
      <contour>
        <pt x="485" y="790" on="0"/>
        <pt x="448" y="753" on="0"/>
        <pt x="395" y="753" on="0"/>
        <pt x="358" y="790" on="0"/>
        <pt x="358" y="842" on="0"/>
        <pt x="396" y="879" on="0"/>
        <pt x="448" y="879" on="0"/>
        <pt x="485" y="842" on="0"/>
      </contour>
      <contour>
        <pt x="267" y="753" on="0"/>
        <pt x="215" y="753" on="0"/>
        <pt x="177" y="790" on="0"/>
        <pt x="177" y="842" on="0"/>
        <pt x="215" y="879" on="0"/>
        <pt x="267" y="879" on="0"/>
        <pt x="304" y="842" on="0"/>
        <pt x="304" y="790" on="0"/>
      </contour>
      <contour>
        <pt x="468" y="682" on="1"/>
        <pt x="646" y="682" on="1"/>
        <pt x="646" y="674" on="1"/>
        <pt x="646" y="627" on="0"/>
        <pt x="607" y="623" on="1"/>
        <pt x="572" y="621" on="1"/>
        <pt x="572" y="276" on="1"/>
        <pt x="572" y="-15" on="0"/>
        <pt x="323" y="-15" on="1"/>
        <pt x="206" y="-15" on="0"/>
        <pt x="88" y="122" on="0"/>
        <pt x="88" y="272" on="1"/>
        <pt x="88" y="619" on="1"/>
        <pt x="16" y="625" on="1"/>
        <pt x="10" y="682" on="0"/>
        <pt x="54" y="682" on="1"/>
        <pt x="267" y="682" on="1"/>
        <pt x="267" y="674" on="1"/>
        <pt x="267" y="627" on="0"/>
        <pt x="228" y="623" on="1"/>
        <pt x="193" y="621" on="1"/>
        <pt x="192" y="264" on="1"/>
        <pt x="192" y="155" on="0"/>
        <pt x="261" y="55" on="0"/>
        <pt x="338" y="55" on="1"/>
        <pt x="502" y="55" on="0"/>
        <pt x="502" y="255" on="1"/>
        <pt x="501" y="619" on="1"/>
        <pt x="430" y="625" on="1"/>
        <pt x="424" y="682" on="0"/>
      </contour>
    </TTGlyph>
    <TTGlyph name="Ugrave" xMin="16" yMin="-15" xMax="646" yMax="898">
      <contour>
        <pt x="394" y="728" on="1"/>
        <pt x="191" y="837" on="1"/>
        <pt x="199" y="855" on="0"/>
        <pt x="244" y="895" on="0"/>
        <pt x="265" y="898" on="1"/>
        <pt x="432" y="765" on="1"/>
        <pt x="421" y="741" on="0"/>
      </contour>
      <contour>
        <pt x="468" y="682" on="1"/>
        <pt x="646" y="682" on="1"/>
        <pt x="646" y="682" on="0"/>
        <pt x="646" y="674" on="1"/>
        <pt x="646" y="627" on="0"/>
        <pt x="607" y="623" on="1"/>
        <pt x="572" y="621" on="1"/>
        <pt x="572" y="276" on="1"/>
        <pt x="572" y="-15" on="0"/>
        <pt x="323" y="-15" on="1"/>
        <pt x="206" y="-15" on="0"/>
        <pt x="88" y="122" on="0"/>
        <pt x="88" y="272" on="1"/>
        <pt x="88" y="619" on="1"/>
        <pt x="16" y="625" on="1"/>
        <pt x="10" y="682" on="0"/>
        <pt x="54" y="682" on="1"/>
        <pt x="267" y="682" on="1"/>
        <pt x="267" y="674" on="1"/>
        <pt x="267" y="627" on="0"/>
        <pt x="228" y="623" on="1"/>
        <pt x="193" y="621" on="1"/>
        <pt x="192" y="264" on="1"/>
        <pt x="192" y="155" on="0"/>
        <pt x="261" y="55" on="0"/>
        <pt x="338" y="55" on="1"/>
        <pt x="502" y="55" on="0"/>
        <pt x="502" y="255" on="1"/>
        <pt x="501" y="619" on="1"/>
        <pt x="430" y="625" on="1"/>
        <pt x="424" y="682" on="0"/>
      </contour>
    </TTGlyph>
    <TTGlyph name="Uhungarumlaut" xMin="16" yMin="-15" xMax="646" yMax="867">
      <contour>
        <pt x="468" y="682" on="1"/>
        <pt x="646" y="682" on="1"/>
        <pt x="646" y="682" on="0"/>
        <pt x="646" y="674" on="1"/>
        <pt x="646" y="627" on="0"/>
        <pt x="607" y="623" on="1"/>
        <pt x="572" y="621" on="1"/>
        <pt x="572" y="276" on="1"/>
        <pt x="572" y="-15" on="0"/>
        <pt x="323" y="-15" on="1"/>
        <pt x="206" y="-15" on="0"/>
        <pt x="88" y="122" on="0"/>
        <pt x="88" y="272" on="1"/>
        <pt x="88" y="619" on="1"/>
        <pt x="16" y="625" on="1"/>
        <pt x="10" y="682" on="0"/>
        <pt x="54" y="682" on="1"/>
        <pt x="267" y="682" on="1"/>
        <pt x="267" y="674" on="1"/>
        <pt x="267" y="627" on="0"/>
        <pt x="228" y="623" on="1"/>
        <pt x="193" y="621" on="1"/>
        <pt x="192" y="264" on="1"/>
        <pt x="192" y="155" on="0"/>
        <pt x="261" y="55" on="0"/>
        <pt x="338" y="55" on="1"/>
        <pt x="502" y="55" on="0"/>
        <pt x="502" y="255" on="1"/>
        <pt x="501" y="619" on="1"/>
        <pt x="430" y="625" on="1"/>
        <pt x="424" y="682" on="0"/>
      </contour>
      <contour>
        <pt x="444" y="806" on="1"/>
        <pt x="241" y="697" on="1"/>
        <pt x="214" y="710" on="0"/>
        <pt x="203" y="734" on="1"/>
        <pt x="370" y="867" on="1"/>
        <pt x="391" y="864" on="0"/>
        <pt x="436" y="824" on="0"/>
      </contour>
      <contour>
        <pt x="623" y="806" on="1"/>
        <pt x="420" y="697" on="1"/>
        <pt x="393" y="710" on="0"/>
        <pt x="382" y="734" on="1"/>
        <pt x="549" y="867" on="1"/>
        <pt x="570" y="864" on="0"/>
        <pt x="615" y="824" on="0"/>
      </contour>
    </TTGlyph>
    <TTGlyph name="Umacron" xMin="16" yMin="-15" xMax="646" yMax="826">
      <contour>
        <pt x="193" y="826" on="1"/>
        <pt x="476" y="826" on="1"/>
        <pt x="476" y="761" on="1"/>
        <pt x="193" y="761" on="1"/>
      </contour>
      <contour>
        <pt x="468" y="682" on="1"/>
        <pt x="646" y="682" on="1"/>
        <pt x="646" y="682" on="0"/>
        <pt x="646" y="674" on="1"/>
        <pt x="646" y="627" on="0"/>
        <pt x="607" y="623" on="1"/>
        <pt x="572" y="621" on="1"/>
        <pt x="572" y="276" on="1"/>
        <pt x="572" y="-15" on="0"/>
        <pt x="323" y="-15" on="1"/>
        <pt x="206" y="-15" on="0"/>
        <pt x="88" y="122" on="0"/>
        <pt x="88" y="272" on="1"/>
        <pt x="88" y="619" on="1"/>
        <pt x="16" y="625" on="1"/>
        <pt x="10" y="682" on="0"/>
        <pt x="54" y="682" on="1"/>
        <pt x="267" y="682" on="1"/>
        <pt x="267" y="674" on="1"/>
        <pt x="267" y="627" on="0"/>
        <pt x="228" y="623" on="1"/>
        <pt x="193" y="621" on="1"/>
        <pt x="192" y="264" on="1"/>
        <pt x="192" y="155" on="0"/>
        <pt x="261" y="55" on="0"/>
        <pt x="338" y="55" on="1"/>
        <pt x="502" y="55" on="0"/>
        <pt x="502" y="255" on="1"/>
        <pt x="501" y="619" on="1"/>
        <pt x="430" y="625" on="1"/>
        <pt x="424" y="682" on="0"/>
      </contour>
    </TTGlyph>
    <TTGlyph name="Uogonek" xMin="16" yMin="-190" xMax="646" yMax="682">
      <contour>
        <pt x="468" y="682" on="1"/>
        <pt x="646" y="682" on="1"/>
        <pt x="646" y="682" on="0"/>
        <pt x="646" y="674" on="1"/>
        <pt x="646" y="627" on="0"/>
        <pt x="607" y="623" on="1"/>
        <pt x="572" y="621" on="1"/>
        <pt x="572" y="276" on="1"/>
        <pt x="572" y="37" on="0"/>
        <pt x="406" y="-6" on="1"/>
        <pt x="341" y="-35" on="0"/>
        <pt x="341" y="-92" on="1"/>
        <pt x="341" y="-115" on="0"/>
        <pt x="366" y="-140" on="0"/>
        <pt x="412" y="-140" on="0"/>
        <pt x="440" y="-119" on="1"/>
        <pt x="444" y="-122" on="0"/>
        <pt x="449" y="-148" on="0"/>
        <pt x="447" y="-156" on="1"/>
        <pt x="423" y="-190" on="0"/>
        <pt x="322" y="-190" on="0"/>
        <pt x="271" y="-145" on="0"/>
        <pt x="271" y="-111" on="1"/>
        <pt x="271" y="-54" on="0"/>
        <pt x="324" y="-15" on="1"/>
        <pt x="323" y="-15" on="1"/>
        <pt x="206" y="-15" on="0"/>
        <pt x="88" y="122" on="0"/>
        <pt x="88" y="272" on="1"/>
        <pt x="88" y="619" on="1"/>
        <pt x="16" y="625" on="1"/>
        <pt x="10" y="682" on="0"/>
        <pt x="54" y="682" on="1"/>
        <pt x="267" y="682" on="1"/>
        <pt x="267" y="674" on="1"/>
        <pt x="267" y="627" on="0"/>
        <pt x="228" y="623" on="1"/>
        <pt x="193" y="621" on="1"/>
        <pt x="192" y="264" on="1"/>
        <pt x="192" y="155" on="0"/>
        <pt x="261" y="55" on="0"/>
        <pt x="338" y="55" on="1"/>
        <pt x="502" y="55" on="0"/>
        <pt x="502" y="255" on="1"/>
        <pt x="501" y="619" on="1"/>
        <pt x="430" y="625" on="1"/>
        <pt x="424" y="682" on="0"/>
      </contour>
    </TTGlyph>
    <TTGlyph name="Uring" xMin="16" yMin="-15" xMax="646" yMax="908">
      <contour>
        <pt x="357" y="861" on="0"/>
        <pt x="317" y="861" on="0"/>
        <pt x="294" y="838" on="0"/>
        <pt x="294" y="798" on="0"/>
        <pt x="317" y="774" on="0"/>
        <pt x="357" y="774" on="0"/>
        <pt x="381" y="798" on="0"/>
        <pt x="381" y="838" on="0"/>
      </contour>
      <contour>
        <pt x="244" y="857" on="0"/>
        <pt x="296" y="908" on="0"/>
        <pt x="381" y="908" on="0"/>
        <pt x="432" y="859" on="0"/>
        <pt x="430" y="779" on="0"/>
        <pt x="377" y="729" on="0"/>
        <pt x="294" y="729" on="0"/>
        <pt x="244" y="777" on="0"/>
      </contour>
      <contour>
        <pt x="468" y="682" on="1"/>
        <pt x="646" y="682" on="1"/>
        <pt x="646" y="674" on="1"/>
        <pt x="646" y="627" on="0"/>
        <pt x="607" y="623" on="1"/>
        <pt x="572" y="621" on="1"/>
        <pt x="572" y="276" on="1"/>
        <pt x="572" y="-15" on="0"/>
        <pt x="323" y="-15" on="1"/>
        <pt x="206" y="-15" on="0"/>
        <pt x="88" y="122" on="0"/>
        <pt x="88" y="272" on="1"/>
        <pt x="88" y="619" on="1"/>
        <pt x="16" y="625" on="1"/>
        <pt x="10" y="682" on="0"/>
        <pt x="54" y="682" on="1"/>
        <pt x="267" y="682" on="1"/>
        <pt x="267" y="674" on="1"/>
        <pt x="267" y="627" on="0"/>
        <pt x="228" y="623" on="1"/>
        <pt x="193" y="621" on="1"/>
        <pt x="192" y="264" on="1"/>
        <pt x="192" y="155" on="0"/>
        <pt x="261" y="55" on="0"/>
        <pt x="338" y="55" on="1"/>
        <pt x="502" y="55" on="0"/>
        <pt x="502" y="255" on="1"/>
        <pt x="501" y="619" on="1"/>
        <pt x="430" y="625" on="1"/>
        <pt x="424" y="682" on="0"/>
      </contour>
    </TTGlyph>
    <TTGlyph name="Utilde" xMin="16" yMin="-15" xMax="646" yMax="881">
      <contour>
        <pt x="468" y="682" on="1"/>
        <pt x="646" y="682" on="1"/>
        <pt x="646" y="682" on="0"/>
        <pt x="646" y="674" on="1"/>
        <pt x="646" y="627" on="0"/>
        <pt x="607" y="623" on="1"/>
        <pt x="572" y="621" on="1"/>
        <pt x="572" y="276" on="1"/>
        <pt x="572" y="-15" on="0"/>
        <pt x="323" y="-15" on="1"/>
        <pt x="206" y="-15" on="0"/>
        <pt x="88" y="122" on="0"/>
        <pt x="88" y="272" on="1"/>
        <pt x="88" y="619" on="1"/>
        <pt x="16" y="625" on="1"/>
        <pt x="10" y="682" on="0"/>
        <pt x="54" y="682" on="1"/>
        <pt x="267" y="682" on="1"/>
        <pt x="267" y="674" on="1"/>
        <pt x="267" y="627" on="0"/>
        <pt x="228" y="623" on="1"/>
        <pt x="193" y="621" on="1"/>
        <pt x="192" y="264" on="1"/>
        <pt x="192" y="155" on="0"/>
        <pt x="261" y="55" on="0"/>
        <pt x="338" y="55" on="1"/>
        <pt x="502" y="55" on="0"/>
        <pt x="502" y="255" on="1"/>
        <pt x="501" y="619" on="1"/>
        <pt x="430" y="625" on="1"/>
        <pt x="424" y="682" on="0"/>
      </contour>
      <contour>
        <pt x="175" y="818" on="0"/>
        <pt x="231" y="881" on="0"/>
        <pt x="302" y="881" on="0"/>
        <pt x="384" y="824" on="0"/>
        <pt x="436" y="824" on="0"/>
        <pt x="470" y="852" on="0"/>
        <pt x="475" y="875" on="1"/>
        <pt x="506" y="866" on="1"/>
        <pt x="490" y="746" on="0"/>
        <pt x="397" y="746" on="1"/>
        <pt x="359" y="746" on="0"/>
        <pt x="273" y="798" on="0"/>
        <pt x="235" y="798" on="0"/>
        <pt x="205" y="772" on="0"/>
        <pt x="199" y="752" on="1"/>
        <pt x="166" y="764" on="1"/>
      </contour>
    </TTGlyph>
    <TTGlyph name="V" xMin="3" yMin="0" xMax="632" yMax="682">
      <contour>
        <pt x="455" y="682" on="1"/>
        <pt x="632" y="682" on="1"/>
        <pt x="632" y="682" on="0"/>
        <pt x="632" y="674" on="1"/>
        <pt x="632" y="627" on="0"/>
        <pt x="592" y="623" on="1"/>
        <pt x="569" y="621" on="1"/>
        <pt x="352" y="0" on="1"/>
        <pt x="269" y="0" on="1"/>
        <pt x="63" y="619" on="1"/>
        <pt x="3" y="625" on="1"/>
        <pt x="-3" y="682" on="0"/>
        <pt x="41" y="682" on="1"/>
        <pt x="254" y="682" on="1"/>
        <pt x="254" y="674" on="1"/>
        <pt x="254" y="650" on="0"/>
        <pt x="247" y="641" on="1"/>
        <pt x="234" y="625" on="0"/>
        <pt x="215" y="623" on="1"/>
        <pt x="179" y="621" on="1"/>
        <pt x="330" y="131" on="1"/>
        <pt x="493" y="619" on="1"/>
        <pt x="417" y="625" on="1"/>
        <pt x="416" y="635" on="0"/>
        <pt x="417" y="655" on="0"/>
        <pt x="436" y="682" on="0"/>
      </contour>
    </TTGlyph>
    <TTGlyph name="W" xMin="3" yMin="0" xMax="959" yMax="682">
      <contour>
        <pt x="793" y="682" on="1"/>
        <pt x="959" y="682" on="1"/>
        <pt x="959" y="682" on="0"/>
        <pt x="959" y="673" on="1"/>
        <pt x="959" y="640" on="0"/>
        <pt x="944" y="630" on="1"/>
        <pt x="936" y="624" on="0"/>
        <pt x="905" y="621" on="1"/>
        <pt x="708" y="0" on="1"/>
        <pt x="619" y="0" on="1"/>
        <pt x="481" y="432" on="1"/>
        <pt x="333" y="0" on="1"/>
        <pt x="243" y="0" on="1"/>
        <pt x="59" y="619" on="1"/>
        <pt x="3" y="625" on="1"/>
        <pt x="-3" y="682" on="0"/>
        <pt x="40" y="682" on="1"/>
        <pt x="248" y="682" on="1"/>
        <pt x="248" y="674" on="1"/>
        <pt x="248" y="627" on="0"/>
        <pt x="209" y="623" on="1"/>
        <pt x="175" y="621" on="1"/>
        <pt x="305" y="131" on="1"/>
        <pt x="464" y="616" on="1"/>
        <pt x="538" y="616" on="1"/>
        <pt x="680" y="129" on="1"/>
        <pt x="826" y="619" on="1"/>
        <pt x="755" y="625" on="1"/>
        <pt x="749" y="682" on="0"/>
      </contour>
    </TTGlyph>
    <TTGlyph name="Wacute" xMin="3" yMin="0" xMax="959" yMax="901">
      <contour>
        <pt x="793" y="682" on="1"/>
        <pt x="959" y="682" on="1"/>
        <pt x="959" y="682" on="0"/>
        <pt x="959" y="673" on="1"/>
        <pt x="959" y="640" on="0"/>
        <pt x="944" y="630" on="1"/>
        <pt x="936" y="624" on="0"/>
        <pt x="905" y="621" on="1"/>
        <pt x="708" y="0" on="1"/>
        <pt x="619" y="0" on="1"/>
        <pt x="481" y="432" on="1"/>
        <pt x="333" y="0" on="1"/>
        <pt x="243" y="0" on="1"/>
        <pt x="59" y="619" on="1"/>
        <pt x="3" y="625" on="1"/>
        <pt x="-3" y="682" on="0"/>
        <pt x="40" y="682" on="1"/>
        <pt x="248" y="682" on="1"/>
        <pt x="248" y="674" on="1"/>
        <pt x="248" y="627" on="0"/>
        <pt x="209" y="623" on="1"/>
        <pt x="175" y="621" on="1"/>
        <pt x="305" y="131" on="1"/>
        <pt x="464" y="616" on="1"/>
        <pt x="538" y="616" on="1"/>
        <pt x="680" y="129" on="1"/>
        <pt x="826" y="619" on="1"/>
        <pt x="755" y="625" on="1"/>
        <pt x="749" y="682" on="0"/>
      </contour>
      <contour>
        <pt x="666" y="840" on="1"/>
        <pt x="463" y="731" on="1"/>
        <pt x="436" y="744" on="0"/>
        <pt x="425" y="768" on="1"/>
        <pt x="592" y="901" on="1"/>
        <pt x="613" y="898" on="0"/>
        <pt x="658" y="858" on="0"/>
      </contour>
    </TTGlyph>
    <TTGlyph name="Wcircumflex" xMin="3" yMin="0" xMax="959" yMax="880">
      <contour>
        <pt x="793" y="682" on="1"/>
        <pt x="959" y="682" on="1"/>
        <pt x="959" y="682" on="0"/>
        <pt x="959" y="673" on="1"/>
        <pt x="959" y="640" on="0"/>
        <pt x="944" y="630" on="1"/>
        <pt x="936" y="624" on="0"/>
        <pt x="905" y="621" on="1"/>
        <pt x="708" y="0" on="1"/>
        <pt x="619" y="0" on="1"/>
        <pt x="481" y="432" on="1"/>
        <pt x="333" y="0" on="1"/>
        <pt x="243" y="0" on="1"/>
        <pt x="59" y="619" on="1"/>
        <pt x="3" y="625" on="1"/>
        <pt x="-3" y="682" on="0"/>
        <pt x="40" y="682" on="1"/>
        <pt x="248" y="682" on="1"/>
        <pt x="248" y="674" on="1"/>
        <pt x="248" y="627" on="0"/>
        <pt x="209" y="623" on="1"/>
        <pt x="175" y="621" on="1"/>
        <pt x="305" y="131" on="1"/>
        <pt x="464" y="616" on="1"/>
        <pt x="538" y="616" on="1"/>
        <pt x="680" y="129" on="1"/>
        <pt x="826" y="619" on="1"/>
        <pt x="755" y="625" on="1"/>
        <pt x="749" y="682" on="0"/>
      </contour>
      <contour>
        <pt x="507" y="809" on="1"/>
        <pt x="369" y="722" on="1"/>
        <pt x="350" y="734" on="0"/>
        <pt x="337" y="756" on="1"/>
        <pt x="473" y="880" on="1"/>
        <pt x="509" y="889" on="0"/>
        <pt x="544" y="880" on="1"/>
        <pt x="677" y="756" on="1"/>
        <pt x="663" y="733" on="0"/>
        <pt x="644" y="722" on="1"/>
      </contour>
    </TTGlyph>
    <TTGlyph name="Wdieresis" xMin="3" yMin="0" xMax="959" yMax="879">
      <contour>
        <pt x="793" y="682" on="1"/>
        <pt x="959" y="682" on="1"/>
        <pt x="959" y="682" on="0"/>
        <pt x="959" y="673" on="1"/>
        <pt x="959" y="640" on="0"/>
        <pt x="944" y="630" on="1"/>
        <pt x="936" y="624" on="0"/>
        <pt x="905" y="621" on="1"/>
        <pt x="708" y="0" on="1"/>
        <pt x="619" y="0" on="1"/>
        <pt x="481" y="432" on="1"/>
        <pt x="333" y="0" on="1"/>
        <pt x="243" y="0" on="1"/>
        <pt x="59" y="619" on="1"/>
        <pt x="3" y="625" on="1"/>
        <pt x="-3" y="682" on="0"/>
        <pt x="40" y="682" on="1"/>
        <pt x="248" y="682" on="1"/>
        <pt x="248" y="674" on="1"/>
        <pt x="248" y="627" on="0"/>
        <pt x="209" y="623" on="1"/>
        <pt x="175" y="621" on="1"/>
        <pt x="305" y="131" on="1"/>
        <pt x="464" y="616" on="1"/>
        <pt x="538" y="616" on="1"/>
        <pt x="680" y="129" on="1"/>
        <pt x="826" y="619" on="1"/>
        <pt x="755" y="625" on="1"/>
        <pt x="749" y="682" on="0"/>
      </contour>
      <contour>
        <pt x="439" y="753" on="0"/>
        <pt x="387" y="753" on="0"/>
        <pt x="349" y="790" on="0"/>
        <pt x="349" y="842" on="0"/>
        <pt x="387" y="879" on="0"/>
        <pt x="439" y="879" on="0"/>
        <pt x="476" y="842" on="0"/>
        <pt x="476" y="790" on="0"/>
      </contour>
      <contour>
        <pt x="657" y="790" on="0"/>
        <pt x="620" y="753" on="0"/>
        <pt x="567" y="753" on="0"/>
        <pt x="530" y="790" on="0"/>
        <pt x="530" y="842" on="0"/>
        <pt x="568" y="879" on="0"/>
        <pt x="620" y="879" on="0"/>
        <pt x="657" y="842" on="0"/>
      </contour>
    </TTGlyph>
    <TTGlyph name="Wgrave" xMin="3" yMin="0" xMax="959" yMax="898">
      <contour>
        <pt x="793" y="682" on="1"/>
        <pt x="959" y="682" on="1"/>
        <pt x="959" y="682" on="0"/>
        <pt x="959" y="673" on="1"/>
        <pt x="959" y="640" on="0"/>
        <pt x="944" y="630" on="1"/>
        <pt x="936" y="624" on="0"/>
        <pt x="905" y="621" on="1"/>
        <pt x="708" y="0" on="1"/>
        <pt x="619" y="0" on="1"/>
        <pt x="481" y="432" on="1"/>
        <pt x="333" y="0" on="1"/>
        <pt x="243" y="0" on="1"/>
        <pt x="59" y="619" on="1"/>
        <pt x="3" y="625" on="1"/>
        <pt x="-3" y="682" on="0"/>
        <pt x="40" y="682" on="1"/>
        <pt x="248" y="682" on="1"/>
        <pt x="248" y="674" on="1"/>
        <pt x="248" y="627" on="0"/>
        <pt x="209" y="623" on="1"/>
        <pt x="175" y="621" on="1"/>
        <pt x="305" y="131" on="1"/>
        <pt x="464" y="616" on="1"/>
        <pt x="538" y="616" on="1"/>
        <pt x="680" y="129" on="1"/>
        <pt x="826" y="619" on="1"/>
        <pt x="755" y="625" on="1"/>
        <pt x="749" y="682" on="0"/>
      </contour>
      <contour>
        <pt x="437" y="898" on="1"/>
        <pt x="604" y="765" on="1"/>
        <pt x="593" y="741" on="0"/>
        <pt x="566" y="728" on="1"/>
        <pt x="363" y="837" on="1"/>
        <pt x="371" y="855" on="0"/>
        <pt x="416" y="895" on="0"/>
      </contour>
    </TTGlyph>
    <TTGlyph name="X" xMin="13" yMin="0" xMax="652" yMax="683">
      <contour>
        <pt x="613" y="0" on="1"/>
        <pt x="386" y="0" on="1"/>
        <pt x="386" y="8" on="1"/>
        <pt x="386" y="32" on="0"/>
        <pt x="393" y="41" on="1"/>
        <pt x="406" y="57" on="0"/>
        <pt x="425" y="59" on="1"/>
        <pt x="456" y="61" on="1"/>
        <pt x="458" y="61" on="1"/>
        <pt x="315" y="273" on="1"/>
        <pt x="180" y="63" on="1"/>
        <pt x="181" y="63" on="1"/>
        <pt x="256" y="57" on="1"/>
        <pt x="262" y="0" on="0"/>
        <pt x="218" y="0" on="1"/>
        <pt x="16" y="0" on="1"/>
        <pt x="16" y="8" on="1"/>
        <pt x="16" y="32" on="0"/>
        <pt x="23" y="41" on="1"/>
        <pt x="36" y="57" on="0"/>
        <pt x="56" y="59" on="1"/>
        <pt x="91" y="61" on="1"/>
        <pt x="276" y="329" on="1"/>
        <pt x="80" y="619" on="1"/>
        <pt x="13" y="625" on="1"/>
        <pt x="7" y="683" on="0"/>
        <pt x="51" y="683" on="1"/>
        <pt x="277" y="683" on="1"/>
        <pt x="277" y="676" on="1"/>
        <pt x="277" y="628" on="0"/>
        <pt x="238" y="624" on="1"/>
        <pt x="205" y="621" on="1"/>
        <pt x="350" y="408" on="1"/>
        <pt x="485" y="619" on="1"/>
        <pt x="410" y="625" on="1"/>
        <pt x="404" y="683" on="0"/>
        <pt x="449" y="683" on="1"/>
        <pt x="647" y="683" on="1"/>
        <pt x="647" y="676" on="1"/>
        <pt x="647" y="628" on="0"/>
        <pt x="608" y="624" on="1"/>
        <pt x="577" y="622" on="1"/>
        <pt x="575" y="622" on="1"/>
        <pt x="389" y="350" on="1"/>
        <pt x="583" y="63" on="1"/>
        <pt x="652" y="57" on="1"/>
        <pt x="658" y="0" on="0"/>
      </contour>
    </TTGlyph>
    <TTGlyph name="Y" xMin="3" yMin="0" xMax="616" yMax="683">
      <contour>
        <pt x="439" y="683" on="1"/>
        <pt x="616" y="683" on="1"/>
        <pt x="616" y="683" on="0"/>
        <pt x="616" y="676" on="1"/>
        <pt x="616" y="628" on="0"/>
        <pt x="577" y="624" on="1"/>
        <pt x="554" y="621" on="1"/>
        <pt x="363" y="282" on="1"/>
        <pt x="363" y="63" on="1"/>
        <pt x="364" y="63" on="1"/>
        <pt x="436" y="57" on="1"/>
        <pt x="442" y="0" on="0"/>
        <pt x="397" y="0" on="1"/>
        <pt x="183" y="0" on="1"/>
        <pt x="183" y="8" on="1"/>
        <pt x="183" y="55" on="0"/>
        <pt x="222" y="59" on="1"/>
        <pt x="258" y="61" on="1"/>
        <pt x="258" y="280" on="1"/>
        <pt x="64" y="619" on="1"/>
        <pt x="3" y="625" on="1"/>
        <pt x="-3" y="683" on="0"/>
        <pt x="41" y="683" on="1"/>
        <pt x="262" y="683" on="1"/>
        <pt x="262" y="676" on="1"/>
        <pt x="262" y="640" on="0"/>
        <pt x="241" y="628" on="1"/>
        <pt x="233" y="624" on="0"/>
        <pt x="223" y="624" on="1"/>
        <pt x="186" y="621" on="1"/>
        <pt x="185" y="621" on="1"/>
        <pt x="332" y="356" on="1"/>
        <pt x="475" y="619" on="1"/>
        <pt x="401" y="625" on="1"/>
        <pt x="395" y="683" on="0"/>
      </contour>
    </TTGlyph>
    <TTGlyph name="Yacute" xMin="3" yMin="0" xMax="616" yMax="901">
      <contour>
        <pt x="439" y="683" on="1"/>
        <pt x="616" y="683" on="1"/>
        <pt x="616" y="683" on="0"/>
        <pt x="616" y="676" on="1"/>
        <pt x="616" y="628" on="0"/>
        <pt x="577" y="624" on="1"/>
        <pt x="554" y="621" on="1"/>
        <pt x="363" y="282" on="1"/>
        <pt x="363" y="63" on="1"/>
        <pt x="364" y="63" on="1"/>
        <pt x="436" y="57" on="1"/>
        <pt x="442" y="0" on="0"/>
        <pt x="397" y="0" on="1"/>
        <pt x="183" y="0" on="1"/>
        <pt x="183" y="8" on="1"/>
        <pt x="183" y="55" on="0"/>
        <pt x="222" y="59" on="1"/>
        <pt x="258" y="61" on="1"/>
        <pt x="258" y="280" on="1"/>
        <pt x="64" y="619" on="1"/>
        <pt x="3" y="625" on="1"/>
        <pt x="-3" y="683" on="0"/>
        <pt x="41" y="683" on="1"/>
        <pt x="262" y="683" on="1"/>
        <pt x="262" y="676" on="1"/>
        <pt x="262" y="640" on="0"/>
        <pt x="241" y="628" on="1"/>
        <pt x="233" y="624" on="0"/>
        <pt x="223" y="624" on="1"/>
        <pt x="186" y="621" on="1"/>
        <pt x="185" y="621" on="1"/>
        <pt x="332" y="356" on="1"/>
        <pt x="475" y="619" on="1"/>
        <pt x="401" y="625" on="1"/>
        <pt x="395" y="683" on="0"/>
      </contour>
      <contour>
        <pt x="483" y="840" on="1"/>
        <pt x="280" y="731" on="1"/>
        <pt x="253" y="744" on="0"/>
        <pt x="242" y="768" on="1"/>
        <pt x="409" y="901" on="1"/>
        <pt x="430" y="898" on="0"/>
        <pt x="475" y="858" on="0"/>
      </contour>
    </TTGlyph>
    <TTGlyph name="Ycircumflex" xMin="3" yMin="0" xMax="616" yMax="880">
      <contour>
        <pt x="439" y="683" on="1"/>
        <pt x="616" y="683" on="1"/>
        <pt x="616" y="683" on="0"/>
        <pt x="616" y="676" on="1"/>
        <pt x="616" y="628" on="0"/>
        <pt x="577" y="624" on="1"/>
        <pt x="554" y="621" on="1"/>
        <pt x="363" y="282" on="1"/>
        <pt x="363" y="63" on="1"/>
        <pt x="364" y="63" on="1"/>
        <pt x="436" y="57" on="1"/>
        <pt x="442" y="0" on="0"/>
        <pt x="397" y="0" on="1"/>
        <pt x="183" y="0" on="1"/>
        <pt x="183" y="8" on="1"/>
        <pt x="183" y="55" on="0"/>
        <pt x="222" y="59" on="1"/>
        <pt x="258" y="61" on="1"/>
        <pt x="258" y="280" on="1"/>
        <pt x="64" y="619" on="1"/>
        <pt x="3" y="625" on="1"/>
        <pt x="-3" y="683" on="0"/>
        <pt x="41" y="683" on="1"/>
        <pt x="262" y="683" on="1"/>
        <pt x="262" y="676" on="1"/>
        <pt x="262" y="640" on="0"/>
        <pt x="241" y="628" on="1"/>
        <pt x="233" y="624" on="0"/>
        <pt x="223" y="624" on="1"/>
        <pt x="186" y="621" on="1"/>
        <pt x="185" y="621" on="1"/>
        <pt x="332" y="356" on="1"/>
        <pt x="475" y="619" on="1"/>
        <pt x="401" y="625" on="1"/>
        <pt x="395" y="683" on="0"/>
      </contour>
      <contour>
        <pt x="324" y="809" on="1"/>
        <pt x="186" y="722" on="1"/>
        <pt x="167" y="734" on="0"/>
        <pt x="154" y="756" on="1"/>
        <pt x="290" y="880" on="1"/>
        <pt x="326" y="889" on="0"/>
        <pt x="361" y="880" on="1"/>
        <pt x="494" y="756" on="1"/>
        <pt x="480" y="733" on="0"/>
        <pt x="461" y="722" on="1"/>
      </contour>
    </TTGlyph>
    <TTGlyph name="Ydieresis" xMin="3" yMin="0" xMax="616" yMax="879">
      <contour>
        <pt x="439" y="683" on="1"/>
        <pt x="616" y="683" on="1"/>
        <pt x="616" y="683" on="0"/>
        <pt x="616" y="676" on="1"/>
        <pt x="616" y="628" on="0"/>
        <pt x="577" y="624" on="1"/>
        <pt x="554" y="621" on="1"/>
        <pt x="363" y="282" on="1"/>
        <pt x="363" y="63" on="1"/>
        <pt x="364" y="63" on="1"/>
        <pt x="436" y="57" on="1"/>
        <pt x="442" y="0" on="0"/>
        <pt x="397" y="0" on="1"/>
        <pt x="183" y="0" on="1"/>
        <pt x="183" y="8" on="1"/>
        <pt x="183" y="55" on="0"/>
        <pt x="222" y="59" on="1"/>
        <pt x="258" y="61" on="1"/>
        <pt x="258" y="280" on="1"/>
        <pt x="64" y="619" on="1"/>
        <pt x="3" y="625" on="1"/>
        <pt x="-3" y="683" on="0"/>
        <pt x="41" y="683" on="1"/>
        <pt x="262" y="683" on="1"/>
        <pt x="262" y="676" on="1"/>
        <pt x="262" y="640" on="0"/>
        <pt x="241" y="628" on="1"/>
        <pt x="233" y="624" on="0"/>
        <pt x="223" y="624" on="1"/>
        <pt x="186" y="621" on="1"/>
        <pt x="185" y="621" on="1"/>
        <pt x="332" y="356" on="1"/>
        <pt x="475" y="619" on="1"/>
        <pt x="401" y="625" on="1"/>
        <pt x="395" y="683" on="0"/>
      </contour>
      <contour>
        <pt x="256" y="753" on="0"/>
        <pt x="204" y="753" on="0"/>
        <pt x="166" y="790" on="0"/>
        <pt x="166" y="842" on="0"/>
        <pt x="204" y="879" on="0"/>
        <pt x="256" y="879" on="0"/>
        <pt x="293" y="842" on="0"/>
        <pt x="293" y="790" on="0"/>
      </contour>
      <contour>
        <pt x="474" y="790" on="0"/>
        <pt x="437" y="753" on="0"/>
        <pt x="384" y="753" on="0"/>
        <pt x="347" y="790" on="0"/>
        <pt x="347" y="842" on="0"/>
        <pt x="384" y="879" on="0"/>
        <pt x="437" y="879" on="0"/>
        <pt x="474" y="842" on="0"/>
      </contour>
    </TTGlyph>
    <TTGlyph name="Ygrave" xMin="3" yMin="0" xMax="616" yMax="898">
      <contour>
        <pt x="439" y="683" on="1"/>
        <pt x="616" y="683" on="1"/>
        <pt x="616" y="683" on="0"/>
        <pt x="616" y="676" on="1"/>
        <pt x="616" y="628" on="0"/>
        <pt x="577" y="624" on="1"/>
        <pt x="554" y="621" on="1"/>
        <pt x="363" y="282" on="1"/>
        <pt x="363" y="63" on="1"/>
        <pt x="364" y="63" on="1"/>
        <pt x="436" y="57" on="1"/>
        <pt x="442" y="0" on="0"/>
        <pt x="397" y="0" on="1"/>
        <pt x="183" y="0" on="1"/>
        <pt x="183" y="8" on="1"/>
        <pt x="183" y="55" on="0"/>
        <pt x="222" y="59" on="1"/>
        <pt x="258" y="61" on="1"/>
        <pt x="258" y="280" on="1"/>
        <pt x="64" y="619" on="1"/>
        <pt x="3" y="625" on="1"/>
        <pt x="-3" y="683" on="0"/>
        <pt x="41" y="683" on="1"/>
        <pt x="262" y="683" on="1"/>
        <pt x="262" y="676" on="1"/>
        <pt x="262" y="640" on="0"/>
        <pt x="241" y="628" on="1"/>
        <pt x="233" y="624" on="0"/>
        <pt x="223" y="624" on="1"/>
        <pt x="186" y="621" on="1"/>
        <pt x="185" y="621" on="1"/>
        <pt x="332" y="356" on="1"/>
        <pt x="475" y="619" on="1"/>
        <pt x="401" y="625" on="1"/>
        <pt x="395" y="683" on="0"/>
      </contour>
      <contour>
        <pt x="254" y="898" on="1"/>
        <pt x="421" y="765" on="1"/>
        <pt x="410" y="741" on="0"/>
        <pt x="383" y="728" on="1"/>
        <pt x="180" y="837" on="1"/>
        <pt x="188" y="855" on="0"/>
        <pt x="233" y="895" on="0"/>
      </contour>
    </TTGlyph>
    <TTGlyph name="Z" xMin="17" yMin="0" xMax="537" yMax="685">
      <contour>
        <pt x="536" y="0" on="1"/>
        <pt x="33" y="0" on="1"/>
        <pt x="20" y="25" on="0"/>
        <pt x="17" y="43" on="1"/>
        <pt x="398" y="619" on="1"/>
        <pt x="141" y="610" on="1"/>
        <pt x="131" y="525" on="1"/>
        <pt x="123" y="465" on="0"/>
        <pt x="66" y="477" on="1"/>
        <pt x="66" y="685" on="1"/>
        <pt x="515" y="685" on="1"/>
        <pt x="536" y="670" on="0"/>
        <pt x="537" y="644" on="1"/>
        <pt x="158" y="64" on="1"/>
        <pt x="460" y="78" on="1"/>
        <pt x="472" y="166" on="1"/>
        <pt x="480" y="223" on="0"/>
        <pt x="536" y="212" on="1"/>
      </contour>
    </TTGlyph>
    <TTGlyph name="Zacute" xMin="17" yMin="0" xMax="537" yMax="901">
      <contour>
        <pt x="536" y="0" on="1"/>
        <pt x="33" y="0" on="1"/>
        <pt x="20" y="25" on="0"/>
        <pt x="17" y="43" on="1"/>
        <pt x="398" y="619" on="1"/>
        <pt x="141" y="610" on="1"/>
        <pt x="131" y="525" on="1"/>
        <pt x="123" y="465" on="0"/>
        <pt x="66" y="477" on="1"/>
        <pt x="66" y="685" on="1"/>
        <pt x="515" y="685" on="1"/>
        <pt x="536" y="670" on="0"/>
        <pt x="537" y="644" on="1"/>
        <pt x="158" y="64" on="1"/>
        <pt x="460" y="78" on="1"/>
        <pt x="472" y="166" on="1"/>
        <pt x="480" y="223" on="0"/>
        <pt x="536" y="212" on="1"/>
      </contour>
      <contour>
        <pt x="462" y="840" on="1"/>
        <pt x="258" y="731" on="1"/>
        <pt x="232" y="744" on="0"/>
        <pt x="221" y="768" on="1"/>
        <pt x="387" y="901" on="1"/>
        <pt x="408" y="898" on="0"/>
        <pt x="453" y="858" on="0"/>
      </contour>
    </TTGlyph>
    <TTGlyph name="Zcaron" xMin="17" yMin="0" xMax="537" yMax="897">
      <contour>
        <pt x="536" y="0" on="1"/>
        <pt x="33" y="0" on="1"/>
        <pt x="20" y="25" on="0"/>
        <pt x="17" y="43" on="1"/>
        <pt x="398" y="619" on="1"/>
        <pt x="141" y="610" on="1"/>
        <pt x="131" y="525" on="1"/>
        <pt x="123" y="465" on="0"/>
        <pt x="66" y="477" on="1"/>
        <pt x="66" y="685" on="1"/>
        <pt x="515" y="685" on="1"/>
        <pt x="536" y="670" on="0"/>
        <pt x="537" y="644" on="1"/>
        <pt x="158" y="64" on="1"/>
        <pt x="460" y="78" on="1"/>
        <pt x="472" y="166" on="1"/>
        <pt x="480" y="223" on="0"/>
        <pt x="536" y="212" on="1"/>
      </contour>
      <contour>
        <pt x="471" y="863" on="1"/>
        <pt x="338" y="739" on="1"/>
        <pt x="303" y="730" on="0"/>
        <pt x="267" y="739" on="1"/>
        <pt x="131" y="863" on="1"/>
        <pt x="144" y="885" on="0"/>
        <pt x="163" y="897" on="1"/>
        <pt x="301" y="810" on="1"/>
        <pt x="438" y="897" on="1"/>
        <pt x="457" y="886" on="0"/>
      </contour>
    </TTGlyph>
    <TTGlyph name="Zdotaccent" xMin="17" yMin="0" xMax="537" yMax="891">
      <contour>
        <pt x="536" y="0" on="1"/>
        <pt x="33" y="0" on="1"/>
        <pt x="20" y="25" on="0"/>
        <pt x="17" y="43" on="1"/>
        <pt x="398" y="619" on="1"/>
        <pt x="141" y="610" on="1"/>
        <pt x="131" y="525" on="1"/>
        <pt x="123" y="465" on="0"/>
        <pt x="66" y="477" on="1"/>
        <pt x="66" y="685" on="1"/>
        <pt x="515" y="685" on="1"/>
        <pt x="536" y="670" on="0"/>
        <pt x="537" y="644" on="1"/>
        <pt x="158" y="64" on="1"/>
        <pt x="460" y="78" on="1"/>
        <pt x="472" y="166" on="1"/>
        <pt x="480" y="223" on="0"/>
        <pt x="536" y="212" on="1"/>
      </contour>
      <contour>
        <pt x="334" y="761" on="0"/>
        <pt x="278" y="761" on="0"/>
        <pt x="241" y="798" on="0"/>
        <pt x="241" y="854" on="0"/>
        <pt x="278" y="891" on="0"/>
        <pt x="334" y="891" on="0"/>
        <pt x="370" y="854" on="0"/>
        <pt x="370" y="798" on="0"/>
      </contour>
    </TTGlyph>
    <TTGlyph name="a" xMin="36" yMin="-15" xMax="501" yMax="514">
      <contour>
        <pt x="501" y="40" on="1"/>
        <pt x="501" y="-15" on="0"/>
        <pt x="356" y="-15" on="0"/>
        <pt x="339" y="40" on="1"/>
        <pt x="274" y="-15" on="0"/>
        <pt x="120" y="-15" on="0"/>
        <pt x="36" y="58" on="0"/>
        <pt x="36" y="186" on="0"/>
        <pt x="133" y="270" on="0"/>
        <pt x="241" y="270" on="1"/>
        <pt x="288" y="270" on="0"/>
        <pt x="333" y="262" on="1"/>
        <pt x="333" y="318" on="1"/>
        <pt x="333" y="445" on="0"/>
        <pt x="234" y="445" on="1"/>
        <pt x="194" y="445" on="0"/>
        <pt x="147" y="391" on="0"/>
        <pt x="145" y="350" on="1"/>
        <pt x="111" y="347" on="0"/>
        <pt x="66" y="377" on="0"/>
        <pt x="66" y="408" on="1"/>
        <pt x="66" y="454" on="0"/>
        <pt x="161" y="514" on="0"/>
        <pt x="324" y="514" on="0"/>
        <pt x="435" y="426" on="0"/>
        <pt x="435" y="324" on="1"/>
        <pt x="435" y="48" on="1"/>
      </contour>
      <contour>
        <pt x="333" y="192" on="1"/>
        <pt x="293" y="209" on="0"/>
        <pt x="198" y="209" on="0"/>
        <pt x="144" y="169" on="0"/>
        <pt x="144" y="96" on="0"/>
        <pt x="186" y="56" on="0"/>
        <pt x="281" y="56" on="0"/>
        <pt x="333" y="93" on="1"/>
      </contour>
    </TTGlyph>
    <TTGlyph name="aacute" xMin="36" yMin="-15" xMax="501" yMax="715">
      <contour>
        <pt x="501" y="40" on="1"/>
        <pt x="501" y="-15" on="0"/>
        <pt x="356" y="-15" on="0"/>
        <pt x="339" y="40" on="1"/>
        <pt x="274" y="-15" on="0"/>
        <pt x="120" y="-15" on="0"/>
        <pt x="36" y="58" on="0"/>
        <pt x="36" y="186" on="0"/>
        <pt x="133" y="270" on="0"/>
        <pt x="241" y="270" on="1"/>
        <pt x="288" y="270" on="0"/>
        <pt x="333" y="262" on="1"/>
        <pt x="333" y="318" on="1"/>
        <pt x="333" y="445" on="0"/>
        <pt x="234" y="445" on="1"/>
        <pt x="194" y="445" on="0"/>
        <pt x="147" y="391" on="0"/>
        <pt x="145" y="350" on="1"/>
        <pt x="111" y="347" on="0"/>
        <pt x="66" y="377" on="0"/>
        <pt x="66" y="408" on="1"/>
        <pt x="66" y="454" on="0"/>
        <pt x="161" y="514" on="0"/>
        <pt x="324" y="514" on="0"/>
        <pt x="435" y="426" on="0"/>
        <pt x="435" y="324" on="1"/>
        <pt x="435" y="48" on="1"/>
      </contour>
      <contour>
        <pt x="333" y="192" on="1"/>
        <pt x="293" y="209" on="0"/>
        <pt x="198" y="209" on="0"/>
        <pt x="144" y="169" on="0"/>
        <pt x="144" y="96" on="0"/>
        <pt x="186" y="56" on="0"/>
        <pt x="281" y="56" on="0"/>
        <pt x="333" y="93" on="1"/>
      </contour>
      <contour>
        <pt x="402" y="654" on="1"/>
        <pt x="199" y="545" on="1"/>
        <pt x="172" y="558" on="0"/>
        <pt x="161" y="582" on="1"/>
        <pt x="328" y="715" on="1"/>
        <pt x="349" y="712" on="0"/>
        <pt x="394" y="672" on="0"/>
      </contour>
    </TTGlyph>
    <TTGlyph name="abreve" xMin="36" yMin="-15" xMax="501" yMax="708">
      <contour>
        <pt x="501" y="40" on="1"/>
        <pt x="501" y="-15" on="0"/>
        <pt x="356" y="-15" on="0"/>
        <pt x="339" y="40" on="1"/>
        <pt x="274" y="-15" on="0"/>
        <pt x="120" y="-15" on="0"/>
        <pt x="36" y="58" on="0"/>
        <pt x="36" y="186" on="0"/>
        <pt x="133" y="270" on="0"/>
        <pt x="241" y="270" on="1"/>
        <pt x="288" y="270" on="0"/>
        <pt x="333" y="262" on="1"/>
        <pt x="333" y="318" on="1"/>
        <pt x="333" y="445" on="0"/>
        <pt x="234" y="445" on="1"/>
        <pt x="194" y="445" on="0"/>
        <pt x="147" y="391" on="0"/>
        <pt x="145" y="350" on="1"/>
        <pt x="111" y="347" on="0"/>
        <pt x="66" y="377" on="0"/>
        <pt x="66" y="408" on="1"/>
        <pt x="66" y="454" on="0"/>
        <pt x="161" y="514" on="0"/>
        <pt x="324" y="514" on="0"/>
        <pt x="435" y="426" on="0"/>
        <pt x="435" y="324" on="1"/>
        <pt x="435" y="48" on="1"/>
      </contour>
      <contour>
        <pt x="333" y="192" on="1"/>
        <pt x="293" y="209" on="0"/>
        <pt x="198" y="209" on="0"/>
        <pt x="144" y="169" on="0"/>
        <pt x="144" y="96" on="0"/>
        <pt x="186" y="56" on="0"/>
        <pt x="281" y="56" on="0"/>
        <pt x="333" y="93" on="1"/>
      </contour>
      <contour>
        <pt x="396" y="633" on="0"/>
        <pt x="314" y="550" on="0"/>
        <pt x="171" y="550" on="0"/>
        <pt x="90" y="633" on="0"/>
        <pt x="82" y="690" on="1"/>
        <pt x="117" y="708" on="1"/>
        <pt x="130" y="678" on="0"/>
        <pt x="192" y="627" on="0"/>
        <pt x="244" y="627" on="1"/>
        <pt x="335" y="627" on="0"/>
        <pt x="369" y="708" on="1"/>
        <pt x="404" y="690" on="1"/>
      </contour>
    </TTGlyph>
    <TTGlyph name="acircumflex" xMin="36" yMin="-15" xMax="501" yMax="697">
      <contour>
        <pt x="501" y="40" on="1"/>
        <pt x="501" y="-15" on="0"/>
        <pt x="356" y="-15" on="0"/>
        <pt x="339" y="40" on="1"/>
        <pt x="274" y="-15" on="0"/>
        <pt x="120" y="-15" on="0"/>
        <pt x="36" y="58" on="0"/>
        <pt x="36" y="186" on="0"/>
        <pt x="133" y="270" on="0"/>
        <pt x="241" y="270" on="1"/>
        <pt x="288" y="270" on="0"/>
        <pt x="333" y="262" on="1"/>
        <pt x="333" y="318" on="1"/>
        <pt x="333" y="445" on="0"/>
        <pt x="234" y="445" on="1"/>
        <pt x="194" y="445" on="0"/>
        <pt x="147" y="391" on="0"/>
        <pt x="145" y="350" on="1"/>
        <pt x="111" y="347" on="0"/>
        <pt x="66" y="377" on="0"/>
        <pt x="66" y="408" on="1"/>
        <pt x="66" y="454" on="0"/>
        <pt x="161" y="514" on="0"/>
        <pt x="324" y="514" on="0"/>
        <pt x="435" y="426" on="0"/>
        <pt x="435" y="324" on="1"/>
        <pt x="435" y="48" on="1"/>
      </contour>
      <contour>
        <pt x="333" y="192" on="1"/>
        <pt x="293" y="209" on="0"/>
        <pt x="198" y="209" on="0"/>
        <pt x="144" y="169" on="0"/>
        <pt x="144" y="96" on="0"/>
        <pt x="186" y="56" on="0"/>
        <pt x="281" y="56" on="0"/>
        <pt x="333" y="93" on="1"/>
      </contour>
      <contour>
        <pt x="242" y="626" on="1"/>
        <pt x="104" y="539" on="1"/>
        <pt x="85" y="551" on="0"/>
        <pt x="72" y="573" on="1"/>
        <pt x="208" y="697" on="1"/>
        <pt x="245" y="706" on="0"/>
        <pt x="279" y="697" on="1"/>
        <pt x="413" y="573" on="1"/>
        <pt x="396" y="548" on="0"/>
        <pt x="379" y="539" on="1"/>
      </contour>
    </TTGlyph>
    <TTGlyph name="acute" xMin="166" yMin="545" xMax="407" yMax="715">
      <contour>
        <pt x="407" y="654" on="1"/>
        <pt x="204" y="545" on="1"/>
        <pt x="177" y="558" on="0"/>
        <pt x="166" y="582" on="1"/>
        <pt x="333" y="715" on="1"/>
        <pt x="354" y="712" on="0"/>
        <pt x="399" y="672" on="0"/>
      </contour>
    </TTGlyph>
    <TTGlyph name="acute.cap" xMin="166" yMin="548" xMax="407" yMax="718">
      <contour>
        <pt x="407" y="657" on="1"/>
        <pt x="204" y="548" on="1"/>
        <pt x="177" y="561" on="0"/>
        <pt x="166" y="585" on="1"/>
        <pt x="333" y="718" on="1"/>
        <pt x="354" y="715" on="0"/>
        <pt x="399" y="675" on="0"/>
      </contour>
    </TTGlyph>
    <TTGlyph name="adieresis" xMin="36" yMin="-15" xMax="501" yMax="696">
      <contour>
        <pt x="501" y="40" on="1"/>
        <pt x="501" y="-15" on="0"/>
        <pt x="356" y="-15" on="0"/>
        <pt x="339" y="40" on="1"/>
        <pt x="274" y="-15" on="0"/>
        <pt x="120" y="-15" on="0"/>
        <pt x="36" y="58" on="0"/>
        <pt x="36" y="186" on="0"/>
        <pt x="133" y="270" on="0"/>
        <pt x="241" y="270" on="1"/>
        <pt x="288" y="270" on="0"/>
        <pt x="333" y="262" on="1"/>
        <pt x="333" y="318" on="1"/>
        <pt x="333" y="445" on="0"/>
        <pt x="234" y="445" on="1"/>
        <pt x="194" y="445" on="0"/>
        <pt x="147" y="391" on="0"/>
        <pt x="145" y="350" on="1"/>
        <pt x="111" y="347" on="0"/>
        <pt x="66" y="377" on="0"/>
        <pt x="66" y="408" on="1"/>
        <pt x="66" y="454" on="0"/>
        <pt x="161" y="514" on="0"/>
        <pt x="324" y="514" on="0"/>
        <pt x="435" y="426" on="0"/>
        <pt x="435" y="324" on="1"/>
        <pt x="435" y="48" on="1"/>
      </contour>
      <contour>
        <pt x="333" y="192" on="1"/>
        <pt x="293" y="209" on="0"/>
        <pt x="198" y="209" on="0"/>
        <pt x="144" y="169" on="0"/>
        <pt x="144" y="96" on="0"/>
        <pt x="186" y="56" on="0"/>
        <pt x="281" y="56" on="0"/>
        <pt x="333" y="93" on="1"/>
      </contour>
      <contour>
        <pt x="175" y="570" on="0"/>
        <pt x="123" y="570" on="0"/>
        <pt x="85" y="607" on="0"/>
        <pt x="85" y="659" on="0"/>
        <pt x="123" y="696" on="0"/>
        <pt x="175" y="696" on="0"/>
        <pt x="212" y="659" on="0"/>
        <pt x="212" y="607" on="0"/>
      </contour>
      <contour>
        <pt x="393" y="607" on="0"/>
        <pt x="356" y="570" on="0"/>
        <pt x="303" y="570" on="0"/>
        <pt x="266" y="607" on="0"/>
        <pt x="266" y="658" on="0"/>
        <pt x="304" y="696" on="0"/>
        <pt x="356" y="696" on="0"/>
        <pt x="393" y="659" on="0"/>
      </contour>
    </TTGlyph>
    <TTGlyph name="ae" xMin="36" yMin="-15" xMax="749" yMax="514">
      <contour>
        <pt x="333" y="318" on="1"/>
        <pt x="333" y="445" on="0"/>
        <pt x="238" y="445" on="1"/>
        <pt x="192" y="445" on="0"/>
        <pt x="146" y="389" on="0"/>
        <pt x="145" y="350" on="1"/>
        <pt x="111" y="347" on="0"/>
        <pt x="66" y="376" on="0"/>
        <pt x="66" y="407" on="1"/>
        <pt x="66" y="453" on="0"/>
        <pt x="162" y="514" on="0"/>
        <pt x="238" y="514" on="1"/>
        <pt x="360" y="514" on="0"/>
        <pt x="402" y="441" on="1"/>
        <pt x="465" y="514" on="0"/>
        <pt x="663" y="514" on="0"/>
        <pt x="751" y="395" on="0"/>
        <pt x="749" y="306" on="1"/>
        <pt x="749" y="252" on="1"/>
        <pt x="441" y="252" on="1"/>
        <pt x="441" y="233" on="1"/>
        <pt x="441" y="151" on="0"/>
        <pt x="504" y="62" on="0"/>
        <pt x="655" y="62" on="0"/>
        <pt x="722" y="116" on="1"/>
        <pt x="739" y="104" on="0"/>
        <pt x="739" y="80" on="1"/>
        <pt x="739" y="48" on="0"/>
        <pt x="629" y="-15" on="0"/>
        <pt x="552" y="-15" on="1"/>
        <pt x="433" y="-15" on="0"/>
        <pt x="377" y="66" on="1"/>
        <pt x="300" y="-15" on="0"/>
        <pt x="191" y="-15" on="1"/>
        <pt x="121" y="-15" on="0"/>
        <pt x="36" y="58" on="0"/>
        <pt x="36" y="186" on="0"/>
        <pt x="133" y="270" on="0"/>
        <pt x="242" y="270" on="1"/>
        <pt x="284" y="270" on="0"/>
        <pt x="333" y="261" on="1"/>
      </contour>
      <contour>
        <pt x="333" y="191" on="1"/>
        <pt x="294" y="209" on="0"/>
        <pt x="199" y="209" on="0"/>
        <pt x="144" y="169" on="0"/>
        <pt x="144" y="131" on="1"/>
        <pt x="144" y="56" on="0"/>
        <pt x="227" y="56" on="1"/>
        <pt x="284" y="56" on="0"/>
        <pt x="333" y="95" on="1"/>
      </contour>
      <contour>
        <pt x="559" y="445" on="1"/>
        <pt x="468" y="445" on="0"/>
        <pt x="447" y="312" on="1"/>
        <pt x="649" y="312" on="1"/>
        <pt x="646" y="445" on="0"/>
      </contour>
    </TTGlyph>
    <TTGlyph name="agrave" xMin="36" yMin="-15" xMax="501" yMax="715">
      <contour>
        <pt x="501" y="40" on="1"/>
        <pt x="501" y="-15" on="0"/>
        <pt x="356" y="-15" on="0"/>
        <pt x="339" y="40" on="1"/>
        <pt x="274" y="-15" on="0"/>
        <pt x="120" y="-15" on="0"/>
        <pt x="36" y="58" on="0"/>
        <pt x="36" y="186" on="0"/>
        <pt x="133" y="270" on="0"/>
        <pt x="241" y="270" on="1"/>
        <pt x="288" y="270" on="0"/>
        <pt x="333" y="262" on="1"/>
        <pt x="333" y="318" on="1"/>
        <pt x="333" y="445" on="0"/>
        <pt x="234" y="445" on="1"/>
        <pt x="194" y="445" on="0"/>
        <pt x="147" y="391" on="0"/>
        <pt x="145" y="350" on="1"/>
        <pt x="111" y="347" on="0"/>
        <pt x="66" y="377" on="0"/>
        <pt x="66" y="408" on="1"/>
        <pt x="66" y="454" on="0"/>
        <pt x="161" y="514" on="0"/>
        <pt x="324" y="514" on="0"/>
        <pt x="435" y="426" on="0"/>
        <pt x="435" y="324" on="1"/>
        <pt x="435" y="48" on="1"/>
      </contour>
      <contour>
        <pt x="333" y="192" on="1"/>
        <pt x="293" y="209" on="0"/>
        <pt x="198" y="209" on="0"/>
        <pt x="144" y="169" on="0"/>
        <pt x="144" y="96" on="0"/>
        <pt x="186" y="56" on="0"/>
        <pt x="281" y="56" on="0"/>
        <pt x="333" y="93" on="1"/>
      </contour>
      <contour>
        <pt x="172" y="715" on="1"/>
        <pt x="339" y="582" on="1"/>
        <pt x="328" y="558" on="0"/>
        <pt x="301" y="545" on="1"/>
        <pt x="98" y="654" on="1"/>
        <pt x="106" y="672" on="0"/>
        <pt x="151" y="712" on="0"/>
      </contour>
    </TTGlyph>
    <TTGlyph name="amacron" xMin="36" yMin="-15" xMax="501" yMax="643">
      <contour>
        <pt x="501" y="40" on="1"/>
        <pt x="501" y="-15" on="0"/>
        <pt x="356" y="-15" on="0"/>
        <pt x="339" y="40" on="1"/>
        <pt x="274" y="-15" on="0"/>
        <pt x="120" y="-15" on="0"/>
        <pt x="36" y="58" on="0"/>
        <pt x="36" y="186" on="0"/>
        <pt x="133" y="270" on="0"/>
        <pt x="241" y="270" on="1"/>
        <pt x="288" y="270" on="0"/>
        <pt x="333" y="262" on="1"/>
        <pt x="333" y="318" on="1"/>
        <pt x="333" y="445" on="0"/>
        <pt x="234" y="445" on="1"/>
        <pt x="194" y="445" on="0"/>
        <pt x="147" y="391" on="0"/>
        <pt x="145" y="350" on="1"/>
        <pt x="111" y="347" on="0"/>
        <pt x="66" y="377" on="0"/>
        <pt x="66" y="408" on="1"/>
        <pt x="66" y="454" on="0"/>
        <pt x="161" y="514" on="0"/>
        <pt x="324" y="514" on="0"/>
        <pt x="435" y="426" on="0"/>
        <pt x="435" y="324" on="1"/>
        <pt x="435" y="48" on="1"/>
      </contour>
      <contour>
        <pt x="333" y="192" on="1"/>
        <pt x="293" y="209" on="0"/>
        <pt x="198" y="209" on="0"/>
        <pt x="144" y="169" on="0"/>
        <pt x="144" y="96" on="0"/>
        <pt x="186" y="56" on="0"/>
        <pt x="281" y="56" on="0"/>
        <pt x="333" y="93" on="1"/>
      </contour>
      <contour>
        <pt x="383" y="643" on="1"/>
        <pt x="383" y="578" on="1"/>
        <pt x="100" y="578" on="1"/>
        <pt x="100" y="643" on="1"/>
      </contour>
    </TTGlyph>
    <TTGlyph name="ampersand" xMin="37" yMin="-18" xMax="724" yMax="675">
      <contour>
        <pt x="643" y="68" on="1"/>
        <pt x="661" y="68" on="0"/>
        <pt x="701" y="84" on="0"/>
        <pt x="710" y="96" on="1"/>
        <pt x="724" y="84" on="0"/>
        <pt x="724" y="30" on="0"/>
        <pt x="678" y="-17" on="0"/>
        <pt x="634" y="-17" on="1"/>
        <pt x="562" y="-17" on="0"/>
        <pt x="460" y="54" on="1"/>
        <pt x="373" y="-18" on="0"/>
        <pt x="147" y="-18" on="0"/>
        <pt x="37" y="79" on="0"/>
        <pt x="37" y="156" on="1"/>
        <pt x="37" y="276" on="0"/>
        <pt x="164" y="346" on="1"/>
        <pt x="91" y="444" on="0"/>
        <pt x="91" y="584" on="0"/>
        <pt x="187" y="675" on="0"/>
        <pt x="338" y="675" on="0"/>
        <pt x="428" y="599" on="0"/>
        <pt x="428" y="467" on="0"/>
        <pt x="344" y="368" on="0"/>
        <pt x="284" y="346" on="1"/>
        <pt x="368" y="244" on="0"/>
        <pt x="468" y="160" on="1"/>
        <pt x="501" y="208" on="0"/>
        <pt x="518" y="273" on="1"/>
        <pt x="455" y="279" on="1"/>
        <pt x="450" y="334" on="0"/>
        <pt x="491" y="334" on="1"/>
        <pt x="654" y="334" on="1"/>
        <pt x="654" y="325" on="1"/>
        <pt x="654" y="281" on="0"/>
        <pt x="619" y="278" on="1"/>
        <pt x="587" y="276" on="1"/>
        <pt x="564" y="187" on="0"/>
        <pt x="520" y="121" on="1"/>
        <pt x="597" y="68" on="0"/>
      </contour>
      <contour>
        <pt x="338" y="578" on="0"/>
        <pt x="294" y="620" on="0"/>
        <pt x="230" y="620" on="0"/>
        <pt x="184" y="570" on="0"/>
        <pt x="184" y="532" on="1"/>
        <pt x="184" y="476" on="0"/>
        <pt x="252" y="386" on="1"/>
        <pt x="295" y="408" on="0"/>
        <pt x="338" y="489" on="0"/>
      </contour>
      <contour>
        <pt x="135" y="121" on="0"/>
        <pt x="208" y="54" on="0"/>
        <pt x="347" y="54" on="0"/>
        <pt x="406" y="96" on="1"/>
        <pt x="326" y="160" on="0"/>
        <pt x="234" y="263" on="1"/>
        <pt x="228" y="270" on="0"/>
        <pt x="205" y="295" on="0"/>
        <pt x="200" y="301" on="1"/>
        <pt x="135" y="250" on="0"/>
        <pt x="135" y="174" on="1"/>
      </contour>
    </TTGlyph>
    <TTGlyph name="aogonek" xMin="36" yMin="-182" xMax="520" yMax="514">
      <contour>
        <pt x="414" y="-85" on="1"/>
        <pt x="414" y="-108" on="0"/>
        <pt x="439" y="-133" on="0"/>
        <pt x="486" y="-133" on="0"/>
        <pt x="513" y="-111" on="1"/>
        <pt x="517" y="-114" on="0"/>
        <pt x="522" y="-141" on="0"/>
        <pt x="520" y="-149" on="1"/>
        <pt x="497" y="-182" on="0"/>
        <pt x="395" y="-182" on="0"/>
        <pt x="344" y="-138" on="0"/>
        <pt x="344" y="-104" on="1"/>
        <pt x="344" y="-50" on="0"/>
        <pt x="393" y="-11" on="1"/>
        <pt x="351" y="0" on="0"/>
        <pt x="339" y="40" on="1"/>
        <pt x="274" y="-15" on="0"/>
        <pt x="120" y="-15" on="0"/>
        <pt x="36" y="58" on="0"/>
        <pt x="36" y="186" on="0"/>
        <pt x="133" y="270" on="0"/>
        <pt x="241" y="270" on="1"/>
        <pt x="288" y="270" on="0"/>
        <pt x="333" y="262" on="1"/>
        <pt x="333" y="318" on="1"/>
        <pt x="333" y="445" on="0"/>
        <pt x="234" y="445" on="1"/>
        <pt x="194" y="445" on="0"/>
        <pt x="147" y="391" on="0"/>
        <pt x="145" y="350" on="1"/>
        <pt x="111" y="347" on="0"/>
        <pt x="66" y="377" on="0"/>
        <pt x="66" y="408" on="1"/>
        <pt x="66" y="454" on="0"/>
        <pt x="161" y="514" on="0"/>
        <pt x="324" y="514" on="0"/>
        <pt x="435" y="426" on="0"/>
        <pt x="435" y="324" on="1"/>
        <pt x="435" y="48" on="1"/>
        <pt x="501" y="40" on="1"/>
        <pt x="501" y="-2" on="0"/>
        <pt x="454" y="-12" on="1"/>
        <pt x="414" y="-40" on="0"/>
      </contour>
      <contour>
        <pt x="333" y="192" on="1"/>
        <pt x="293" y="209" on="0"/>
        <pt x="198" y="209" on="0"/>
        <pt x="144" y="169" on="0"/>
        <pt x="144" y="96" on="0"/>
        <pt x="186" y="56" on="0"/>
        <pt x="281" y="56" on="0"/>
        <pt x="333" y="93" on="1"/>
      </contour>
    </TTGlyph>
    <TTGlyph name="approxequal" xMin="89" yMin="196" xMax="469" yMax="422">
      <contour>
        <pt x="304" y="197" on="0"/>
        <pt x="209" y="251" on="0"/>
        <pt x="167" y="251" on="0"/>
        <pt x="133" y="225" on="0"/>
        <pt x="125" y="206" on="1"/>
        <pt x="89" y="219" on="1"/>
        <pt x="98" y="264" on="0"/>
        <pt x="123" y="295" on="1"/>
        <pt x="89" y="307" on="1"/>
        <pt x="100" y="360" on="0"/>
        <pt x="163" y="423" on="0"/>
        <pt x="243" y="421" on="0"/>
        <pt x="333" y="362" on="0"/>
        <pt x="390" y="361" on="0"/>
        <pt x="428" y="389" on="0"/>
        <pt x="435" y="412" on="1"/>
        <pt x="469" y="402" on="1"/>
        <pt x="459" y="351" on="0"/>
        <pt x="437" y="323" on="1"/>
        <pt x="469" y="314" on="1"/>
        <pt x="448" y="195" on="0"/>
        <pt x="346" y="196" on="1"/>
      </contour>
      <contour>
        <pt x="187" y="339" on="1"/>
        <pt x="146" y="339" on="0"/>
        <pt x="127" y="299" on="1"/>
        <pt x="160" y="335" on="0"/>
        <pt x="208" y="334" on="1"/>
        <pt x="214" y="334" on="1"/>
        <pt x="199" y="339" on="0"/>
      </contour>
      <contour>
        <pt x="363" y="274" on="1"/>
        <pt x="414" y="273" on="0"/>
        <pt x="433" y="318" on="1"/>
        <pt x="401" y="283" on="0"/>
        <pt x="346" y="284" on="1"/>
        <pt x="333" y="284" on="0"/>
        <pt x="313" y="288" on="1"/>
        <pt x="339" y="274" on="0"/>
      </contour>
    </TTGlyph>
    <TTGlyph name="aring" xMin="36" yMin="-15" xMax="501" yMax="725">
      <contour>
        <pt x="501" y="40" on="1"/>
        <pt x="501" y="-15" on="0"/>
        <pt x="356" y="-15" on="0"/>
        <pt x="339" y="40" on="1"/>
        <pt x="274" y="-15" on="0"/>
        <pt x="120" y="-15" on="0"/>
        <pt x="36" y="58" on="0"/>
        <pt x="36" y="186" on="0"/>
        <pt x="133" y="270" on="0"/>
        <pt x="241" y="270" on="1"/>
        <pt x="288" y="270" on="0"/>
        <pt x="333" y="262" on="1"/>
        <pt x="333" y="318" on="1"/>
        <pt x="333" y="445" on="0"/>
        <pt x="234" y="445" on="1"/>
        <pt x="194" y="445" on="0"/>
        <pt x="147" y="391" on="0"/>
        <pt x="145" y="350" on="1"/>
        <pt x="111" y="347" on="0"/>
        <pt x="66" y="377" on="0"/>
        <pt x="66" y="408" on="1"/>
        <pt x="66" y="454" on="0"/>
        <pt x="161" y="514" on="0"/>
        <pt x="324" y="514" on="0"/>
        <pt x="435" y="426" on="0"/>
        <pt x="435" y="324" on="1"/>
        <pt x="435" y="48" on="1"/>
      </contour>
      <contour>
        <pt x="333" y="192" on="1"/>
        <pt x="293" y="209" on="0"/>
        <pt x="198" y="209" on="0"/>
        <pt x="144" y="169" on="0"/>
        <pt x="144" y="96" on="0"/>
        <pt x="186" y="56" on="0"/>
        <pt x="281" y="56" on="0"/>
        <pt x="333" y="93" on="1"/>
      </contour>
      <contour>
        <pt x="338" y="596" on="0"/>
        <pt x="285" y="546" on="0"/>
        <pt x="202" y="546" on="0"/>
        <pt x="152" y="594" on="0"/>
        <pt x="152" y="674" on="0"/>
        <pt x="204" y="725" on="0"/>
        <pt x="289" y="725" on="0"/>
        <pt x="339" y="676" on="0"/>
      </contour>
      <contour>
        <pt x="245" y="678" on="1"/>
        <pt x="202" y="678" on="0"/>
        <pt x="202" y="635" on="1"/>
        <pt x="202" y="615" on="0"/>
        <pt x="225" y="591" on="0"/>
        <pt x="265" y="591" on="0"/>
        <pt x="289" y="615" on="0"/>
        <pt x="289" y="655" on="0"/>
        <pt x="265" y="678" on="0"/>
      </contour>
    </TTGlyph>
    <TTGlyph name="asciicircum" xMin="57" yMin="204" xMax="449" yMax="653">
      <contour>
        <pt x="449" y="204" on="1"/>
        <pt x="359" y="204" on="1"/>
        <pt x="256" y="487" on="1"/>
        <pt x="148" y="204" on="1"/>
        <pt x="57" y="204" on="1"/>
        <pt x="232" y="653" on="1"/>
        <pt x="284" y="653" on="1"/>
      </contour>
    </TTGlyph>
    <TTGlyph name="asciitilde" xMin="100" yMin="224" xMax="480" yMax="362">
      <contour>
        <pt x="315" y="225" on="0"/>
        <pt x="220" y="279" on="0"/>
        <pt x="178" y="279" on="0"/>
        <pt x="144" y="253" on="0"/>
        <pt x="136" y="234" on="1"/>
        <pt x="100" y="247" on="1"/>
        <pt x="111" y="300" on="0"/>
        <pt x="174" y="363" on="0"/>
        <pt x="254" y="361" on="0"/>
        <pt x="344" y="302" on="0"/>
        <pt x="401" y="301" on="0"/>
        <pt x="439" y="329" on="0"/>
        <pt x="446" y="352" on="1"/>
        <pt x="480" y="342" on="1"/>
        <pt x="459" y="223" on="0"/>
        <pt x="357" y="224" on="1"/>
      </contour>
    </TTGlyph>
    <TTGlyph name="asterisk" xMin="51" yMin="354" xMax="432" yMax="726">
      <contour>
        <pt x="264" y="565" on="1"/>
        <pt x="402" y="638" on="1"/>
        <pt x="414" y="622" on="0"/>
        <pt x="432" y="558" on="0"/>
        <pt x="432" y="536" on="1"/>
        <pt x="274" y="522" on="1"/>
        <pt x="390" y="416" on="1"/>
        <pt x="379" y="398" on="0"/>
        <pt x="325" y="359" on="0"/>
        <pt x="303" y="354" on="1"/>
        <pt x="241" y="494" on="1"/>
        <pt x="181" y="355" on="1"/>
        <pt x="160" y="360" on="0"/>
        <pt x="104" y="399" on="0"/>
        <pt x="94" y="417" on="1"/>
        <pt x="208" y="522" on="1"/>
        <pt x="51" y="536" on="1"/>
        <pt x="51" y="560" on="0"/>
        <pt x="68" y="624" on="0"/>
        <pt x="81" y="639" on="1"/>
        <pt x="219" y="564" on="1"/>
        <pt x="187" y="719" on="1"/>
        <pt x="208" y="727" on="0"/>
        <pt x="272" y="725" on="0"/>
        <pt x="293" y="718" on="1"/>
      </contour>
    </TTGlyph>
</ttFont>
